<svg width="36" height="21" viewBox="0 0 36 21" fill="none" xmlns="http://www.w3.org/2000/svg">
<g clip-path="url(#clip0_276_54)">
<path d="M23.4734 20.8789C21.6366 20.4992 19.9226 19.652 18.5771 18.4587C15.1228 15.3955 14.0552 10.5832 15.88 6.30143C16.3282 5.24993 17.0567 4.18281 17.9594 3.25573L18.7552 2.4384L18.8114 7.22221C18.8651 11.8012 18.8772 12.0318 19.0941 12.6089C19.5281 13.7632 19.9934 14.4982 20.7943 15.2946C22.8633 17.352 25.898 17.8654 28.4779 16.5946C30.9027 15.4001 32.4314 12.8029 32.2538 10.1794C32.1344 8.41713 31.5409 7.12491 30.2595 5.83739C29.2905 4.86384 28.1505 4.22791 26.9093 3.96861C25.6465 3.7048 25.7071 3.66624 25.7071 4.7335V5.65488L26.3994 5.78225C29.0805 6.27552 30.8537 8.90429 30.2949 11.5573C30.1164 12.4046 29.7182 13.1528 29.0792 13.8421C28.108 14.8895 26.7415 15.3902 25.5484 15.3879C23.5756 15.3841 21.9283 14.2647 21.1299 12.6094C21.1299 12.6094 20.9207 12.1362 20.8535 11.8439C20.4582 10.1244 20.7109 6.50492 20.7109 6.50492L20.6803 1.21256L20.9932 1.051C21.1653 0.96214 21.3303 0.889437 21.3599 0.889437C21.3896 0.889437 21.4272 3.32021 21.4435 6.29116C21.4435 6.29116 21.0636 10.1857 21.5331 11.6781C21.6009 11.8934 21.7295 12.2617 21.7295 12.2617C22.1411 13.0991 22.8008 13.8356 23.658 14.241C24.3087 14.5488 24.6363 14.688 25.599 14.688C26.2279 14.688 26.7851 14.4898 27.4262 14.1954C28.182 13.8483 29.049 12.9281 29.3694 12.0879C30.2521 9.77308 29.023 7.28261 26.6551 6.58816C25.6874 6.30434 25.7071 6.28871 25.7071 7.33942V8.2572L26.1716 8.38126C27.8461 8.82842 28.357 11.0694 27.0425 12.2208C26.5781 12.6277 26.1596 12.8075 25.4276 12.8075C24.6453 12.8075 23.8945 12.3348 23.5085 11.6097C23.2766 11.1741 23.257 10.761 23.257 10.5718C23.257 8.82393 23.2191 5.68049 23.2191 5.68049L23.1878 0.288378L23.4282 0.228761C23.5604 0.195971 24.0948 0.114835 24.6157 0.0484591C26.3824 -0.17665 28.9961 0.400642 30.7521 1.40379C33.146 2.77144 34.9574 5.12085 35.7116 7.8364C35.9711 8.77048 36 9.04208 36 10.5447C36 12.0406 35.9704 12.3212 35.7165 13.2348C34.6907 16.9256 32.0813 19.564 28.3503 20.683C27.5651 20.9185 27.1972 20.9634 25.8116 20.9929C24.6935 21.0167 23.9688 20.9814 23.4734 20.8789Z" fill="white"/>
</g>
<path d="M0 0H17.5L16 1.5H1L0 0Z" fill="white"/>
<path d="M4.5 4H14.5L14 5.5H5.5L4.5 4Z" fill="white"/>
<path d="M8 8H13L12.5 9.5H9L8 8Z" fill="white"/>
<defs>
<clipPath id="clip0_276_54">
<rect width="21" height="21" fill="white" transform="translate(15)"/>
</clipPath>
</defs>
</svg>
