<svg width="160" height="32" viewBox="0 0 160 32" fill="none" xmlns="http://www.w3.org/2000/svg">
<g clip-path="url(#clip0_276_2161)">
<path d="M31.2304 16C31.2304 24.8366 24.2392 32 15.6152 32C6.99115 32 0 24.8366 0 16C0 11.0354 2.2062 6.59886 5.66832 3.664V16C5.66832 21.6297 10.1209 26.192 15.6152 26.192C21.1095 26.192 25.5643 21.6297 25.5643 16C25.5643 10.3703 21.1117 5.808 15.6174 5.80571V8.70857C19.548 8.70857 22.7313 11.9726 22.7313 16C22.7313 20.0274 19.5458 23.2891 15.6152 23.2891C11.6846 23.2891 8.50136 20.0251 8.50136 16V1.75314C8.83151 1.57943 9.16835 1.41943 9.50965 1.26857V16C9.50965 19.4537 12.2445 22.256 15.6152 22.256C18.9858 22.256 21.7207 19.4537 21.7207 16C21.7207 12.5463 18.9903 9.74629 15.6174 9.744V12.4663C17.5225 12.4663 19.0639 14.048 19.0639 16C19.0639 17.952 17.5203 19.5337 15.6152 19.5337C13.7101 19.5337 12.1665 17.952 12.1665 16V0.390857C13.2751 0.134857 14.4307 0 15.6152 0H15.6174C24.2415 0.00228571 31.2304 7.16343 31.2304 16Z" fill="#929292"/>
<path d="M43.9612 10.2308H40.4166V24.8068H43.9612V10.2308Z" fill="#929292"/>
<path d="M71.9492 18.7498H71.8812V21.92H71.9492V18.7498Z" fill="#929292"/>
<path d="M95.0073 10.2308V24.8068H91.4627V16.1165L85.7297 24.8068H82.1872V10.2308H85.7297V18.9211L91.4627 10.2308H95.0073Z" fill="#929292"/>
<path d="M134.045 10.2308V24.8068H130.501V16.1165L124.768 24.8068H121.225V10.2308H124.768V18.9211L130.501 10.2308H134.045Z" fill="#929292"/>
<path d="M43.959 10.2308H38.1345V13.6251H43.959V10.2308Z" fill="#929292"/>
<path d="M107.006 10.2308V13.6228H103.553V24.8068H100.009V13.6228H96.5555V10.2308H107.006Z" fill="#929292"/>
<path d="M50.3501 17.5177C50.3501 19.7417 52.1101 21.5451 54.2784 21.5451C55.5433 21.5451 56.6675 20.9325 57.3858 19.9817V23.6114C56.266 24.368 54.9253 24.8068 53.482 24.8068C49.5537 24.8068 46.3682 21.5451 46.3682 17.5177C46.3682 13.4903 49.5537 10.2308 53.482 10.2308C54.9253 10.2308 56.266 10.6697 57.3858 11.4263V15.056C56.6675 14.1051 55.5433 13.4925 54.2784 13.4925C52.1101 13.4925 50.3501 15.296 50.3501 17.5177Z" fill="#929292"/>
<path d="M152.964 17.5177C152.964 19.7417 154.724 21.5451 156.893 21.5451C158.157 21.5451 159.282 20.9325 160 19.9817V23.6114C158.88 24.368 157.539 24.8068 156.096 24.8068C152.168 24.8068 148.982 21.5451 148.982 17.5177C148.982 13.4903 152.168 10.2308 156.096 10.2308C157.539 10.2308 158.88 10.6697 160 11.4263V15.056C159.282 14.1051 158.157 13.4925 156.893 13.4925C154.724 13.4925 152.964 15.296 152.964 17.5177Z" fill="#929292"/>
<path d="M62.9248 20.048C64.2208 20.048 65.2715 18.9715 65.2715 17.6435C65.2715 16.3155 64.2208 15.2389 62.9248 15.2389C61.6287 15.2389 60.578 16.3155 60.578 17.6435C60.578 18.9715 61.6287 20.048 62.9248 20.048Z" fill="#929292"/>
<path d="M143.854 17.52L148.661 24.8068H144.777L141.911 20.4617L140.305 18.0274V24.8068H136.762V10.2308H140.305V17.0103L141.911 14.576L144.777 10.2308H148.661L143.854 17.52Z" fill="#929292"/>
<path d="M114.852 10.2308H108.59V24.8068H112.135V19.9817H114.852C117.48 19.9817 119.61 17.7988 119.61 15.1063C119.61 12.4137 117.48 10.2308 114.852 10.2308ZM114.852 16.5463C114.584 16.7268 114.265 16.8343 113.92 16.8343H112.135V13.3783H113.92C114.265 13.3783 114.584 13.4857 114.852 13.6663C115.307 13.9748 115.608 14.5051 115.608 15.1063C115.608 15.7074 115.307 16.2377 114.852 16.5463Z" fill="#929292"/>
<path d="M74.9373 15.8651H71.9504V13.6228H78.8567V10.2308H68.4079V24.8068H74.9373C77.6767 24.8068 79.8985 22.8046 79.8985 20.336C79.8985 17.8674 77.6767 15.8651 74.9373 15.8651ZM75.1604 21.6571C74.8816 21.8217 74.5469 21.92 74.1878 21.92H71.8812V18.7497H74.1878C74.5469 18.7497 74.8816 18.8503 75.1604 19.0148C75.6333 19.2983 75.9479 19.7851 75.9479 20.336C75.9479 20.8868 75.6333 21.3737 75.1604 21.6571Z" fill="#929292"/>
</g>
<defs>
<clipPath id="clip0_276_2161">
<rect width="160" height="32" fill="white"/>
</clipPath>
</defs>
</svg>
