<svg width="48" height="48" viewBox="0 0 48 48" fill="none" xmlns="http://www.w3.org/2000/svg">
<path d="M24.6 19V37M24.6 19L31.8 14.5M24.6 19L17.4 15.5714M24.6 37H31.8M24.6 37H17.4M31.8 37H39V10L31.8 14.5M31.8 37V14.5M10.2 37H3V19L10.2 15.5714M10.2 37V15.5714M10.2 37H17.4M10.2 15.5714L13.8 13.8571L17.4 15.5714M17.4 37V15.5714" stroke="white" stroke-linecap="round" stroke-linejoin="round"/>
<path d="M3 40H21" stroke="white" stroke-linecap="round" stroke-linejoin="round"/>
<circle cx="36" cy="32" r="8" fill="#2A2A2A" stroke="white" stroke-linecap="round" stroke-linejoin="round"/>
<path d="M41 39L45 43" stroke="white" stroke-linecap="round" stroke-linejoin="round"/>
<path d="M25 12L35 5.63636M35 5.63636V8.18182M35 5.63636L32.6471 5" stroke="white" stroke-linecap="round" stroke-linejoin="round"/>
</svg>
