<svg width="48" height="48" viewBox="0 0 48 48" fill="none" xmlns="http://www.w3.org/2000/svg">
<path d="M1 37H13.1379V34.2362H5.13793C6.24138 29.7008 13 28.7087 13 23.6772C13 20.9843 11.2069 19 7.41379 19C5.06897 19 2.99999 19.7087 1.62069 20.4173L2.44828 22.9685C3.68966 22.3307 5.13794 21.7638 6.93104 21.7638C8.31034 21.7638 9.62069 22.4016 9.62069 24.0315C9.62069 27.7165 1.68966 28 1 37ZM13.4828 32.6063H21.2759V37H24.3793V32.6063H27V29.9134H24.3793V19H22.1034L13.4828 30.4803V32.6063ZM17 30.0551L21.4138 23.9606C21.4138 24.4567 21.2759 26.0157 21.2759 27.4331V29.9843H19.2069C18.5862 29.9843 17.4138 30.0551 17 30.0551Z" fill="white" stroke="white" stroke-width="0.5" stroke-linejoin="round"/>
<circle cx="38" cy="20" r="9" stroke="white"/>
<path d="M38 14V20H44" stroke="white" stroke-linecap="round" stroke-linejoin="round"/>
</svg>
