<svg width="32" height="32" viewBox="0 0 32 32" fill="none" xmlns="http://www.w3.org/2000/svg">
<path d="M11 9H15M9 9H6.9L3.43925 27.6348C3.21085 28.8647 4.15475 30 5.40563 30H26.5944C27.8452 30 28.7892 28.8647 28.5608 27.6348L26.2143 15" stroke="#242424" stroke-linecap="round" stroke-linejoin="round"/>
<path d="M11 11V6.82143C11 4.15863 13.2386 2 16 2C16.7973 2 17.551 2.17994 18.2198 2.5" stroke="#242424" stroke-linecap="round"/>
<path d="M30.181 7.32045L29.058 7.12994C28.941 6.75225 28.7906 6.38793 28.6068 6.04032L29.2686 5.11448C29.5493 4.72008 29.5059 4.18195 29.1616 3.84103L28.1656 2.845C27.9784 2.65782 27.7311 2.55421 27.467 2.55421C27.2598 2.55421 27.0626 2.61771 26.8955 2.73804L25.9663 3.39983C25.6053 3.20932 25.2276 3.05222 24.8366 2.93524L24.6494 1.82557C24.5692 1.34761 24.1581 1 23.6734 1H22.2663C21.7817 1 21.3706 1.34761 21.2903 1.82557L21.0965 2.96198C20.7221 3.07896 20.3578 3.23271 20.0102 3.41989L19.0911 2.7581C18.9239 2.63777 18.7234 2.57426 18.5162 2.57426C18.2521 2.57426 18.0014 2.67788 17.8176 2.86505L16.8182 3.86108C16.4773 4.20201 16.4305 4.74013 16.7113 5.13453L17.3798 6.07374C17.1959 6.42469 17.0489 6.78901 16.9352 7.1667L15.8256 7.35387C15.3476 7.43409 15 7.84521 15 8.32985V9.737C15 10.2216 15.3476 10.6328 15.8256 10.713L16.962 10.9068C17.079 11.2812 17.2327 11.6455 17.4199 11.9931L16.7614 12.9089C16.4807 13.3033 16.5241 13.8414 16.8684 14.1824L17.8644 15.1784C18.0516 15.3656 18.2989 15.4692 18.563 15.4692C18.7702 15.4692 18.9674 15.4057 19.1345 15.2854L20.0737 14.6169C20.4113 14.794 20.7656 14.9377 21.1299 15.0514L21.3171 16.1744C21.3973 16.6524 21.8084 17 22.293 17H23.7035C24.1882 17 24.5993 16.6524 24.6795 16.1744L24.87 15.0514C25.2477 14.9344 25.612 14.784 25.9596 14.6002L26.8855 15.262C27.0526 15.3823 27.2531 15.4458 27.4603 15.4458C27.7244 15.4458 27.9717 15.3422 28.1589 15.155L29.1549 14.159C29.4958 13.818 29.5426 13.2799 29.2619 12.8855L28.6001 11.9563C28.7839 11.6054 28.9377 11.2411 29.0513 10.8667L30.1743 10.6795C30.6523 10.5993 30.9999 10.1882 30.9999 9.70357V8.29643C31.0066 7.81178 30.659 7.40067 30.181 7.32045Z" stroke="#242424" stroke-linejoin="round"/>
<circle cx="22.9999" cy="9.00003" r="2.90909" stroke="#242424" stroke-linejoin="round"/>
</svg>
