<svg width="32" height="32" viewBox="0 0 32 32" fill="none" xmlns="http://www.w3.org/2000/svg">
<path d="M15.2754 13.1345L9.04292 6.88839V5.6625C9.04292 5.48417 8.94929 5.31873 8.79633 5.22709L5.20536 3.07245C5.00538 2.95244 4.74966 2.98398 4.585 3.14882L3.14869 4.58478C2.98403 4.74962 2.95249 5.00531 3.07232 5.20527L5.22678 8.79586C5.31843 8.9488 5.48369 9.04223 5.66204 9.04243L6.88766 9.04282L13.1207 15.2889M17.3521 21.1054L23.7849 28.0922C23.7897 28.0973 23.7947 28.1023 23.7996 28.1072C24.9899 29.2974 26.9184 29.2978 28.1093 28.107C29.2969 26.919 29.2969 24.986 28.1093 23.798C28.1042 23.7928 28.0988 23.7878 28.0935 23.7829L21.095 17.363M17.3521 21.1054L15.7396 18.8889M17.3521 21.1054L21.095 17.363M21.095 17.363L18.8889 15.76" stroke="#242424"/>
<path d="M25.5436 3.26482L25.3838 3.73859C25.3866 3.73954 25.3883 3.74169 25.3888 3.74389L25.3889 3.7443C25.3896 3.74703 25.3888 3.74962 25.3871 3.75134L25.387 3.75141L23.3118 5.85749L23.168 6.00347V6.20842V7.2318V7.43374L23.3082 7.57904L24.4193 8.73017L24.5668 8.88294H24.7791H25.7884H25.9966L26.1433 8.73509L28.2486 6.61314L28.2489 6.61284C28.2503 6.61148 28.2529 6.61047 28.2557 6.61111L28.2562 6.61123C28.2582 6.61169 28.2604 6.61341 28.2613 6.61604L28.2614 6.61631C28.4196 7.0857 28.5 7.57723 28.5 8.07824C28.5 10.6021 26.446 12.6563 23.9219 12.6563C23.5183 12.6563 23.1206 12.604 22.7354 12.5011L22.4568 12.4266L22.2528 12.6305L19.2455 15.6378L19.599 15.9914L19.2455 15.6378L15.6238 19.2596L12.631 22.2524L12.4264 22.4571L12.5019 22.7365C12.8616 24.0669 12.6114 25.4553 11.7937 26.5935C10.9219 27.8068 9.57094 28.5 8.07808 28.5C7.57725 28.5 7.08553 28.4196 6.61639 28.2614L6.61607 28.2613C6.61343 28.2604 6.61172 28.2582 6.61125 28.2562L6.61116 28.2558C6.61048 28.2529 6.61141 28.2502 6.61315 28.2485L6.61317 28.2484L8.73493 26.1434L8.88278 25.9967V25.7884V24.7736V24.5664L8.73633 24.42L7.58003 23.2637L7.43358 23.1173H7.22648H6.21162H6.00335L5.85667 23.2651L3.75157 25.3869L3.75155 25.3869C3.74982 25.3886 3.7471 25.3895 3.74418 25.3889L3.74378 25.3888C3.74177 25.3883 3.7396 25.3866 3.73871 25.384L3.7386 25.3836C3.58038 24.9145 3.5 24.4228 3.5 23.922C3.5 22.429 4.19308 21.0779 5.40634 20.2063C6.54447 19.3887 7.93309 19.1385 9.26359 19.4982L9.54298 19.5737L9.74762 19.3691L13.474 15.6427L15.6285 13.4882L19.3692 9.74758L19.5739 9.5429L19.4983 9.26348C19.1384 7.93293 19.3883 6.54514 20.2053 5.40769C21.0775 4.19355 22.4291 3.5 23.9219 3.5C24.4229 3.5 24.9145 3.58037 25.3839 3.73862L25.5436 3.26482ZM25.5436 3.26482C25.7094 3.32076 25.8348 3.45803 25.8753 3.62823L19.0156 9.39402C18.6163 7.91756 18.895 6.37485 19.7992 5.116C20.7653 3.77126 22.2679 3 23.9219 3C24.4768 3 25.0223 3.08907 25.5436 3.26482Z" stroke="#242424"/>
</svg>
