<svg width="32" height="32" viewBox="0 0 32 32" fill="none" xmlns="http://www.w3.org/2000/svg">
<path d="M1 25H9.40318V23.1575H3.86472C4.62865 20.1339 9.30769 19.4724 9.30769 16.1181C9.30769 14.3228 8.06631 13 5.44032 13C3.81698 13 2.38461 13.4724 1.42971 13.9449L2.00266 15.6457C2.86207 15.2205 3.86473 14.8425 5.10611 14.8425C6.06101 14.8425 6.96817 15.2677 6.96817 16.3543C6.96817 18.811 1.47745 19 1 25ZM9.64191 22.0709H15.0371V25H17.1857V22.0709H19V20.2756H17.1857V13H15.6101L9.64191 20.6535V22.0709ZM12.0769 20.3701L15.1326 16.3071C15.1326 16.6378 15.0371 17.6772 15.0371 18.622V20.3228H13.6048C13.1751 20.3228 12.3634 20.3701 12.0769 20.3701Z" fill="#242424" stroke="#242424" stroke-width="0.2" stroke-linejoin="round"/>
<circle cx="25" cy="13" r="6" stroke="#242424"/>
<path d="M25 9V13H29" stroke="#242424" stroke-linecap="round" stroke-linejoin="round"/>
</svg>
