<svg width="32" height="32" viewBox="0 0 32 32" fill="none" xmlns="http://www.w3.org/2000/svg">
<path d="M6.5 14V14C4.567 14 3 15.567 3 17.5V17.5C3 19.433 4.567 21 6.5 21H8V14H6.5ZM6.5 14V12.5C6.5 7.25329 10.7533 3 16 3V3C21.2467 3 25.5 7.2533 25.5 12.5V14M25.5 14V14C27.433 14 29 15.567 29 17.5V17.5C29 19.433 27.433 21 25.5 21V21M25.5 14H24V21H25.5M25.5 21V21.5C25.5 24.5376 23.0376 27 20 27V27M20 27C20 26 19 25 17 25C15 25 14 26 14 27C14 28 15 29 17 29C19 29 20 28 20 27Z" stroke="#242424" stroke-linecap="round" stroke-linejoin="round"/>
</svg>
