<svg width="24" height="24" viewBox="0 0 24 24" fill="none" xmlns="http://www.w3.org/2000/svg">
<path d="M19.5 16.2738L19.1872 15.8837C19.0689 15.9786 19 16.1221 19 16.2738H19.5ZM15.7737 18.2011L16.1185 17.8391C15.9882 17.7149 15.8011 17.6704 15.6288 17.7226L15.7737 18.2011ZM19.5 21.75L19.1552 22.1121C19.3 22.25 19.5131 22.2884 19.697 22.2096C19.8808 22.1308 20 21.95 20 21.75H19.5ZM22 10.5C22 12.5677 20.9489 14.4712 19.1872 15.8837L19.8128 16.6639C21.7627 15.1004 23 12.9281 23 10.5H22ZM12 2.75C17.6419 2.75 22 6.32541 22 10.5H23C23 5.56189 17.9561 1.75 12 1.75V2.75ZM2 10.5C2 6.32541 6.35811 2.75 12 2.75V1.75C6.04391 1.75 1 5.56189 1 10.5H2ZM12 18.25C6.35811 18.25 2 14.6746 2 10.5H1C1 15.4381 6.04391 19.25 12 19.25V18.25ZM15.6288 17.7226C14.5051 18.0627 13.2816 18.25 12 18.25V19.25C13.3787 19.25 14.7 19.0486 15.9186 18.6797L15.6288 17.7226ZM19.8448 21.3879L16.1185 17.8391L15.4289 18.5632L19.1552 22.1121L19.8448 21.3879ZM19 16.2738V21.75H20V16.2738H19Z" fill="white"/>
<path d="M6.75 10.5H17.25" stroke="white" stroke-linecap="round" stroke-linejoin="round"/>
<path d="M6.75 12.75H17.25" stroke="white" stroke-linecap="round" stroke-linejoin="round"/>
<path d="M6.75 8.25H17.25" stroke="white" stroke-linecap="round" stroke-linejoin="round"/>
</svg>
