<svg width="48" height="48" viewBox="0 0 48 48" fill="none" xmlns="http://www.w3.org/2000/svg">
<path d="M29 6C27.7182 6 26.5517 6.44721 25.7163 7.1677C24.881 7.90062 24.3626 8.89441 24.3626 10H6C6 8.89441 6.51847 7.90062 7.35379 7.1677C8.20351 6.44721 9.35567 6 10.6374 6H29Z" stroke="#485CDA" stroke-linecap="round" stroke-linejoin="round"/>
<path d="M38 38C38 39.1022 37.499 40.1053 36.6779 40.8235C35.8708 41.5542 34.7435 42 33.505 42H17C18.2386 42 19.3658 41.5542 20.173 40.8235C20.9801 40.1053 21.4811 39.1022 21.4811 38H38Z" stroke="#485CDA" stroke-linecap="round" stroke-linejoin="round"/>
<path d="M34 32.6074V35M17 42C12 42 10 40 10 37.3469V13M29 6C30.5 6 31.8182 6.4898 32.6573 7.26771C33.4812 8.06002 34 9.14046 34 10.3361V15.3926" stroke="#485CDA" stroke-linecap="round" stroke-linejoin="round"/>
<path d="M33.5 32C38.1944 32 42 28.4183 42 24C42 19.5817 38.1944 16 33.5 16C28.8056 16 25 19.5817 25 24C25 28.4183 28.8056 32 33.5 32Z" stroke="#485CDA" stroke-linecap="round" stroke-linejoin="round"/>
<path d="M18 17H14V20H18V17Z" stroke="#485CDA" stroke-linecap="round" stroke-linejoin="round"/>
<path d="M18 23H14V26H18V23Z" stroke="#485CDA" stroke-linecap="round" stroke-linejoin="round"/>
<path d="M18 29H14V32H18V29Z" stroke="#485CDA" stroke-linecap="round" stroke-linejoin="round"/>
<path d="M30 24.5L32.3596 27L37 22" stroke="#485CDA" stroke-linecap="round" stroke-linejoin="round"/>
</svg>
