<svg width="125" height="32" viewBox="0 0 125 32" fill="none" xmlns="http://www.w3.org/2000/svg">
<g clip-path="url(#clip0_276_2198)">
<path d="M67.9619 28.1065C64.3019 28.1065 61.3246 25.151 61.3246 21.5178C61.3246 17.8847 64.3019 14.9292 67.9619 14.9292C71.6219 14.9292 74.5992 17.8847 74.5992 21.5178C74.5992 25.151 71.6219 28.1065 67.9619 28.1065ZM67.9619 17.3746C65.6603 17.3746 63.7881 19.2331 63.7881 21.5178C63.7881 23.8026 65.6603 25.6611 67.9619 25.6611C70.2635 25.6611 72.1357 23.8026 72.1357 21.5178C72.1357 19.2331 70.2635 17.3746 67.9619 17.3746Z" fill="#929292"/>
<path d="M82.3889 28.1066C78.7307 28.1066 75.7534 25.1511 75.7534 21.5197C75.7534 17.8882 78.7307 14.931 82.3889 14.931C83.9075 14.931 85.3944 15.455 86.5716 16.4053C87.0995 16.8315 87.1804 17.6018 86.7511 18.1258C86.3217 18.6498 85.5457 18.7302 85.0178 18.304C84.2665 17.6978 83.3567 17.3782 82.3872 17.3782C80.0874 17.3782 78.2151 19.2367 78.2151 21.5214C78.2151 23.8061 80.0874 25.6629 82.3872 25.6629C83.3567 25.6629 84.2665 25.3433 85.0178 24.7371C85.5457 24.3109 86.3217 24.3913 86.7511 24.9153C87.1804 25.4393 87.0995 26.2096 86.5716 26.6358C85.3926 27.5861 83.9075 28.1101 82.3889 28.1101V28.1066Z" fill="#929292"/>
<path d="M107.024 14.931C103.365 14.931 100.388 17.8865 100.388 21.5197C100.388 25.1529 103.365 28.1066 107.024 28.1066C108.625 28.1066 110.17 27.5336 111.377 26.4943C111.891 26.0507 111.945 25.2786 111.498 24.7686C111.053 24.2585 110.276 24.2044 109.762 24.6463C109.003 25.3013 108.03 25.6612 107.024 25.6612C105.153 25.6612 103.564 24.4315 103.038 22.7424H112.429C113.11 22.7424 113.661 22.1957 113.661 21.5197C113.661 17.8865 110.684 14.931 107.024 14.931ZM103.036 20.297C103.564 18.6079 105.151 17.3764 107.024 17.3764C108.896 17.3764 110.485 18.6079 111.013 20.297H103.036Z" fill="#929292"/>
<path d="M58.7608 9.5249C58.0816 9.5249 57.5291 10.0716 57.5291 10.7476V16.4C56.3888 15.4812 54.9354 14.931 53.3553 14.931C49.697 14.931 46.7197 17.8865 46.7197 21.5197C46.7197 25.1529 49.697 28.1066 53.3553 28.1066C57.0135 28.1066 59.9926 25.1511 59.9926 21.5197V10.7476C59.9926 10.0716 59.4418 9.5249 58.7608 9.5249ZM53.3553 25.6611C51.0554 25.6611 49.1832 23.8026 49.1832 21.5197C49.1832 19.2367 51.0554 17.3764 53.3553 17.3764C55.6551 17.3764 57.5291 19.2349 57.5291 21.5197C57.5291 23.8044 55.6568 25.6611 53.3553 25.6611Z" fill="#929292"/>
<path d="M99.6966 26.0769C100.145 26.5834 100.094 27.3572 99.584 27.8026C99.3499 28.007 99.0596 28.1066 98.771 28.1066C98.4297 28.1066 98.0883 27.9668 97.8455 27.6908L92.556 21.717L91.1378 22.6358V26.8839C91.1378 27.5598 90.587 28.1066 89.9061 28.1066C89.2251 28.1066 88.6743 27.5598 88.6743 26.8839V10.7476C88.6743 10.0716 89.2268 9.5249 89.9061 9.5249C90.5853 9.5249 91.1378 10.0716 91.1378 10.7476V19.717L92.0546 19.1249C92.0862 19.1022 92.1197 19.0812 92.1531 19.0603L98.2291 15.1301C98.7992 14.7598 99.5629 14.9205 99.9324 15.4865C100.305 16.0524 100.144 16.8087 99.5734 17.1773L94.6412 20.3686L99.6966 26.0769Z" fill="#929292"/>
<path d="M124.843 17.1843C124.513 17.7747 123.761 17.9861 123.168 17.6577C122.593 17.3398 121.356 17.2629 120.194 17.7485C119.265 18.1345 118.048 19.0201 117.446 21.0306V26.8839C117.446 27.5599 116.895 28.1066 116.214 28.1066C115.533 28.1066 114.982 27.5599 114.982 26.8839V16.1537C114.982 15.4778 115.533 14.931 116.214 14.931C116.895 14.931 117.446 15.4778 117.446 16.1537V16.5939C117.981 16.138 118.583 15.7677 119.241 15.4935C120.972 14.7721 123.033 14.7826 124.366 15.5214C124.961 15.8498 125.174 16.5957 124.843 17.1843Z" fill="#929292"/>
<path d="M8.07319 10.131H4.07885C3.88449 10.131 3.72693 10.2874 3.72693 10.4803V13.9843C3.72693 14.1772 3.88449 14.3336 4.07885 14.3336H8.07319C8.26756 14.3336 8.42512 14.1772 8.42512 13.9843V10.4803C8.42512 10.2874 8.26756 10.131 8.07319 10.131Z" fill="#929292"/>
<path d="M13.528 10.131H9.53369C9.33932 10.131 9.18176 10.2874 9.18176 10.4803V13.9843C9.18176 14.1772 9.33932 14.3336 9.53369 14.3336H13.528C13.7224 14.3336 13.88 14.1772 13.88 13.9843V10.4803C13.88 10.2874 13.7224 10.131 13.528 10.131Z" fill="#929292"/>
<path d="M18.9827 10.131H14.9884C14.794 10.131 14.6365 10.2874 14.6365 10.4803V13.9843C14.6365 14.1772 14.794 14.3336 14.9884 14.3336H18.9827C19.1771 14.3336 19.3347 14.1772 19.3347 13.9843V10.4803C19.3347 10.2874 19.1771 10.131 18.9827 10.131Z" fill="#929292"/>
<path d="M24.4376 10.131H20.4432C20.2489 10.131 20.0913 10.2874 20.0913 10.4803V13.9843C20.0913 14.1772 20.2489 14.3336 20.4432 14.3336H24.4376C24.6319 14.3336 24.7895 14.1772 24.7895 13.9843V10.4803C24.7895 10.2874 24.6319 10.131 24.4376 10.131Z" fill="#929292"/>
<path d="M13.528 5.06555H9.53369C9.33932 5.06555 9.18176 5.22196 9.18176 5.4149V8.91883C9.18176 9.11177 9.33932 9.26817 9.53369 9.26817H13.528C13.7224 9.26817 13.88 9.11177 13.88 8.91883V5.4149C13.88 5.22196 13.7224 5.06555 13.528 5.06555Z" fill="#929292"/>
<path d="M18.9827 5.06555H14.9884C14.794 5.06555 14.6365 5.22196 14.6365 5.4149V8.91883C14.6365 9.11177 14.794 9.26817 14.9884 9.26817H18.9827C19.1771 9.26817 19.3347 9.11177 19.3347 8.91883V5.4149C19.3347 5.22196 19.1771 5.06555 18.9827 5.06555Z" fill="#929292"/>
<path d="M24.4376 5.06555H20.4432C20.2489 5.06555 20.0913 5.22196 20.0913 5.4149V8.91883C20.0913 9.11177 20.2489 9.26817 20.4432 9.26817H24.4376C24.6319 9.26817 24.7895 9.11177 24.7895 8.91883V5.4149C24.7895 5.22196 24.6319 5.06555 24.4376 5.06555Z" fill="#929292"/>
<path d="M24.4376 0H20.4432C20.2489 0 20.0913 0.156407 20.0913 0.349345V3.85327C20.0913 4.04621 20.2489 4.20262 20.4432 4.20262H24.4376C24.6319 4.20262 24.7895 4.04621 24.7895 3.85327V0.349345C24.7895 0.156407 24.6319 0 24.4376 0Z" fill="#929292"/>
<path d="M29.8924 10.131H25.8981C25.7037 10.131 25.5461 10.2874 25.5461 10.4803V13.9843C25.5461 14.1772 25.7037 14.3336 25.8981 14.3336H29.8924C30.0868 14.3336 30.2443 14.1772 30.2443 13.9843V10.4803C30.2443 10.2874 30.0868 10.131 29.8924 10.131Z" fill="#929292"/>
<path d="M34.3355 14.3336C34.3355 14.3336 33.9783 15.1982 29.7852 15.1982C25.592 15.1982 4.72638 15.2349 2.01656 15.1982C-0.392362 15.165 -0.0914666 16.8384 0.179515 19.7467C0.415304 22.2847 1.95849 32 16.0671 32C31.2949 32 36.3908 21.7118 37.8759 16.8157C37.8759 16.8157 43.7425 17.0794 44.9408 12.4489C44.9408 12.4489 42.8926 10.3842 38.9528 11.3537C38.9528 11.3537 38.5428 7.97377 35.1397 6.2218C35.1397 6.2218 31.6785 10.4768 34.3373 14.3301L34.3355 14.3336Z" fill="#929292"/>
</g>
<defs>
<clipPath id="clip0_276_2198">
<rect width="125" height="32" fill="white"/>
</clipPath>
</defs>
</svg>
