<svg width="48" height="48" viewBox="0 0 48 48" fill="none" xmlns="http://www.w3.org/2000/svg">
<path d="M29.5 39C37.5081 39 44 32.5081 44 24.5C44 16.4919 37.5081 10 29.5 10C21.4919 10 15 16.4919 15 24.5C15 32.5081 21.4919 39 29.5 39Z" stroke="#485CDA" stroke-linecap="round" stroke-linejoin="round"/>
<path d="M38.0843 20.4139C38.6795 21.65 39 23.0349 39 24.5C39 29.7422 34.7536 34 29.5 34C24.2464 34 20 29.7536 20 24.5C20 19.2464 24.2464 15 29.5 15C30.9651 15 32.3386 15.3319 33.5747 15.9157" stroke="#485CDA" stroke-linecap="round" stroke-linejoin="round"/>
<path d="M31.5 24.5C31.5 25.6046 30.6046 26.5 29.5 26.5C28.3954 26.5 27.5 25.6046 27.5 24.5C27.5 23.3954 28.3954 22.5 29.5 22.5C30.6046 22.5 31.5 23.3954 31.5 24.5Z" stroke="#485CDA"/>
<path d="M29.5 24.5L36 18" stroke="#485CDA" stroke-linecap="round" stroke-linejoin="round"/>
<path d="M30 10V12" stroke="#485CDA" stroke-linecap="round" stroke-linejoin="round"/>
<path d="M39.5 14.5L38 16" stroke="#485CDA" stroke-linecap="round" stroke-linejoin="round"/>
<path d="M19.5 14.5L21 16" stroke="#485CDA" stroke-linecap="round" stroke-linejoin="round"/>
<path d="M15 24H17" stroke="#485CDA" stroke-linecap="round" stroke-linejoin="round"/>
<path d="M42 24H44" stroke="#485CDA" stroke-linecap="round" stroke-linejoin="round"/>
<path d="M12 24H4" stroke="#485CDA" stroke-linecap="round" stroke-linejoin="round"/>
<path d="M15 14H9" stroke="#485CDA" stroke-linecap="round" stroke-linejoin="round"/>
<path d="M15 35H9" stroke="#485CDA" stroke-linecap="round" stroke-linejoin="round"/>
</svg>
