<svg width="32" height="32" viewBox="0 0 32 32" fill="none" xmlns="http://www.w3.org/2000/svg">
<path d="M12 10.6666V6.66663C12 4.45749 13.7909 2.66663 16 2.66663V2.66663C18.2091 2.66663 20 4.45514 20 6.66428C20 10.8192 20 16.5734 20 18.6148C20 22.2394 14.6667 22.2394 14.6667 18.6148C14.6667 15.7152 14.6667 9.67418 14.6667 8.46598" stroke="#485CDA" stroke-linecap="round" stroke-linejoin="round"/>
<path d="M20.5708 8L24.666 8C25.7706 8 26.666 8.89543 26.666 10L26.666 27.3333C26.666 28.4379 25.7706 29.3333 24.666 29.3333L7.33268 29.3333C6.22811 29.3333 5.33268 28.4379 5.33268 27.3333L5.33268 10C5.33268 8.89543 6.22811 8 7.33268 8L8.3803 8" stroke="#485CDA" stroke-linecap="round" stroke-linejoin="round"/>
</svg>
