<svg width="48" height="48" viewBox="0 0 48 48" fill="none" xmlns="http://www.w3.org/2000/svg">
<path d="M23.5 29C29.8513 29 35 23.8513 35 17.5C35 11.1487 29.8513 6 23.5 6C17.1487 6 12 11.1487 12 17.5C12 23.8513 17.1487 29 23.5 29Z" stroke="#485CDA" stroke-linecap="round" stroke-linejoin="round"/>
<path d="M23.5 11L25.5044 15.2738L30 15.9643L26.75 19.2976L27.52 24L23.5 21.7738L19.48 24L20.25 19.2976L17 15.9643L21.4956 15.2738L23.5 11Z" stroke="#485CDA" stroke-linecap="round" stroke-linejoin="round"/>
<path d="M16 26.5L11 39.1308L15.7159 37.6389L17.9413 42L22 31.5" stroke="#485CDA" stroke-linecap="round" stroke-linejoin="round"/>
<path d="M24 29L29.8569 42L32.2024 37.5658L37 39.1253L32.6288 29" stroke="#485CDA" stroke-linecap="round" stroke-linejoin="round"/>
</svg>
