<svg width="24" height="12" viewBox="0 0 24 12" fill="none" xmlns="http://www.w3.org/2000/svg">
<path d="M23.0625 6C23.0631 7.00171 22.7665 7.98108 22.2103 8.81416C21.6541 9.64725 20.8632 10.2966 19.9378 10.68C19.0123 11.0634 17.994 11.1637 17.0115 10.9681C16.0291 10.7725 15.1268 10.2899 14.4188 9.58125L14.4 9.55312L8.77501 3.20625C8.22327 2.65827 7.52163 2.28594 6.75857 2.13619C5.99551 1.98645 5.20519 2.066 4.48728 2.36481C3.76937 2.66362 3.15601 3.16831 2.72454 3.81524C2.29307 4.46218 2.06282 5.22238 2.06282 6C2.06282 6.77761 2.29307 7.53782 2.72454 8.18475C3.15601 8.83168 3.76937 9.33638 4.48728 9.63519C5.20519 9.934 5.99551 10.0135 6.75857 9.8638C7.52163 9.71405 8.22327 9.34172 8.77501 8.79375L9.57188 7.89375C9.61881 7.83282 9.67773 7.78217 9.745 7.74491C9.81228 7.70766 9.88648 7.68459 9.96302 7.67715C10.0396 7.6697 10.1168 7.67802 10.19 7.7016C10.2632 7.72519 10.3308 7.76353 10.3886 7.81426C10.4464 7.86499 10.4932 7.92703 10.526 7.99655C10.5589 8.06607 10.5772 8.1416 10.5797 8.21846C10.5822 8.29532 10.569 8.37188 10.5408 8.44342C10.5125 8.51495 10.47 8.57994 10.4156 8.63437L9.60001 9.55312L9.58126 9.58125C8.87308 10.2888 7.97102 10.7705 6.98911 10.9655C6.0072 11.1605 4.98952 11.06 4.06472 10.6767C3.13992 10.2934 2.34952 9.64455 1.79344 8.81212C1.23735 7.97969 0.940552 7.00108 0.940552 6C0.940552 4.99891 1.23735 4.0203 1.79344 3.18787C2.34952 2.35544 3.13992 1.70656 4.06472 1.32327C4.98952 0.939972 6.0072 0.839467 6.98911 1.03446C7.97102 1.22944 8.87308 1.71117 9.58126 2.41875L9.60001 2.44687L15.225 8.79375C15.7767 9.34172 16.4784 9.71405 17.2414 9.8638C18.0045 10.0135 18.7948 9.934 19.5127 9.63519C20.2306 9.33638 20.844 8.83168 21.2755 8.18475C21.7069 7.53782 21.9372 6.77761 21.9372 6C21.9372 5.22238 21.7069 4.46218 21.2755 3.81524C20.844 3.16831 20.2306 2.66362 19.5127 2.36481C18.7948 2.066 18.0045 1.98645 17.2414 2.13619C16.4784 2.28594 15.7767 2.65827 15.225 3.20625L14.4281 4.10625C14.3812 4.16717 14.3223 4.21782 14.255 4.25508C14.1877 4.29233 14.1135 4.3154 14.037 4.32285C13.9605 4.3303 13.8832 4.32197 13.81 4.29839C13.7368 4.27481 13.6692 4.23647 13.6114 4.18573C13.5536 4.135 13.5069 4.07296 13.474 4.00344C13.4411 3.93392 13.4228 3.85839 13.4203 3.78154C13.4178 3.70468 13.431 3.62811 13.4592 3.55658C13.4875 3.48504 13.5301 3.42005 13.5844 3.36562L14.4 2.44687L14.4188 2.41875C15.1268 1.71013 16.0291 1.22748 17.0115 1.03189C17.994 0.836302 19.0123 0.936561 19.9378 1.31998C20.8632 1.7034 21.6541 2.35274 22.2103 3.18583C22.7665 4.01891 23.0631 4.99829 23.0625 6Z" fill="#485CDA"/>
</svg>
