<svg width="48" height="48" viewBox="0 0 48 48" fill="none" xmlns="http://www.w3.org/2000/svg">
<path d="M30.7788 27.1852C31.1539 26.2222 31.3682 25.1743 31.3682 24.0839C31.3682 22.9935 31.1807 22.0447 30.819 21.1383C30.819 21.0817 30.7922 21.0392 30.7788 20.9967C30.0152 19.1133 28.5952 17.598 26.8135 16.805C26.7734 16.7908 26.7332 16.7625 26.6796 16.7484C25.8222 16.3802 24.8711 16.1678 23.8798 16.1678H13.8461V19.8922L11.2607 18.0654L4 12.939L13.8461 6V9.79521H20.8389C20.8389 9.79521 20.9059 9.79521 20.9461 9.76688V6.26906C21.8972 6.08497 22.8751 6 23.8798 6C24.8845 6 25.8624 6.08497 26.8135 6.26906V9.76688C28.4613 10.1492 30.0018 10.829 31.3816 11.7778L33.7259 9.29956C35.3335 10.4891 36.74 11.976 37.8787 13.6754L35.5344 16.1536C36.4319 17.6122 37.0749 19.2407 37.4366 20.9967H40.7455C40.9196 22.0022 41 23.0359 41 24.0839C41 25.1318 40.9196 26.1797 40.7455 27.1852H37.4366C37.2541 28.0985 36.962 28.9156 36.6087 29.7476" stroke="#485CDA" stroke-linecap="round" stroke-linejoin="round"/>
<path d="M17.2115 20.8122C16.8363 21.7605 16.6219 22.8079 16.6219 23.8977C16.6219 24.9875 16.8095 25.9358 17.1713 26.8558C17.1847 26.8982 17.1981 26.9407 17.2249 26.9973C17.9754 28.8797 19.3959 30.38 21.1782 31.1867C21.2184 31.1867 21.2586 31.2292 21.3122 31.2434C22.1699 31.6113 23.1213 31.8237 24.113 31.8237C24.1934 31.8237 24.2872 31.8237 24.3676 31.8237H34.1503V28.073L36.7635 29.9129L44 35.0082L34.1503 41.9434V38.1927H27.2086L27.0478 38.2352V41.7311C26.0963 41.9151 25.1181 42 24.113 42C23.1079 42 22.1297 41.9151 21.1782 41.7311V38.2352C19.5299 37.853 17.9754 37.1595 16.6085 36.2112L14.2633 38.7023H14.2499C12.6418 37.4851 11.2481 36.0131 10.1224 34.3147L12.4676 31.8378C11.5697 30.38 10.9265 28.7523 10.5647 27.0115H7.25462C7.08041 26.0066 7 24.9734 7 23.9118C7 22.8503 7.08041 21.8313 7.25462 20.8264H10.5647C10.7565 19.9145 11.0235 19.0366 11.3656 18.1927" stroke="#485CDA" stroke-linecap="round" stroke-linejoin="round"/>
</svg>
