<svg width="48" height="48" viewBox="0 0 48 48" fill="none" xmlns="http://www.w3.org/2000/svg">
<path d="M19 27H9V9" stroke="#485CDA" stroke-linecap="round" stroke-linejoin="round"/>
<path d="M29 21H39V44H21V27" stroke="#485CDA" stroke-linecap="round" stroke-linejoin="round"/>
<path d="M15.1238 4V9H9L15.1238 4ZM15.1238 4H27V27H21L27 21.5372" stroke="#485CDA" stroke-linecap="round" stroke-linejoin="round"/>
<path d="M25.3984 31.5896L26.993 30.5423V36.6332" stroke="#485CDA" stroke-linecap="round" stroke-linejoin="round"/>
<path d="M34.6206 35.7424C34.1803 36.2961 33.5854 36.6332 32.919 36.6332C31.5863 36.6332 30.5034 35.273 30.5034 33.5877C30.5034 31.9025 31.5863 30.5423 32.919 30.5423C33.5854 30.5423 34.1922 30.8794 34.6206 31.4331" stroke="#485CDA" stroke-linecap="round" stroke-linejoin="round"/>
<path d="M39 18C39 12.6676 35.5316 11 31 11L33.1266 9" stroke="#485CDA" stroke-linecap="round" stroke-linejoin="round"/>
<path d="M31 11L33 13" stroke="#485CDA" stroke-linecap="round" stroke-linejoin="round"/>
<path d="M9 30C9 35.3324 12.4684 37 17 37L14.8734 39" stroke="#485CDA" stroke-linecap="round" stroke-linejoin="round"/>
<path d="M17 37L15 34" stroke="#485CDA" stroke-linecap="round" stroke-linejoin="round"/>
</svg>
