<svg width="122" height="32" viewBox="0 0 122 32" fill="none" xmlns="http://www.w3.org/2000/svg">
<g clip-path="url(#clip0_276_2175)">
<path d="M31.9644 7.39761C31.9516 7.37557 31.9388 7.35354 31.9234 7.33395C31.9029 7.30701 31.8772 7.28252 31.8491 7.26293C31.8337 7.25314 31.8209 7.24334 31.8055 7.236L25.489 3.64616C25.3659 3.57759 25.2173 3.57759 25.0942 3.64616L18.7751 7.236C18.7598 7.24334 18.747 7.25314 18.7316 7.26293C18.7264 7.26783 18.7188 7.27273 18.7136 7.27763C18.7034 7.28252 18.6957 7.28987 18.6906 7.29721C18.6777 7.30946 18.6675 7.3217 18.6572 7.33395C18.6418 7.35354 18.629 7.37557 18.6162 7.39761C18.6162 7.40006 18.6136 7.40251 18.6136 7.40496C18.6034 7.427 18.5957 7.45149 18.5906 7.47352C18.5829 7.50046 18.5803 7.5274 18.5803 7.55433V13.9529L13.42 16.8056V3.96204C13.42 3.93756 13.42 3.91307 13.4123 3.89103V3.88613C13.4072 3.86165 13.3995 3.83961 13.3892 3.82002C13.379 3.79553 13.3661 3.77349 13.3508 3.7539C13.3405 3.73676 13.3251 3.71962 13.3097 3.70493L13.3046 3.70003C13.2892 3.68534 13.2713 3.67065 13.2508 3.6584C13.2457 3.6535 13.238 3.64861 13.2328 3.64616L6.90866 0.0514233C6.78561 -0.0171411 6.63693 -0.0171411 6.51388 0.0514233L0.194827 3.64371C0.179446 3.65106 0.166628 3.66085 0.151247 3.67065C0.0563972 3.73921 0 3.84695 0 3.96204V24.5314C0 24.6612 0.0717783 24.7811 0.187136 24.8473L6.51388 28.4395C6.58566 28.4812 6.67025 28.4959 6.74972 28.4885L12.8381 31.9486C12.8381 31.9486 12.8406 31.951 12.8432 31.951C12.9021 31.9829 12.9688 32 13.0354 32C13.1021 32 13.1688 31.9829 13.2277 31.951L25.4839 25.1778C25.6018 25.1117 25.6761 24.9893 25.6761 24.8595V17.9688L31.8132 14.4818C31.9285 14.4157 32.0003 14.2957 32.0003 14.1659V7.55433C32.0003 7.50046 31.9875 7.44659 31.9644 7.39761ZM6.71127 0.795837L12.2843 3.96204L6.71127 7.1258L1.1382 3.96204L6.71127 0.795837ZM12.6509 4.60851V17.2293L7.0958 20.3V7.76492L12.6509 4.60851ZM12.6509 30.9862L6.983 27.7661C6.92148 27.7319 6.85483 27.7147 6.78561 27.7147C6.77279 27.7147 6.75998 27.7147 6.74716 27.7172L0.769053 24.3232V4.60851L6.32674 7.76247V20.9366C6.32674 21.0664 6.39852 21.1864 6.51388 21.2525L6.5267 21.2599L12.656 24.742L12.6509 30.9862ZM13.038 24.1053L7.47007 20.9415L13.2021 17.7729L13.2508 17.7459L18.9623 14.592L24.5302 17.7533L13.038 24.1053ZM24.9071 24.6465L13.42 30.996L13.4251 24.7395L24.9071 18.3949V24.6465ZM24.9071 17.1117L19.3494 13.9578V8.2008L24.9071 11.3548V17.1117ZM25.2916 10.7181L19.7185 7.55433L25.2916 4.38812L30.8647 7.55433L25.2916 10.7181ZM31.2312 13.9578L25.6761 17.1117V11.3548L31.2312 8.2008V13.9578Z" fill="#929292"/>
<path d="M54.5874 24.7395H46.1483V7.50537H48.94V22.4083H54.5874V24.742V24.7395Z" fill="#929292"/>
<path d="M119.208 7.50537V24.7395H122V7.50537H119.208Z" fill="#929292"/>
<path d="M77.9153 15.7135H73.037V24.7959H70.2453V13.3823H77.9153V15.716V15.7135Z" fill="#929292"/>
<path d="M65.1183 13.3823V14.254C64.0929 13.5341 62.8265 13.108 61.4576 13.108C58.0404 13.108 55.2693 15.7551 55.2693 19.0193C55.2693 22.2834 58.0404 24.9305 61.4576 24.9305C62.8265 24.9305 64.0929 24.5044 65.1183 23.7845V24.7958H67.91V13.3823H65.1183ZM61.4576 22.5161C59.435 22.5161 57.7969 20.9513 57.7969 19.0193C57.7969 17.0872 59.435 15.5225 61.4576 15.5225C63.4802 15.5225 65.1183 17.0872 65.1183 19.0193C65.1183 20.9513 63.4802 22.5161 61.4576 22.5161Z" fill="#929292"/>
<path d="M88.1899 13.3823V14.254C87.1644 13.5341 85.8981 13.108 84.5292 13.108C81.112 13.108 78.3409 15.7551 78.3409 19.0193C78.3409 22.2834 81.112 24.9305 84.5292 24.9305C85.8981 24.9305 87.1644 24.5044 88.1899 23.7845V24.7958H90.9815V13.3823H88.1899ZM84.5292 22.5161C82.5066 22.5161 80.8685 20.9513 80.8685 19.0193C80.8685 17.0872 82.5066 15.5225 84.5292 15.5225C86.5518 15.5225 88.1899 17.0872 88.1899 19.0193C88.1899 20.9513 86.5518 22.5161 84.5292 22.5161Z" fill="#929292"/>
<path d="M105.081 13.3823L100.723 24.7959H97.1622L92.8042 13.3823H95.5959L98.9438 22.1463L102.289 13.3823H105.081Z" fill="#929292"/>
<path d="M117.634 19.0193C117.634 18.6642 117.601 18.3189 117.537 17.981C117.024 15.2115 114.491 13.108 111.446 13.108C108.029 13.108 105.258 15.7551 105.258 19.0193C105.258 22.2834 108.029 24.9305 111.446 24.9305C113.428 24.9305 115.191 24.0416 116.324 22.6556L114.515 20.9268C113.863 21.8843 112.733 22.5161 111.446 22.5161C109.803 22.5161 108.413 21.4827 107.949 20.06H117.537C117.601 19.7221 117.634 19.3743 117.634 19.0193ZM107.949 17.981C108.411 16.5558 109.803 15.5225 111.446 15.5225C113.089 15.5225 114.481 16.5558 114.943 17.981H107.949Z" fill="#929292"/>
</g>
<defs>
<clipPath id="clip0_276_2175">
<rect width="122" height="32" fill="white"/>
</clipPath>
</defs>
</svg>
