<svg width="109" height="32" viewBox="0 0 109 32" fill="none" xmlns="http://www.w3.org/2000/svg">
<g clip-path="url(#clip0_276_2184)">
<path d="M7.775 31.986H7.77079C7.77921 31.9888 7.78623 31.9944 7.79466 32C7.78904 31.9944 7.78202 31.9902 7.775 31.986ZM0.629095 31.986C0.622074 31.9902 0.615053 31.9944 0.609436 32C0.617861 31.9944 0.624882 31.9888 0.633307 31.9846H0.629095V31.986Z" fill="#929292"/>
<path d="M16.4093 15.4798V27.4362C16.4093 27.6519 16.1748 27.7863 15.9881 27.6785L11.1535 24.8847C11.0664 24.8343 11.013 24.7419 11.013 24.6425V18.6642C11.013 18.5648 10.9597 18.4724 10.8726 18.422L8.34508 16.9614C8.25802 16.911 8.1499 16.911 8.06284 16.9614L5.5353 18.422C5.44824 18.4724 5.39488 18.5648 5.39488 18.6642V24.6425C5.39488 24.7419 5.34153 24.8343 5.25447 24.8847L0.421256 27.6785C0.234499 27.7863 0 27.6519 0 27.4362V15.4798C0 15.3804 0.0533591 15.2879 0.140419 15.2375L8.06424 10.6583C8.1513 10.6079 8.25943 10.6079 8.34649 10.6583L16.2703 15.2375C16.3574 15.2879 16.4107 15.3804 16.4107 15.4798H16.4093Z" fill="#929292"/>
<path d="M38.5955 15.4798V24.5598C38.5955 24.6593 38.5421 24.7517 38.4551 24.8021L35.8264 26.3215L30.5312 29.3813C30.4442 29.4317 30.3361 29.4317 30.249 29.3813L24.9538 26.3215L22.3252 24.8021C22.2381 24.7517 22.1848 24.6593 22.1848 24.5598V15.4798C22.1848 15.3804 22.2381 15.2879 22.3252 15.2375L24.9538 13.7181L30.249 10.6583C30.3361 10.6079 30.4442 10.6079 30.5312 10.6583L35.8264 13.7181L38.4551 15.2375C38.5421 15.2879 38.5955 15.3804 38.5955 15.4798Z" fill="#929292"/>
<path d="M75.9033 19.1571V20.8838C75.9033 20.9034 75.8935 20.9202 75.8766 20.93L75.3767 21.2185L74.3699 21.8011C74.3531 21.8109 74.3334 21.8109 74.3166 21.8011L73.3098 21.2185L72.8099 20.93C72.793 20.9202 72.7832 20.9034 72.7832 20.8838V19.1571C72.7832 19.1375 72.793 19.1207 72.8099 19.1109L73.3098 18.8225L74.3166 18.2399C74.3334 18.2301 74.3531 18.2301 74.3699 18.2399L75.3767 18.8225L75.8766 19.1109C75.8935 19.1207 75.9033 19.1375 75.9033 19.1571Z" fill="#929292"/>
<path d="M77.1502 21.0519V18.6628C77.1502 18.5634 77.0969 18.471 77.0098 18.4206L74.4823 16.96C74.3952 16.9096 74.2871 16.9096 74.2 16.96L71.6725 18.4206C71.5855 18.471 71.5321 18.5634 71.5321 18.6628V21.3754C71.5321 21.4748 71.5855 21.5672 71.6725 21.6176L74.3405 23.1595L77.1488 24.8021L79.3562 26.0778C79.543 26.1857 79.543 26.4545 79.3562 26.5624L74.4809 29.3799C74.3938 29.4303 74.2857 29.4303 74.1986 29.3799L68.9035 26.3201L66.2748 24.8007C66.1878 24.7503 66.1344 24.6579 66.1344 24.5584V15.4798C66.1344 15.3804 66.1878 15.2879 66.2748 15.2375L68.9035 13.7181L74.1986 10.6583C74.2857 10.6079 74.3938 10.6079 74.4809 10.6583L79.7761 13.7181L82.4047 15.2375C82.4918 15.2879 82.5451 15.3804 82.5451 15.4798V18.2581C82.5451 18.3576 82.4918 18.45 82.4047 18.5004L77.5701 21.2942C77.3833 21.402 77.1488 21.2675 77.1488 21.0519H77.1502Z" fill="#929292"/>
<path d="M58.014 1.39472L55.6662 0.037758C55.4794 -0.0700709 55.2449 0.0643652 55.2449 0.280023V11.7141C55.2449 11.9298 55.0104 12.0642 54.8237 11.9564L52.5784 10.6582C52.4913 10.6078 52.3832 10.6078 52.2961 10.6582L47.0009 13.718L44.3723 15.2374C44.2852 15.2879 44.2319 15.3803 44.2319 15.4797V24.5597C44.2319 24.6592 44.2852 24.7516 44.3723 24.802L47.0009 26.3214L52.2961 29.3812C52.3832 29.4317 52.4913 29.4317 52.5784 29.3812L60.5022 24.802C60.5892 24.7516 60.6426 24.6592 60.6426 24.5597V3.07377C60.6426 2.97435 60.5892 2.88192 60.5022 2.83151L58.0154 1.39472H58.014ZM55.1045 21.619L52.577 23.0795C52.4899 23.13 52.3818 23.13 52.2947 23.0795L49.7672 21.619C49.6801 21.5685 49.6268 21.4761 49.6268 21.3767V18.6642C49.6268 18.5647 49.6801 18.4723 49.7672 18.4219L52.2947 16.9613C52.3818 16.9109 52.4899 16.9109 52.577 16.9613L55.1045 18.4219C55.1915 18.4723 55.2449 18.5647 55.2449 18.6642V21.3767C55.2449 21.4761 55.1915 21.5685 55.1045 21.619Z" fill="#929292"/>
<path d="M91.5979 26.6141C91.5979 26.6141 91.602 26.6169 91.6048 26.6183L91.5979 26.6141Z" fill="#929292"/>
<path d="M104.733 15.4798V24.5598C104.733 24.6593 104.679 24.7517 104.592 24.8021L101.964 26.3215L96.6684 29.3813C96.5814 29.4317 96.4747 29.4317 96.3876 29.3813L93.2984 27.5958L94.4681 27.1225L96.4045 28.2414C96.4803 28.2862 96.5758 28.2862 96.6516 28.2414L101.302 25.5541L103.611 24.2195C103.688 24.1761 103.734 24.0949 103.734 24.0067V16.0329C103.734 15.9447 103.688 15.8635 103.611 15.8201L101.302 14.4855L96.6516 11.7982C96.5758 11.7534 96.4803 11.7534 96.4045 11.7982L91.7538 14.4855L89.4453 15.8201C89.3681 15.8635 89.3217 15.9447 89.3217 16.0329V24.0067C89.3217 24.0949 89.3681 24.1761 89.4453 24.2195L91.56 25.4421C92.1961 25.7151 93.0667 25.3356 93.0667 24.4478V16.7681C93.0667 16.6127 93.1931 16.4881 93.3475 16.4881H93.957C94.1128 16.4881 94.2378 16.6127 94.2378 16.7681V24.4996C94.2378 26.4391 92.5261 27.0861 91.6049 26.6184L91.5979 26.6142L91.0924 26.3215L88.4638 24.8021C88.3767 24.7517 88.3234 24.6593 88.3234 24.5598V15.4798C88.3234 15.3804 88.3767 15.2879 88.4638 15.2375L91.0924 13.7181L96.3876 10.6583C96.4747 10.6079 96.5814 10.6079 96.6684 10.6583L101.964 13.7181L104.592 15.2375C104.679 15.2879 104.733 15.3804 104.733 15.4798Z" fill="#929292"/>
<path d="M98.6988 16.2905C98.6764 16.2905 98.6525 16.2905 98.6301 16.2919C98.8785 16.2933 99.1156 16.3059 99.3444 16.3297C99.1353 16.3031 98.9192 16.2905 98.6988 16.2905Z" fill="#929292"/>
<path d="M97.6219 23.8638C97.8184 23.8876 98.0204 23.8988 98.2281 23.8988C98.2506 23.8988 98.2745 23.8988 98.2969 23.8974C98.0626 23.896 97.838 23.8848 97.6219 23.8638V23.8638Z" fill="#929292"/>
<path d="M101.999 21.6232C101.964 22.0293 101.892 22.3794 101.679 22.6692C101.464 22.9591 101.188 23.1958 100.849 23.3792C100.509 23.5627 100.123 23.6957 99.6888 23.7769C99.2549 23.8582 98.8182 23.8988 98.3787 23.8988C98.352 23.8988 98.3239 23.8988 98.2973 23.8974C98.0628 23.896 97.8381 23.8848 97.6218 23.8638C97.2441 23.8204 96.8818 23.7307 96.5294 23.5837C95.9972 23.3624 95.5563 22.9535 95.333 22.3472C95.2614 22.1553 95.2123 21.9424 95.1898 21.71C95.173 21.5433 95.2993 21.3977 95.4664 21.3963L96.0829 21.3921C96.2177 21.3921 96.33 21.4901 96.3553 21.6218C96.3763 21.731 96.4143 21.8458 96.4718 21.9564C96.5729 22.1483 96.7386 22.3304 96.9942 22.4522C97.4351 22.6608 97.956 22.6986 98.3829 22.6986C98.7859 22.6986 100.148 22.6608 100.541 22.0979C100.934 21.5349 100.662 21 99.8924 20.8333C99.342 20.7143 98.6301 20.6499 98.0263 20.5309C97.6626 20.4594 96.7962 20.3866 96.1348 19.9707C95.8863 19.8139 95.6827 19.6248 95.5324 19.391C95.3808 19.1571 95.3063 18.8658 95.3063 18.5199C95.3063 18.1432 95.4032 17.8141 95.5984 17.5341C95.7922 17.254 96.0506 17.0229 96.3707 16.8395C96.6909 16.656 97.056 16.5188 97.4646 16.4264C97.8507 16.3409 98.2397 16.2947 98.6301 16.2905C98.8786 16.2919 99.1159 16.3045 99.3448 16.3283C99.3532 16.3283 99.363 16.3283 99.3715 16.3311C99.7253 16.3774 100.065 16.4656 100.398 16.6042C100.932 16.8255 101.372 17.2344 101.596 17.8421C101.666 18.034 101.715 18.2455 101.738 18.4779C101.754 18.6432 101.628 18.7902 101.461 18.7916L100.843 18.7972C100.708 18.7972 100.597 18.7006 100.572 18.5675C100.551 18.4583 100.514 18.3449 100.457 18.2328C100.354 18.0382 100.19 17.8561 99.9331 17.7343C99.4922 17.5257 98.9713 17.4878 98.5444 17.4878C98.1414 17.4878 96.8734 17.464 96.6361 18.1068C96.4802 18.5269 96.681 18.8014 96.9338 18.9568C96.9338 18.9568 96.9347 18.9573 96.9366 18.9582C96.9633 18.975 96.99 18.9891 97.0166 19.0031C97.4969 19.2425 98.4545 19.3658 98.7185 19.4064C98.9825 19.447 99.9051 19.5618 100.471 19.7439C100.791 19.8461 101.068 19.9777 101.299 20.1402C101.533 20.304 101.715 20.5029 101.847 20.7367C101.979 20.9706 102.03 21.2675 101.999 21.6218V21.6232Z" fill="#929292"/>
<path d="M107.687 13.389C106.964 13.389 106.374 12.8022 106.374 12.0796C106.374 11.357 106.963 10.7703 107.687 10.7703C108.412 10.7703 109 11.357 109 12.0796C109 12.8022 108.412 13.389 107.687 13.389ZM107.687 10.8935C107.031 10.8935 106.498 11.4256 106.498 12.0796C106.498 12.7336 107.031 13.2657 107.687 13.2657C108.343 13.2657 108.876 12.7336 108.876 12.0796C108.876 11.4256 108.343 10.8935 107.687 10.8935Z" fill="#929292"/>
<path d="M108.227 11.7352C108.227 11.8024 108.212 11.8654 108.179 11.9256C108.147 11.9858 108.099 12.0362 108.035 12.0797C108.066 12.0909 108.091 12.1077 108.113 12.1301C108.136 12.1525 108.153 12.1763 108.167 12.2043C108.181 12.2323 108.191 12.2617 108.198 12.2925C108.205 12.3233 108.207 12.3541 108.207 12.3849V12.6076C108.207 12.6356 108.213 12.6678 108.226 12.7056C108.238 12.7434 108.255 12.7812 108.276 12.8219H108.019C108.01 12.8037 108.001 12.7854 107.996 12.7672C107.989 12.7476 107.984 12.7294 107.982 12.7112C107.979 12.693 107.976 12.6762 107.976 12.6594C107.976 12.644 107.974 12.6286 107.974 12.616V12.3821C107.974 12.3597 107.972 12.3373 107.965 12.3135C107.958 12.2911 107.946 12.2701 107.931 12.2519C107.916 12.2337 107.896 12.2197 107.871 12.2085C107.845 12.1973 107.815 12.1917 107.779 12.1917H107.424V12.8205H107.189V11.2856H107.778C107.85 11.2856 107.914 11.2982 107.969 11.3249C108.024 11.3515 108.071 11.3851 108.109 11.4285C108.147 11.4705 108.177 11.5195 108.196 11.5727C108.216 11.6259 108.226 11.6806 108.226 11.7352H108.227ZM107.424 11.9732H107.779C107.807 11.9732 107.836 11.9676 107.861 11.9564C107.886 11.9452 107.909 11.9298 107.928 11.9088C107.948 11.8892 107.963 11.864 107.974 11.836C107.986 11.808 107.991 11.7758 107.991 11.7408C107.991 11.7058 107.986 11.6763 107.976 11.6469C107.965 11.6175 107.951 11.5937 107.931 11.5727C107.913 11.5517 107.89 11.5349 107.864 11.5237C107.838 11.5111 107.809 11.5055 107.779 11.5055H107.424V11.9746V11.9732Z" fill="#929292"/>
</g>
<defs>
<clipPath id="clip0_276_2184">
<rect width="109" height="32" fill="white"/>
</clipPath>
</defs>
</svg>
