<svg width="48" height="48" viewBox="0 0 48 48" fill="none" xmlns="http://www.w3.org/2000/svg">
<path d="M19.9386 13L38 30.4519L26.0486 42L8 24.5481L8.69024 13.6793L19.9386 13Z" stroke="#485CDA" stroke-linecap="round" stroke-linejoin="round"/>
<path d="M25 13L43 30.447L31.0892 42" stroke="#485CDA" stroke-linecap="round" stroke-linejoin="round"/>
<path d="M14 21C15.1046 21 16 20.1046 16 19C16 17.8954 15.1046 17 14 17C12.8954 17 12 17.8954 12 19C12 20.1046 12.8954 21 14 21Z" stroke="#485CDA" stroke-linecap="round" stroke-linejoin="round"/>
<path d="M14 19C14 19 7.68231 18.4683 6.73688 13.8698C6.17474 11.175 7.83628 6.6033 5 6" stroke="#485CDA" stroke-linecap="round" stroke-linejoin="round"/>
<path d="M17 27.5L23 22" stroke="#485CDA" stroke-linecap="round" stroke-linejoin="round"/>
<path d="M20 30L26 24.5" stroke="#485CDA" stroke-linecap="round" stroke-linejoin="round"/>
<path d="M23 33L29 27.5" stroke="#485CDA" stroke-linecap="round" stroke-linejoin="round"/>
</svg>
