<svg width="48" height="48" viewBox="0 0 48 48" fill="none" xmlns="http://www.w3.org/2000/svg">
<path d="M4.68293 37.8387H2V41H46V37.8387H43.3171M4.68293 37.8387V10H43.3171V37.8387M4.68293 37.8387H21.777M43.3171 37.8387H26.223" stroke="white" stroke-linecap="round" stroke-linejoin="round"/>
<path d="M37.7143 33V13.5H40L34.2857 7L28.5714 13.5H30.8571V17.9633V33H37.7143Z" fill="#2A2A2A"/>
<path d="M30.8571 33H37.7143V13.5H40L34.2857 7L28.5714 13.5H30.8571V17.9633M30.8571 33H25.1429M30.8571 33V17.9633M13.7143 33H8V30.4H13.7143V26.24M13.7143 33H19.4286M13.7143 33V26.24M19.4286 33V26.24M19.4286 33H25.1429M19.4286 26.24H13.7143M19.4286 26.24V22.0367H25.1429V17.9633M25.1429 33V17.9633M25.1429 17.9633H30.8571" stroke="white" stroke-linecap="round" stroke-linejoin="round"/>
</svg>
