<svg width="14" height="14" viewBox="0 0 14 14" fill="none" xmlns="http://www.w3.org/2000/svg">
<path d="M7 0.625C5.73915 0.625 4.50661 0.998887 3.45824 1.69938C2.40988 2.39988 1.59278 3.39551 1.11027 4.56039C0.627762 5.72527 0.501516 7.00707 0.747497 8.2437C0.993478 9.48033 1.60064 10.6162 2.4922 11.5078C3.38376 12.3994 4.51967 13.0065 5.7563 13.2525C6.99293 13.4985 8.27473 13.3722 9.43961 12.8897C10.6045 12.4072 11.6001 11.5901 12.3006 10.5418C13.0011 9.4934 13.375 8.26086 13.375 7C13.3717 5.31026 12.699 3.69067 11.5042 2.49584C10.3093 1.30101 8.68974 0.628304 7 0.625ZM7 12.625C5.88748 12.625 4.79995 12.2951 3.87492 11.677C2.94989 11.0589 2.22892 10.1804 1.80318 9.15259C1.37744 8.12476 1.26604 6.99376 1.48309 5.90262C1.70013 4.81147 2.23586 3.80919 3.02253 3.02252C3.8092 2.23585 4.81148 1.70012 5.90262 1.48308C6.99376 1.26604 8.12476 1.37743 9.1526 1.80318C10.1804 2.22892 11.0589 2.94989 11.677 3.87492C12.2951 4.79994 12.625 5.88748 12.625 7C12.6233 8.49133 12.0302 9.92111 10.9757 10.9756C9.92112 12.0302 8.49134 12.6233 7 12.625ZM7.625 10.25C7.625 10.3736 7.58835 10.4945 7.51967 10.5972C7.451 10.7 7.35338 10.7801 7.23918 10.8274C7.12498 10.8747 6.99931 10.8871 6.87807 10.863C6.75683 10.8389 6.64547 10.7794 6.55806 10.6919C6.47065 10.6045 6.41113 10.4932 6.38701 10.3719C6.3629 10.2507 6.37527 10.125 6.42258 10.0108C6.46988 9.89662 6.54999 9.79901 6.65277 9.73033C6.75555 9.66166 6.87639 9.625 7 9.625C7.16576 9.625 7.32473 9.69085 7.44195 9.80806C7.55916 9.92527 7.625 10.0842 7.625 10.25ZM9.125 5.75C9.12427 6.24858 8.94877 6.73112 8.62902 7.11367C8.30928 7.49622 7.86554 7.75456 7.375 7.84375V8C7.375 8.09946 7.33549 8.19484 7.26517 8.26517C7.19484 8.33549 7.09946 8.375 7 8.375C6.90055 8.375 6.80516 8.33549 6.73484 8.26517C6.66451 8.19484 6.625 8.09946 6.625 8V7.5C6.625 7.40054 6.66451 7.30516 6.73484 7.23483C6.80516 7.16451 6.90055 7.125 7 7.125C7.27195 7.125 7.53779 7.04436 7.76391 6.89327C7.99003 6.74218 8.16627 6.52744 8.27034 6.27619C8.37441 6.02494 8.40164 5.74848 8.34858 5.48175C8.29553 5.21503 8.16457 4.97003 7.97227 4.77773C7.77998 4.58543 7.53498 4.45447 7.26825 4.40142C7.00153 4.34837 6.72506 4.3756 6.47381 4.47967C6.22256 4.58374 6.00782 4.75997 5.85673 4.98609C5.70565 5.21221 5.625 5.47805 5.625 5.75C5.625 5.84946 5.58549 5.94484 5.51517 6.01516C5.44484 6.08549 5.34946 6.125 5.25 6.125C5.15055 6.125 5.05516 6.08549 4.98484 6.01516C4.91451 5.94484 4.875 5.84946 4.875 5.75C4.875 5.18641 5.09889 4.64591 5.4974 4.2474C5.89592 3.84888 6.43642 3.625 7 3.625C7.56359 3.625 8.10409 3.84888 8.5026 4.2474C8.90112 4.64591 9.125 5.18641 9.125 5.75Z" fill="#929292"/>
</svg>
