<svg width="48" height="48" viewBox="0 0 48 48" fill="none" xmlns="http://www.w3.org/2000/svg">
<path d="M39 10.4707V23.1694C39 29.6581 36.6136 36.6373 24 42C11.3864 36.6373 9 29.6581 9 23.1694V10.4707C9 10.4707 14.5205 6 24 6C33.4795 6 39 10.4707 39 10.4707Z" stroke="#485CDA" stroke-linecap="round" stroke-linejoin="round"/>
<path d="M31.5985 19.8094H17V31H31.5985V19.8094Z" stroke="#485CDA" stroke-linecap="round" stroke-linejoin="round"/>
<path d="M24.2935 13C27.133 13 29.438 15.2845 29.438 18.0987V19.8204H19.1489V18.0987C19.1489 15.2845 21.454 13 24.2935 13V13Z" stroke="#485CDA" stroke-linecap="round" stroke-linejoin="round"/>
<path d="M26.9219 19.8093V17.7455C26.9219 16.3108 25.7416 15.141 24.294 15.141C22.8464 15.141 21.666 16.3108 21.666 17.7455" stroke="#485CDA" stroke-linecap="round" stroke-linejoin="round"/>
<path d="M26.1643 24.0582C26.1643 24.7645 25.7635 25.3826 25.1733 25.6805V27.9209C25.1733 28.3954 24.7836 28.7817 24.2936 28.7817C23.8036 28.7817 23.4139 28.3954 23.4139 27.9209V25.6805C22.8237 25.3826 22.4229 24.7645 22.4229 24.0582C22.4229 23.0319 23.258 22.2042 24.2936 22.2042C25.3292 22.2042 26.1643 23.0319 26.1643 24.0582Z" stroke="#485CDA" stroke-linecap="round" stroke-linejoin="round"/>
</svg>
