<svg width="48" height="48" viewBox="0 0 48 48" fill="none" xmlns="http://www.w3.org/2000/svg">
<path d="M35.8082 25.9436C27.3118 34.44 22.2533 36 22.2533 36L12 25.7619C12 25.7619 13.56 20.7034 22.0564 12.2069C30.5529 3.71047 41.5937 6.40631 41.5937 6.40631C41.5937 6.40631 44.2895 17.4623 35.7931 25.9587L35.8082 25.9436Z" stroke="#485CDA" stroke-linecap="round" stroke-linejoin="round"/>
<path d="M29 24C31.7614 24 34 21.7614 34 19C34 16.2386 31.7614 14 29 14C26.2386 14 24 16.2386 24 19C24 21.7614 26.2386 24 29 24Z" stroke="#485CDA" stroke-linecap="round" stroke-linejoin="round"/>
<path d="M14 28L10 30.65L17.35 38L20 34" stroke="#485CDA" stroke-linecap="round" stroke-linejoin="round"/>
<path d="M36 26V31.5L24.5654 41L24 35.5" stroke="#485CDA" stroke-linecap="round" stroke-linejoin="round"/>
<path d="M21 13.1296L16.1677 13L7 23.4817L12.5 24" stroke="#485CDA" stroke-linecap="round" stroke-linejoin="round"/>
<path d="M12 36L6 42" stroke="#485CDA" stroke-linecap="round" stroke-linejoin="round"/>
<path d="M14 38L12 41" stroke="#485CDA" stroke-linecap="round" stroke-linejoin="round"/>
<path d="M10 34L7 36" stroke="#485CDA" stroke-linecap="round" stroke-linejoin="round"/>
</svg>
