<svg width="48" height="48" viewBox="0 0 48 48" fill="none" xmlns="http://www.w3.org/2000/svg">
<circle cx="24" cy="24" r="4" stroke="white"/>
<path d="M44.2744 15.4444C40.9365 7.54414 33.1157 2 24 2C13.2235 2 4.25665 9.74841 2.36681 19.978C2.20373 20.7604 2.08297 22.0611 2.04298 22.6136C2.01447 23.0721 2.00001 23.5344 2.00001 24C2.00001 25 1.86685 27.5 2.50005 29.5M3.72556 32.5556C7.06348 40.4559 14.8843 46 24 46C34.3311 46 42.999 38.8789 45.3629 29.2775C45.7004 28.0895 45.8996 26.1886 45.957 25.3866C45.9855 24.9281 46 24.4657 46 24C46 23.2 46 20.5 45.3629 18.5" stroke="white" stroke-linecap="round"/>
<path d="M26.6158 7H27.1158C27.1158 6.72386 26.892 6.5 26.6158 6.5V7ZM21.385 7V6.5C21.1089 6.5 20.885 6.72386 20.885 7H21.385ZM26.6158 9.85249H26.1158C26.1158 10.0938 26.2882 10.3007 26.5255 10.3443L26.6158 9.85249ZM32.1539 12.1477L31.8701 12.5594C32.0688 12.6963 32.3369 12.6719 32.5074 12.5013L32.1539 12.1477ZM34.172 10.1297L34.5255 9.7761C34.3302 9.58084 34.0137 9.58084 33.8184 9.7761L34.172 10.1297ZM37.8707 13.8284L38.2243 14.182C38.318 14.0882 38.3707 13.961 38.3707 13.8284C38.3707 13.6958 38.318 13.5686 38.2243 13.4749L37.8707 13.8284ZM35.8526 15.8465L35.4991 15.4929C35.3285 15.6635 35.304 15.9316 35.4409 16.1302L35.8526 15.8465ZM38.1478 21.3847L37.6561 21.4751C37.6997 21.7124 37.9065 21.8847 38.1478 21.8847V21.3847ZM41.0006 21.3847H41.5006C41.5006 21.1086 41.2768 20.8847 41.0006 20.8847V21.3847ZM41.0006 26.6156V27.1156C41.2768 27.1156 41.5006 26.8917 41.5006 26.6156H41.0006ZM38.1478 26.6156V26.1156C37.9065 26.1156 37.6996 26.2879 37.656 26.5252L38.1478 26.6156ZM35.8527 32.1535L35.441 31.8698C35.3041 32.0684 35.3286 32.3365 35.4992 32.5071L35.8527 32.1535ZM37.8707 34.1715L38.2243 34.5251C38.318 34.4313 38.3707 34.3042 38.3707 34.1715C38.3707 34.0389 38.318 33.9118 38.2243 33.818L37.8707 34.1715ZM34.172 37.8703L33.8184 38.2239C34.0137 38.4191 34.3303 38.4191 34.5255 38.2239L34.172 37.8703ZM32.154 35.8523L32.5075 35.4988C32.337 35.3282 32.0689 35.3037 31.8702 35.4407L32.154 35.8523ZM26.6158 38.1476L26.5255 37.6559C26.2882 37.6995 26.1158 37.9063 26.1158 38.1476H26.6158ZM26.6158 41.0004V41.5004C26.892 41.5004 27.1158 41.2766 27.1158 41.0004H26.6158ZM21.385 41.0004H20.885C20.885 41.2766 21.1089 41.5004 21.385 41.5004V41.0004ZM21.385 38.1477H21.885C21.885 37.9064 21.7127 37.6995 21.4753 37.6559L21.385 38.1477ZM15.8466 35.8525L16.1304 35.4408C15.9317 35.3039 15.6637 35.3283 15.4931 35.4989L15.8466 35.8525ZM13.8288 37.8703L13.4752 38.2239C13.6705 38.4192 13.9871 38.4192 14.1823 38.2239L13.8288 37.8703ZM10.13 34.1716L9.77646 33.818C9.68269 33.9118 9.63002 34.039 9.63002 34.1716C9.63002 34.3042 9.68269 34.4314 9.77646 34.5251L10.13 34.1716ZM12.1479 32.1537L12.5014 32.5073C12.672 32.3367 12.6965 32.0686 12.5595 31.87L12.1479 32.1537ZM9.85261 26.6156L10.3444 26.5252C10.3008 26.2879 10.0939 26.1156 9.85261 26.1156V26.6156ZM7.0002 26.6156H6.5002C6.5002 26.7482 6.55288 26.8753 6.64665 26.9691C6.74042 27.0629 6.86759 27.1156 7.0002 27.1156V26.6156ZM7.0002 21.3847V20.8847C6.72406 20.8847 6.5002 21.1086 6.5002 21.3847H7.0002ZM9.85258 21.3847V21.8847C10.0939 21.8847 10.3008 21.7124 10.3444 21.475L9.85258 21.3847ZM12.1479 15.8463L12.5596 16.13C12.6965 15.9314 12.6721 15.6633 12.5015 15.4927L12.1479 15.8463ZM10.13 13.8284L9.77648 13.4748C9.68271 13.5686 9.63003 13.6958 9.63003 13.8284C9.63003 13.961 9.68271 14.0882 9.77648 14.1819L10.13 13.8284ZM13.8288 10.1296L14.1823 9.77606C14.0886 9.68229 13.9614 9.62961 13.8288 9.62961C13.6962 9.62961 13.569 9.68229 13.4752 9.77606L13.8288 10.1296ZM15.8467 12.1476L15.4932 12.5011C15.6638 12.6717 15.9318 12.6962 16.1305 12.5592L15.8467 12.1476ZM21.385 9.85241L21.4753 10.3442C21.7127 10.3006 21.885 10.0937 21.885 9.85241H21.385ZM26.6158 6.5H21.385V7.5H26.6158V6.5ZM27.1158 9.85249V7H26.1158V9.85249H27.1158ZM32.4376 11.736C30.7473 10.571 28.8037 9.74604 26.7062 9.36072L26.5255 10.3443C28.481 10.7035 30.2932 11.4725 31.8701 12.5594L32.4376 11.736ZM33.8184 9.7761L31.8003 11.7942L32.5074 12.5013L34.5255 10.4832L33.8184 9.7761ZM38.2243 13.4749L34.5255 9.7761L33.8184 10.4832L37.5172 14.182L38.2243 13.4749ZM36.2062 16.2L38.2243 14.182L37.5172 13.4749L35.4991 15.4929L36.2062 16.2ZM38.6396 21.2944C38.2543 19.1968 37.4294 17.2531 36.2643 15.5627L35.4409 16.1302C36.5279 17.7072 37.2969 19.5195 37.6561 21.4751L38.6396 21.2944ZM41.0006 20.8847H38.1478V21.8847H41.0006V20.8847ZM41.5006 26.6156V21.3847H40.5006V26.6156H41.5006ZM38.1478 27.1156H41.0006V26.1156H38.1478V27.1156ZM36.2644 32.4373C37.4294 30.747 38.2543 28.8034 38.6396 26.7059L37.656 26.5252C37.2968 28.4807 36.5279 30.2929 35.441 31.8698L36.2644 32.4373ZM35.4992 32.5071L37.5172 34.5251L38.2243 33.818L36.2063 31.8L35.4992 32.5071ZM37.5172 33.818L33.8184 37.5168L34.5255 38.2239L38.2243 34.5251L37.5172 33.818ZM34.5255 37.5168L32.5075 35.4988L31.8004 36.2059L33.8184 38.2239L34.5255 37.5168ZM26.7062 38.6394C28.8038 38.2541 30.7474 37.4291 32.4378 36.264L31.8702 35.4407C30.2933 36.5276 28.481 37.2966 26.5255 37.6559L26.7062 38.6394ZM27.1158 41.0004V38.1476H26.1158V41.0004H27.1158ZM21.385 41.5004H26.6158V40.5004H21.385V41.5004ZM20.885 38.1477V41.0004H21.885V38.1477H20.885ZM15.5629 36.2642C17.2533 37.4293 19.197 38.2542 21.2947 38.6395L21.4753 37.6559C19.5197 37.2968 17.7074 36.5277 16.1304 35.4408L15.5629 36.2642ZM14.1823 38.2239L16.2002 36.206L15.4931 35.4989L13.4752 37.5168L14.1823 38.2239ZM9.77646 34.5251L13.4752 38.2239L14.1823 37.5168L10.4836 33.818L9.77646 34.5251ZM11.7943 31.8002L9.77646 33.818L10.4836 34.5251L12.5014 32.5073L11.7943 31.8002ZM9.36084 26.7059C9.74615 28.8035 10.5711 30.7471 11.7362 32.4375L12.5595 31.87C11.4726 30.293 10.7036 28.4807 10.3444 26.5252L9.36084 26.7059ZM7.0002 27.1156H9.85261V26.1156H7.0002V27.1156ZM6.5002 21.3847L6.5002 26.6156H7.5002L7.5002 21.3847H6.5002ZM9.85258 20.8847H7.0002V21.8847H9.85258V20.8847ZM11.7362 15.5625C10.5711 17.253 9.74612 19.1967 9.36081 21.2944L10.3444 21.475C10.7036 19.5194 11.4726 17.7071 12.5596 16.13L11.7362 15.5625ZM12.5015 15.4927L10.4836 13.4748L9.77648 14.1819L11.7944 16.1998L12.5015 15.4927ZM10.4836 14.1819L14.1823 10.4832L13.4752 9.77606L9.77648 13.4748L10.4836 14.1819ZM13.4752 10.4832L15.4932 12.5011L16.2003 11.794L14.1823 9.77606L13.4752 10.4832ZM21.2947 9.36064C19.197 9.74591 17.2534 10.5708 15.563 11.7359L16.1305 12.5592C17.7075 11.4724 19.5198 10.7034 21.4753 10.3442L21.2947 9.36064ZM20.885 7V9.85241H21.885V7H20.885Z" fill="white"/>
</svg>
