<svg width="128" height="32" viewBox="0 0 128 32" fill="none" xmlns="http://www.w3.org/2000/svg">
<g clip-path="url(#clip0_276_2215)">
<path d="M56.3664 22.0036L59.719 12.5335C59.8379 12.1988 60.1529 11.9756 60.5055 11.9756H62.0765C62.0765 11.9756 60.5744 16.2874 59.2079 20.2414C57.9561 23.8669 56.6668 27.1113 55.7801 28.1114C54.5576 29.4904 52.6341 29.7031 51.4074 29.2862L51.5492 28.4293C51.6181 28.0145 51.9769 27.7156 52.3921 27.7261C52.8072 27.7366 53.2954 27.6903 53.6167 27.4861C54.3198 27.0397 54.6327 26.5155 54.9394 25.8691C55.2127 25.2923 55.3733 24.6522 55.3733 24.6522L50.7502 11.9756H52.4108C52.7634 11.9756 53.0764 12.1988 53.1953 12.5335L56.3622 22.0036H56.3664Z" fill="#929292"/>
<path d="M122.292 22.0036L125.645 12.5335C125.764 12.1988 126.079 11.9756 126.431 11.9756H128.002C128.002 11.9756 126.5 16.2874 125.134 20.2414C123.882 23.8669 122.592 27.1113 121.706 28.1114C120.483 29.4904 118.56 29.7031 117.333 29.2862L117.475 28.4293C117.544 28.0145 117.903 27.7156 118.318 27.7261C118.733 27.7366 119.221 27.6903 119.542 27.4861C120.245 27.0397 120.558 26.5155 120.865 25.8691C121.138 25.2923 121.299 24.6522 121.299 24.6522L116.676 11.9756H118.336C118.689 11.9756 119.002 12.1988 119.121 12.5335L122.288 22.0036H122.292Z" fill="#929292"/>
<path d="M90.9272 17.9654C90.9272 17.1106 91.0587 16.3021 91.3236 15.54C91.5886 14.7778 91.9766 14.1083 92.494 13.5356C93.0093 12.963 93.6456 12.5061 94.4029 12.165C95.1603 11.8261 96.0281 11.6555 97.0045 11.6555C97.9809 11.6555 98.8634 11.8261 99.6269 12.165C100.388 12.5061 101.031 12.9609 101.557 13.5356C102.08 14.1083 102.479 14.7778 102.752 15.54C103.025 16.3021 103.163 17.1106 103.163 17.9654C103.163 18.8202 103.025 19.6118 102.752 20.3677C102.479 21.1235 102.08 21.7846 101.557 22.3552C101.033 22.9236 100.388 23.3742 99.6269 23.7068C98.8654 24.0395 97.9913 24.2058 97.0045 24.2058C96.0177 24.2058 95.1603 24.0395 94.4029 23.7068C93.6456 23.3742 93.0093 22.9236 92.494 22.3552C91.9787 21.7867 91.5886 21.1235 91.3236 20.3677C91.0587 19.6139 90.9272 18.8118 90.9272 17.9654ZM93.1887 17.9654C93.1887 18.597 93.2764 19.1971 93.4516 19.7613C93.6269 20.3256 93.8793 20.8245 94.2047 21.2561C94.5302 21.6878 94.9308 22.0288 95.4043 22.2815C95.8779 22.5341 96.4099 22.6605 97.0045 22.6605C97.5991 22.6605 98.1373 22.5341 98.6172 22.2815C99.0991 22.0288 99.508 21.6857 99.8481 21.2561C100.188 20.8266 100.447 20.3277 100.626 19.7613C100.806 19.195 100.895 18.597 100.895 17.9654C100.895 17.3338 100.806 16.7295 100.626 16.1569C100.447 15.5842 100.186 15.0789 99.8481 14.6452C99.5101 14.2115 99.0991 13.8641 98.6172 13.6072C98.1353 13.3504 97.5991 13.2219 97.0045 13.2219C96.4099 13.2219 95.8758 13.3504 95.4043 13.6072C94.9308 13.8641 94.5323 14.2094 94.2047 14.6452C93.8772 15.081 93.6269 15.5842 93.4516 16.1569C93.2764 16.7295 93.1887 17.3338 93.1887 17.9654Z" fill="#929292"/>
<path d="M48.4095 6.86147C48.4095 6.86147 48.6389 8.22998 47.7043 8.38578C46.7697 8.54158 45.1361 7.77732 43.561 8.85739C41.9859 9.93746 42.2967 12.2134 43.8343 13.0577C45.3719 13.9019 48.8058 15.4747 49.728 17.5316C50.7106 19.7255 50.0785 21.8098 48.0944 23.3805C46.1104 24.9511 41.9296 24.4795 40.5297 23.7342C40.5297 23.7342 40.4316 21.8688 41.7168 22.1635C43.0019 22.4583 44.9254 23.1257 46.6361 21.8309C48.3469 20.5361 48.2133 18.4896 46.8886 17.3358C45.3155 15.9673 43.125 15.6978 41.3016 13.6303C40.1646 12.3418 39.7327 9.76061 41.4831 7.99418C43.2335 6.22775 46.511 6.33723 48.4115 6.86147H48.4095Z" fill="#929292"/>
<path d="M63.8352 11.9755V24.1426H65.2372C65.6982 24.1426 66.0717 23.7657 66.0717 23.3004V17.9169C66.0717 16.2937 66.7685 13.4345 69.0717 13.4345C71.3749 13.4345 71.4396 15.542 71.4396 18.6917V24.1405H72.8207C73.2818 24.1405 73.6552 23.7636 73.6552 23.2983V17.9148C73.6552 15.4431 74.6629 13.4577 76.8472 13.4577C79.0315 13.4577 79.0315 15.702 79.0315 18.0559V24.1405H80.4293C80.8903 24.1405 81.2638 23.7636 81.2638 23.2983V15.8557C81.2638 13.723 80.1351 11.6765 77.1226 11.6765C74.423 11.6765 73.1503 13.9419 73.1503 13.9419C73.1503 13.9419 72.5975 11.6765 69.7894 11.6765C66.9813 11.6765 65.9256 13.7166 65.9256 13.7166V12.8155C65.9256 12.3502 65.5522 11.9734 65.0911 11.9734H63.8331L63.8352 11.9755Z" fill="#929292"/>
<path d="M87.2305 11.8787H90.5226V12.8156C90.5226 13.2809 90.1491 13.6578 89.6881 13.6578H87.2305C87.2284 17.1422 87.2263 24.1427 87.2263 24.1427H85.0253V13.6578H82.9995C82.5406 13.6578 82.165 13.2809 82.165 12.8156V11.8787H85.0253V11.8492C85.0253 9.29747 84.9836 8.05107 86.2583 6.87626C87.775 5.48038 90.5226 6.19621 90.5226 6.19621L90.4308 7.10575C90.387 7.55209 90.0031 7.88475 89.5587 7.86159C89.1477 7.84053 88.6449 7.80474 88.138 8.11845C87.1679 8.7248 87.2284 10.3818 87.2305 11.8787Z" fill="#929292"/>
<path d="M115.752 16.18V23.3616C115.752 23.8268 115.378 24.2037 114.917 24.2037H113.605V17.3022C113.605 15.0978 112.925 13.4725 110.955 13.4725C108.986 13.4725 107.482 15.0978 107.482 17.1211V23.3005C107.482 23.7658 107.108 24.1427 106.647 24.1427H105.12V11.8787H106.439C106.9 11.8787 107.273 12.2556 107.273 12.7209V13.8936C107.901 12.8788 109.13 11.6555 111.671 11.6555C114.212 11.6555 115.752 13.6535 115.752 16.18Z" fill="#929292"/>
<path d="M15.8534 0C7.09743 0 0 7.16468 0 16.0011C0 24.8374 7.09743 32 15.8534 32C24.6094 32 31.7069 24.8374 31.7069 16.0011C31.7069 7.16468 24.6094 0 15.8534 0ZM25.156 9.24903C24.2882 9.63853 23.4161 9.1985 23.3327 8.47424C23.2471 7.74577 23.7019 7.32469 23.7019 7.01941C23.7019 6.71413 22.8111 6.17514 21.3549 7.29732C19.9049 8.41529 19.4376 12.0597 19.0558 14.0388C19.8987 14.1609 20.754 14.1315 21.3424 13.9357C22.3396 13.603 22.3772 13.2367 22.1581 12.8682C21.939 12.4998 21.5614 11.8492 22.3897 11.285C23.2158 10.7207 24.5594 11.5313 23.9773 12.7419C23.3932 13.9546 22.4335 14.7673 19.4668 14.7336C19.2853 14.7315 19.108 14.721 18.939 14.7041C18.5948 16.8116 18.19 20.3129 16.4272 23.4668C14.4703 26.9702 12.0523 27.8587 10.1559 27.825C8.25948 27.7892 7.61065 26.1491 8.10301 25.1217C8.59328 24.0942 9.54878 23.9532 10.3499 24.4037C11.0843 24.8164 11.2053 25.6248 10.7254 26.1891C10.3666 26.6123 9.89301 26.6839 10.1538 26.9723C10.3416 27.1765 11.756 27.1555 12.5321 26.1238C13.7359 24.5258 14.4202 21.7909 14.8374 19.5044C15.1253 17.9212 15.4529 15.6852 16.0746 13.5798C15.215 12.9566 14.8833 12.4324 14.0989 11.8681C12.9181 11.0176 11.1302 10.6681 10.5982 12.224C10.0244 13.9041 12.8284 14.9757 13.1893 17.2074C13.5481 19.4413 11.199 21.2751 8.38674 20.7908C5.57447 20.3066 4.88809 18.1254 5.38462 17.1211C5.88323 16.1168 7.16837 16.2916 7.52929 17.3296C7.89021 18.3675 7.0724 18.7381 7.16837 19.2328C7.26433 19.715 7.84014 19.9634 8.40343 20.0603C8.9688 20.1592 10.2748 20.0434 10.4646 18.8097C10.6545 17.5738 9.22333 16.8432 8.46393 15.601C7.70662 14.3588 7.65446 12.6135 8.92916 11.4302C10.206 10.247 11.6726 10.0891 13.3103 10.6302C14.4577 11.007 15.4404 12.0261 16.3249 12.7924C16.5482 12.1355 16.8048 11.5039 17.1031 10.9186C18.455 8.27002 19.4168 7.35206 20.8751 6.52253C22.0913 5.82986 23.9085 5.82986 25.033 6.52253C26.1574 7.21311 26.22 8.77321 25.156 9.24903Z" fill="#929292"/>
</g>
<defs>
<clipPath id="clip0_276_2215">
<rect width="128" height="32" fill="white"/>
</clipPath>
</defs>
</svg>
