<svg width="119" height="32" viewBox="0 0 119 32" fill="none" xmlns="http://www.w3.org/2000/svg">
<g clip-path="url(#clip0_276_2224)">
<path d="M22.7864 0L18.647 7.10652L14.5077 0H0L18.647 32L37.2919 0H22.7864ZM14.3571 0.256314L18.647 7.61915L22.937 0.256314H29.3667L18.647 18.6551L7.92524 0.256314H14.355H14.3571ZM0.449704 0.256314H7.62614L18.647 19.1678L29.6658 0.256314H36.8422L18.647 31.4874L0.449704 0.256314Z" fill="#929292"/>
<path d="M29.3667 0.256348L18.647 18.6552L7.92523 0.256348H14.357L18.647 7.61918L22.937 0.256348H29.3667Z" fill="#929292"/>
<path d="M54.2322 24.943C53.7804 24.943 53.3788 24.6557 53.2386 24.2299L45.966 2.26957C45.7861 1.728 46.0852 1.14303 46.6353 0.965259C47.1833 0.787493 47.7753 1.08308 47.9551 1.62672L54.2259 20.5712L60.4381 1.62878C60.6159 1.08515 61.2057 0.787493 61.7558 0.963192C62.3059 1.13889 62.6071 1.7218 62.4293 2.26543L55.2278 24.2278C55.0877 24.6537 54.6881 24.943 54.2343 24.943H54.2322Z" fill="#929292"/>
<path d="M70.5533 24.941C67.0414 24.941 64.1842 22.1174 64.1842 18.6469V10.2939C64.1842 9.7234 64.6527 9.26038 65.23 9.26038C65.8073 9.26038 66.2758 9.7234 66.2758 10.2939V18.6469C66.2758 20.9785 68.1939 22.874 70.5533 22.874C72.9126 22.874 74.8328 20.9785 74.8328 18.6469V10.2939C74.8328 9.7234 75.3013 9.26038 75.8786 9.26038C76.4559 9.26038 76.9244 9.7234 76.9244 10.2939V18.6469C76.9244 22.1174 74.0672 24.941 70.5533 24.941Z" fill="#929292"/>
<path d="M92.1934 17.7229C92.7707 17.7229 93.2392 17.2599 93.2392 16.6894V15.5545C93.2392 12.084 90.3821 9.26038 86.8702 9.26038C83.3583 9.26038 80.499 12.084 80.499 15.5545V18.6469C80.499 22.1174 83.3562 24.941 86.8681 24.941C89.8006 24.941 92.0135 23.9096 93.1012 22.0347C93.3877 21.5407 93.2141 20.9082 92.7142 20.625C92.2122 20.3418 91.5743 20.5134 91.2856 21.0074C90.3444 22.6321 88.1147 22.874 86.8681 22.874C84.5087 22.874 82.5907 20.9785 82.5907 18.6469V17.7229H92.1934ZM82.5907 15.5545C82.5907 13.2229 84.5108 11.3274 86.8702 11.3274C89.2296 11.3274 91.1476 13.2229 91.1476 15.5545V15.6558H82.5907V15.5545Z" fill="#929292"/>
<path d="M97.4686 24.387C98.2194 24.387 98.8281 23.7855 98.8281 23.0434C98.8281 22.3014 98.2194 21.6998 97.4686 21.6998C96.7177 21.6998 96.109 22.3014 96.109 23.0434C96.109 23.7855 96.7177 24.387 97.4686 24.387Z" fill="#929292"/>
<path d="M103.767 4.91751C104.517 4.91751 105.126 4.31597 105.126 3.57393C105.126 2.83189 104.517 2.23035 103.767 2.23035C103.016 2.23035 102.407 2.83189 102.407 3.57393C102.407 4.31597 103.016 4.91751 103.767 4.91751Z" fill="#929292"/>
<path d="M100.453 32C99.876 32 99.4075 31.537 99.4075 30.9665C99.4075 30.396 99.876 29.9329 100.453 29.9329C102.012 29.9329 102.721 28.6183 102.721 27.3987V9.52083C102.721 8.95032 103.189 8.4873 103.766 8.4873C104.344 8.4873 104.812 8.95032 104.812 9.52083V27.3987C104.812 30.0652 102.98 32 100.453 32Z" fill="#929292"/>
<path d="M113.704 24.8128C111.598 24.8128 109.328 23.9942 108.249 22.8326C107.858 22.4129 107.887 21.7577 108.312 21.3732C108.736 20.9867 109.399 21.0136 109.788 21.4352C110.401 22.0946 112.118 22.7871 113.836 22.7437C114.465 22.7292 115.618 22.5928 116.258 21.8404C116.632 21.4001 117.03 20.7138 116.793 19.9552C116.536 19.1284 115.574 18.4256 114.156 18.0287C111.361 17.2453 109.64 16.094 109.037 14.6098C108.496 13.2745 108.789 11.7346 109.801 10.5894C112.715 7.29868 118.184 9.9073 118.416 10.021C118.935 10.2732 119.148 10.8933 118.893 11.4038C118.638 11.9144 118.013 12.1273 117.494 11.8751C117.45 11.8545 113.233 9.85355 111.376 11.9495C110.891 12.4973 110.736 13.2394 110.978 13.8388C111.317 14.6739 112.648 15.4553 114.727 16.0402C116.871 16.6417 118.316 17.8158 118.793 19.3475C119.186 20.6146 118.847 22.0078 117.862 23.1695C116.984 24.2051 115.607 24.7735 113.886 24.8128C113.825 24.8128 113.767 24.8128 113.706 24.8128H113.704Z" fill="#929292"/>
</g>
<defs>
<clipPath id="clip0_276_2224">
<rect width="119" height="32" fill="white"/>
</clipPath>
</defs>
</svg>
