<?xml version="1.0" encoding="utf-8"?><svg xmlns="http://www.w3.org/2000/svg" xmlns:xlink="http://www.w3.org/1999/xlink"><symbol viewBox="0 0 160 32" id="1C" xmlns="http://www.w3.org/2000/svg"><g clip-path="url(#aaclip0_276_2161)"><path d="M31.23 16c0 8.837-6.99 16-15.615 16C6.991 32 0 24.837 0 16c0-4.965 2.206-9.401 5.668-12.336V16c0 5.63 4.453 10.192 9.947 10.192 5.495 0 9.95-4.562 9.95-10.192S21.111 5.808 15.616 5.806v2.903c3.931 0 7.114 3.264 7.114 7.291 0 4.027-3.185 7.29-7.116 7.29-3.93 0-7.114-3.265-7.114-7.29V1.753c.33-.174.667-.334 1.009-.484V16c0 3.454 2.735 6.256 6.105 6.256 3.37 0 6.106-2.802 6.106-6.256s-2.73-6.254-6.104-6.256v2.722c1.905 0 3.447 1.582 3.447 3.534 0 1.952-1.544 3.534-3.449 3.534-1.905 0-3.449-1.582-3.449-3.534V.39a15.32 15.32 0 013.45-.39h.001C24.241.002 31.23 7.163 31.23 16zM43.961 10.23h-3.544v14.577h3.544V10.23zM71.95 18.75h-.069v3.17h.068v-3.17zM95.007 10.23v14.577h-3.544v-8.69l-5.733 8.69h-3.543V10.23h3.543v8.69l5.733-8.69h3.544zM134.045 10.23v14.577h-3.544v-8.69l-5.733 8.69h-3.543V10.23h3.543v8.69l5.733-8.69h3.544z"/><path d="M43.959 10.23h-5.825v3.395h5.825v-3.394zM107.006 10.23v3.393h-3.453v11.184h-3.544V13.623h-3.454V10.23h10.451zM50.35 17.518c0 2.224 1.76 4.027 3.928 4.027 1.265 0 2.39-.613 3.108-1.563v3.63a6.943 6.943 0 01-3.904 1.195c-3.928 0-7.114-3.262-7.114-7.29 0-4.027 3.186-7.286 7.114-7.286 1.443 0 2.784.439 3.904 1.195v3.63a3.888 3.888 0 00-3.108-1.563c-2.168 0-3.928 1.803-3.928 4.025zM152.964 17.518c0 2.224 1.76 4.027 3.929 4.027A3.888 3.888 0 00160 19.982v3.63a6.945 6.945 0 01-3.904 1.195c-3.928 0-7.114-3.262-7.114-7.29 0-4.027 3.186-7.286 7.114-7.286 1.443 0 2.784.439 3.904 1.195v3.63a3.888 3.888 0 00-3.107-1.563c-2.169 0-3.929 1.803-3.929 4.025zM62.925 20.048c1.296 0 2.347-1.076 2.347-2.404 0-1.328-1.051-2.405-2.347-2.405s-2.347 1.076-2.347 2.404c0 1.328 1.05 2.405 2.347 2.405zM143.854 17.52l4.807 7.287h-3.884l-2.866-4.345-1.606-2.435v6.78h-3.543V10.23h3.543v6.78l1.606-2.435 2.866-4.345h3.884l-4.807 7.289zM114.852 10.23h-6.262v14.577h3.545v-4.825h2.717c2.628 0 4.758-2.183 4.758-4.876 0-2.692-2.13-4.875-4.758-4.875zm0 6.316c-.268.18-.587.288-.932.288h-1.785v-3.456h1.785c.345 0 .664.108.932.288.455.309.756.84.756 1.44 0 .601-.301 1.132-.756 1.44zM74.937 15.865H71.95v-2.242h6.907V10.23h-10.45v14.576h6.53c2.74 0 4.962-2.002 4.962-4.471 0-2.469-2.222-4.47-4.962-4.47zm.223 5.792a1.914 1.914 0 01-.972.263H71.88v-3.17h2.307c.359 0 .694.1.972.265.473.283.788.77.788 1.321 0 .55-.315 1.038-.788 1.321z"/></g><defs><clipPath id="aaclip0_276_2161"><path d="M0 0h160v32H0z"/></clipPath></defs></symbol><symbol viewBox="0 0 36 21" id="1c-footer" xmlns="http://www.w3.org/2000/svg"><g clip-path="url(#abclip0_276_54)"><path d="M23.473 20.879c-1.836-.38-3.55-1.227-4.896-2.42-3.454-3.063-4.522-7.876-2.697-12.158.448-1.051 1.177-2.118 2.08-3.045l.795-.818.056 4.784c.054 4.58.066 4.81.283 5.387.434 1.154.9 1.89 1.7 2.686 2.07 2.057 5.104 2.57 7.684 1.3 2.425-1.195 3.953-3.792 3.776-6.416-.12-1.762-.713-3.054-1.994-4.342-.97-.973-2.11-1.61-3.35-1.868-1.264-.264-1.203-.303-1.203.765v.92l.692.128c2.681.494 4.455 3.122 3.896 5.775-.179.848-.577 1.596-1.216 2.285a4.903 4.903 0 01-3.53 1.546 4.867 4.867 0 01-4.42-2.779s-.208-.473-.276-.765c-.395-1.72-.142-5.34-.142-5.34l-.03-5.291.312-.162c.172-.089.337-.162.367-.162.03 0 .067 2.431.084 5.402 0 0-.38 3.895.09 5.387.067.215.196.584.196.584.411.837 1.07 1.574 1.928 1.979.65.308.978.447 1.941.447.629 0 1.186-.198 1.827-.493.756-.347 1.623-1.267 1.943-2.107.883-2.315-.346-4.805-2.714-5.5-.968-.284-.948-.3-.948.751v.918l.465.124c1.674.447 2.185 2.688.87 3.84-.464.407-.882.586-1.614.586-.783 0-1.534-.472-1.92-1.197a2.209 2.209 0 01-.251-1.038c0-1.748-.038-4.892-.038-4.892L23.188.288l.24-.06a18 18 0 011.188-.18c1.766-.225 4.38.353 6.136 1.356 2.394 1.367 4.205 3.717 4.96 6.432.26.934.288 1.206.288 2.709 0 1.496-.03 1.776-.283 2.69-1.026 3.69-3.636 6.329-7.367 7.448-.785.236-1.153.28-2.538.31-1.119.024-1.843-.012-2.339-.114z"/></g><path d="M0 0h17.5L16 1.5H1L0 0zM4.5 4h10L14 5.5H5.5L4.5 4zM8 8h5l-.5 1.5H9L8 8z"/><defs><clipPath id="abclip0_276_54"><path d="M0 0h21v21H0z"/></clipPath></defs></symbol><symbol viewBox="0 0 48 48" id="advertising" xmlns="http://www.w3.org/2000/svg"><path d="M24 24l7.667-7.667m9.857-9.857V1l-4.381 4.38m4.38 1.096H47l-4.381 4.381m-1.095-4.38l-4.381 4.38m-5.476 5.476v-5.476l5.476-5.476m-5.476 10.952h5.476l5.476-5.476m-10.952 5.476l5.476-5.476m0 0V5.381m0 5.476h5.476"/><circle cx="24" cy="24" r="10"/><path d="M39.764 17.625A16.952 16.952 0 0141 24c0 9.389-7.611 17-17 17S7 33.389 7 24 14.611 7 24 7c2.254 0 4.406.439 6.375 1.236M24 9V5M24 43v-4M39 24h4M5 24h4"/></symbol><symbol viewBox="0 0 16 10" id="arrow-down" xmlns="http://www.w3.org/2000/svg"><path d="M1 1.5l7 7 7-7"/></symbol><symbol viewBox="0 0 18 18" id="arrow-link" xmlns="http://www.w3.org/2000/svg"><path d="M1 17L17 1m0 0v16m0-16H1"/></symbol><symbol viewBox="0 0 36 16" id="arrow-next" xmlns="http://www.w3.org/2000/svg"><path d="M27.046 15.2L34.8 8m0 0L27.046.8M34.8 8H1.2"/></symbol><symbol viewBox="0 0 6 8" id="arrow-right" xmlns="http://www.w3.org/2000/svg"><path d="M1.333 7.333L4.668 4 1.334.667"/></symbol><symbol viewBox="0 0 16 10" id="arrow-up" xmlns="http://www.w3.org/2000/svg"><path d="M15 8.5l-7-7-7 7"/></symbol><symbol viewBox="0 0 48 48" id="audit" xmlns="http://www.w3.org/2000/svg"><path d="M24.6 19v18m0-18l7.2-4.5M24.6 19l-7.2-3.429M24.6 37h7.2m-7.2 0h-7.2m14.4 0H39V10l-7.2 4.5m0 22.5V14.5M10.2 37H3V19l7.2-3.429M10.2 37V15.571M10.2 37h7.2m-7.2-21.429l3.6-1.714 3.6 1.714M17.4 37V15.571M3 40h18"/><circle cx="36" cy="32" r="8"/><path d="M41 39l4 4M25 12l10-6.364m0 0v2.546m0-2.546L32.647 5"/></symbol><symbol viewBox="0 0 18 10" id="back" xmlns="http://www.w3.org/2000/svg"><path d="M4.477 1.4L.6 5m0 0l3.877 3.6M.6 5h16.8"/></symbol><symbol viewBox="0 0 48 48" id="bag" xmlns="http://www.w3.org/2000/svg"><path d="M32.824 15v27m0 0H9V15h30v27l-3.088-1.77L32.824 42z"/><path d="M28 18v-5.077C28 9.1 24.866 6 21 6s-7 3.1-7 6.923V18M35 15c0-5-2-9-7-9M13 18h2v3h-2zM27 18h2v3h-2z"/></symbol><symbol viewBox="0 0 24 24" id="basket" xmlns="http://www.w3.org/2000/svg"><path d="M15.75 6.75h3.075l2.486 13.385a2 2 0 01-1.967 2.365H4.656a2 2 0 01-1.967-2.365L5.175 6.75H6.75m1.5 0h6"/><path d="M15.75 8.25V5.116C15.75 3.12 14.071 1.5 12 1.5c-2.071 0-3.75 1.619-3.75 3.616V8.25"/></symbol><symbol viewBox="0 0 48 48" id="bitrix" xmlns="http://www.w3.org/2000/svg"><path d="M1 37h12.138v-2.764h-8C6.24 29.701 13 28.71 13 23.677 13 20.984 11.207 19 7.414 19 5.069 19 3 19.709 1.62 20.417l.827 2.551c1.242-.637 2.69-1.204 4.483-1.204 1.38 0 2.69.638 2.69 2.268C9.62 27.716 1.69 28 1 37zm12.483-4.394h7.793V37h3.103v-4.394H27v-2.693h-2.62V19h-2.277l-8.62 11.48v2.126zM17 30.056l4.414-6.095c0 .496-.138 2.055-.138 3.472v2.551h-2.07c-.62 0-1.792.071-2.206.071z"/><circle cx="38" cy="20" r="9"/><path d="M38 14v6h6"/></symbol><symbol viewBox="0 0 32 32" id="catalog_bag" xmlns="http://www.w3.org/2000/svg"><path d="M21 9h4.1l3.46 18.635A2 2 0 0126.595 30H5.406a2 2 0 01-1.967-2.365L6.9 9H9m2 0h8"/><path d="M21 11V6.821C21 4.16 18.761 2 16 2s-5 2.159-5 4.821V11"/></symbol><symbol viewBox="0 0 32 32" id="catalog_bitrix" xmlns="http://www.w3.org/2000/svg"><path d="M1 25h8.403v-1.843H3.865c.764-3.023 5.443-3.685 5.443-7.039C9.308 14.323 8.066 13 5.44 13a9.256 9.256 0 00-4.01.945l.573 1.7c.86-.425 1.862-.803 3.103-.803.955 0 1.862.426 1.862 1.512C6.968 18.811 1.478 19 1 25zm8.642-2.93h5.395V25h2.149v-2.93H19v-1.794h-1.814V13H15.61l-5.968 7.654v1.417zm2.435-1.7l3.056-4.063c0 .33-.096 1.37-.096 2.315v1.7h-1.432c-.43 0-1.242.048-1.528.048z"/><circle cx="25" cy="13" r="6"/><path d="M25 9v4h4"/></symbol><symbol viewBox="0 0 32 32" id="catalog_entrance" xmlns="http://www.w3.org/2000/svg"><path d="M11 13v6.659m0 0L22 24V7l-11 3.878H4v8.78m7 0H7m-3 0h3m-3 0V25h2l1-5.341M25 15.5h3m-3-4.4l3-1.1m-3 9.9l3 1.1"/></symbol><symbol viewBox="0 0 32 32" id="catalog_for-shop" xmlns="http://www.w3.org/2000/svg"><path d="M11 9h4M9 9H6.9L3.44 27.635A2 2 0 005.405 30h21.188a2 2 0 001.967-2.365L26.214 15"/><path d="M11 11V6.821C11 4.16 13.239 2 16 2c.797 0 1.551.18 2.22.5"/><path d="M30.181 7.32l-1.123-.19a6.345 6.345 0 00-.451-1.09l.662-.926a.985.985 0 00-.107-1.273l-.996-.996a.981.981 0 00-1.27-.107l-.93.662a6.278 6.278 0 00-1.13-.465l-.187-1.11A.987.987 0 0023.673 1h-1.407a.987.987 0 00-.976.826l-.194 1.136c-.374.117-.738.27-1.086.458l-.919-.662a.981.981 0 00-.575-.184.975.975 0 00-.698.291l-1 .996a.99.99 0 00-.107 1.274l.669.939c-.184.35-.331.715-.445 1.093l-1.11.187A.987.987 0 0015 8.33v1.407c0 .485.348.896.826.976l1.136.194c.117.374.27.739.458 1.086l-.659.916a.986.986 0 00.107 1.273l.996.996a.981.981 0 001.27.107l.94-.668c.337.177.692.32 1.056.434l.187 1.123c.08.478.491.826.976.826h1.41a.987.987 0 00.977-.826l.19-1.123a6.344 6.344 0 001.09-.45l.925.661c.168.12.368.184.575.184a.981.981 0 00.699-.291l.996-.996a.99.99 0 00.107-1.274l-.662-.929c.184-.35.338-.715.451-1.09l1.123-.186A.987.987 0 0031 9.704V8.296a.975.975 0 00-.819-.976z"/><circle cx="23" cy="9" r="2.909"/></symbol><symbol viewBox="0 0 32 32" id="catalog_headphones" xmlns="http://www.w3.org/2000/svg"><path d="M6.5 14a3.5 3.5 0 100 7H8v-7H6.5zm0 0v-1.5a9.5 9.5 0 0119 0V14m0 0a3.5 3.5 0 110 7m0-7H24v7h1.5m0 0v.5A5.5 5.5 0 0120 27m0 0c0-1-1-2-3-2s-3 1-3 2 1 2 3 2 3-1 3-2z"/></symbol><symbol viewBox="0 0 32 32" id="catalog_integration" xmlns="http://www.w3.org/2000/svg"><path d="M11.556 21H4V4h17v7.556"/><path d="M20.444 11H28v17H11v-7.556"/><path d="M11 11h10v10H11z"/></symbol><symbol viewBox="0 0 32 32" id="catalog_phone" xmlns="http://www.w3.org/2000/svg"><path d="M7 26.714V30a1 1 0 001 1h16a1 1 0 001-1v-3.286m-18 0V2a1 1 0 011-1h16a1 1 0 011 1v24.714m-18 0h18m-10 2.143h2M10 6h12m-12 4h8m-8 4h10m-10 4h4m-4 4h3"/></symbol><symbol viewBox="0 0 32 32" id="catalog_responsive-website" xmlns="http://www.w3.org/2000/svg"><path d="M14 9h12m-12 4h8m-8 4h10m-10 4h4M13.874 25H2V5h28v20H19.189m-5.315 0v4h5.315v-4m-5.315 0h5.315m-7.44 4h9.566"/><path d="M6 21V9h4v12H6z"/></symbol><symbol viewBox="0 0 32 32" id="catalog_tools" xmlns="http://www.w3.org/2000/svg"><path d="M15.275 13.134L9.043 6.888V5.662a.508.508 0 00-.247-.435l-3.59-2.155a.508.508 0 00-.621.077L3.149 4.585a.508.508 0 00-.077.62l2.155 3.59a.508.508 0 00.435.247h1.226l6.233 6.247m4.231 5.816l6.433 6.987.015.015a3.047 3.047 0 104.293-4.324l-6.998-6.42m-3.743 3.742L15.74 18.89m1.612 2.216l3.743-3.742m0 0l-2.206-1.603"/><path d="M25.544 3.265l-.16.474a.007.007 0 01.005.005c0 .003 0 .006-.002.007l-2.075 2.106-.144.146v1.431l.14.145L24.42 8.73l.148.153h1.43l.146-.148 2.106-2.122a.008.008 0 01.007-.002c.002 0 .004.002.005.005a4.584 4.584 0 01-5.526 5.885l-.278-.074-.204.204-3.008 3.007.354.353-.354-.353-3.621 3.622-2.993 2.992-.205.205.076.28c.36 1.33.11 2.718-.708 3.857A4.52 4.52 0 018.078 28.5c-.5 0-.992-.08-1.462-.239a.007.007 0 01-.005-.005c0-.003 0-.006.002-.008l2.122-2.105.148-.146v-1.431l-.147-.146-1.156-1.156-.146-.147H6.003l-.146.148-2.105 2.122a.008.008 0 01-.008.002.007.007 0 01-.005-.005 4.564 4.564 0 01-.239-1.462 4.52 4.52 0 011.906-3.716 4.522 4.522 0 013.858-.708l.279.076.205-.205 3.726-3.726 2.155-2.155 3.74-3.74.205-.205-.076-.28a4.52 4.52 0 01.707-3.855A4.522 4.522 0 0123.922 3.5c.5 0 .992.08 1.462.239l.16-.474zm0 0a.508.508 0 01.331.363l-6.86 5.766a5.02 5.02 0 01.784-4.278A5.022 5.022 0 0123.922 3c.555 0 1.1.09 1.622.265z"/></symbol><symbol viewBox="0 0 24 24" id="chat" xmlns="http://www.w3.org/2000/svg"><path d="M19.5 16.274l-.313-.39a.5.5 0 00-.187.39h.5zM15.774 18.2l.345-.362a.5.5 0 00-.49-.116l.145.478zM19.5 21.75l-.345.362A.5.5 0 0020 21.75h-.5zM22 10.5c0 2.068-1.051 3.971-2.813 5.384l.626.78C21.763 15.1 23 12.928 23 10.5h-1zM12 2.75c5.642 0 10 3.575 10 7.75h1c0-4.938-5.044-8.75-11-8.75v1zM2 10.5c0-4.175 4.358-7.75 10-7.75v-1c-5.956 0-11 3.812-11 8.75h1zm10 7.75c-5.642 0-10-3.575-10-7.75H1c0 4.938 5.044 8.75 11 8.75v-1zm3.629-.527c-1.124.34-2.347.527-3.629.527v1c1.379 0 2.7-.201 3.919-.57l-.29-.957zm4.216 3.665l-3.726-3.549-.69.724 3.726 3.55.69-.725zM19 16.274v5.476h1v-5.476h-1zM6.75 10.5h10.5M6.75 12.75h10.5M6.75 8.25h10.5"/></symbol><symbol viewBox="0 0 14 12" id="check-mark" xmlns="http://www.w3.org/2000/svg"><path d="M1 6.385L5.286 11 13 1"/></symbol><symbol viewBox="0 0 24 24" id="close" xmlns="http://www.w3.org/2000/svg"><path d="M4.8 19.2L19.2 4.8m-14.4 0l14.4 14.4"/></symbol><symbol viewBox="0 0 48 48" id="corporate" xmlns="http://www.w3.org/2000/svg"><path d="M43 22.5V41H5v-2.8m0 0h23.75M5 38.2V22.5M14 12V7h20v5M12 23h5v7h-5z"/><path d="M17 27h14m5 0l8-5.172V12H4v9.828L12 27"/><path d="M31 23h5v7h-5z"/></symbol><symbol viewBox="0 0 18 16" id="correct" xmlns="http://www.w3.org/2000/svg"><path d="M1 8.538L6.714 15 17 1"/></symbol><symbol viewBox="0 0 48 48" id="correspondence" xmlns="http://www.w3.org/2000/svg"><path d="M29 6c-1.282 0-2.448.447-3.284 1.168-.835.733-1.353 1.726-1.353 2.832H6c0-1.106.518-2.1 1.354-2.832C8.204 6.448 9.356 6 10.637 6H29zM38 38c0 1.102-.501 2.105-1.322 2.824-.807.73-1.934 1.176-3.173 1.176H17c1.239 0 2.366-.446 3.173-1.176.807-.719 1.308-1.722 1.308-2.824H38zM34 32.607V35m-17 7c-5 0-7-2-7-4.653V13m19-7c1.5 0 2.818.49 3.657 1.268C33.481 8.06 34 9.14 34 10.336v5.057M33.5 32c4.694 0 8.5-3.582 8.5-8s-3.806-8-8.5-8-8.5 3.582-8.5 8 3.806 8 8.5 8zM18 17h-4v3h4v-3zM18 23h-4v3h4v-3z"/><path d="M18 29h-4v3h4v-3zM30 24.5l2.36 2.5L37 22"/></symbol><symbol viewBox="0 0 125 32" id="docker" xmlns="http://www.w3.org/2000/svg"><g clip-path="url(#bcclip0_276_2198)"><path d="M67.962 28.107c-3.66 0-6.637-2.956-6.637-6.59 0-3.632 2.977-6.588 6.637-6.588 3.66 0 6.637 2.956 6.637 6.589 0 3.633-2.977 6.588-6.637 6.588zm0-10.732c-2.302 0-4.174 1.858-4.174 4.143 0 2.285 1.872 4.143 4.174 4.143 2.301 0 4.174-1.858 4.174-4.143 0-2.285-1.873-4.143-4.174-4.143zM82.389 28.107c-3.658 0-6.636-2.956-6.636-6.587 0-3.632 2.978-6.589 6.636-6.589 1.519 0 3.005.524 4.183 1.474.528.426.608 1.197.18 1.72a1.239 1.239 0 01-1.734.179 4.145 4.145 0 00-2.63-.926c-2.3 0-4.173 1.859-4.173 4.143 0 2.285 1.872 4.142 4.172 4.142.97 0 1.88-.32 2.63-.926a1.239 1.239 0 011.734.178c.43.524.349 1.295-.18 1.72a6.686 6.686 0 01-4.182 1.475v-.003zM107.024 14.931c-3.659 0-6.636 2.956-6.636 6.589 0 3.633 2.977 6.587 6.636 6.587a6.67 6.67 0 004.353-1.613 1.216 1.216 0 00.121-1.725 1.237 1.237 0 00-1.736-.123 4.191 4.191 0 01-2.738 1.015 4.175 4.175 0 01-3.986-2.919h9.391c.681 0 1.232-.546 1.232-1.222 0-3.633-2.977-6.589-6.637-6.589zm-3.988 5.366a4.18 4.18 0 013.988-2.92 4.181 4.181 0 013.989 2.92h-7.977zM58.76 9.525c-.678 0-1.23.547-1.23 1.223V16.4a6.632 6.632 0 00-4.175-1.469c-3.658 0-6.635 2.956-6.635 6.589 0 3.633 2.977 6.587 6.635 6.587 3.659 0 6.638-2.956 6.638-6.587V10.748c0-.676-.551-1.223-1.232-1.223zM53.356 25.66c-2.3 0-4.172-1.858-4.172-4.141s1.872-4.144 4.172-4.144 4.174 1.859 4.174 4.144c0 2.284-1.872 4.141-4.174 4.141zM99.697 26.077c.448.506.397 1.28-.113 1.726a1.232 1.232 0 01-.813.304 1.23 1.23 0 01-.925-.416l-5.29-5.974-1.418.919v4.248c0 .676-.551 1.223-1.232 1.223a1.226 1.226 0 01-1.232-1.223V10.748c0-.676.553-1.223 1.232-1.223.68 0 1.232.547 1.232 1.223v8.969l.917-.592c.031-.023.065-.044.098-.065l6.076-3.93c.57-.37 1.334-.21 1.703.356a1.214 1.214 0 01-.359 1.691l-4.932 3.192 5.056 5.708zM124.843 17.184c-.33.59-1.082.802-1.675.474-.575-.318-1.812-.395-2.974.09-.929.386-2.146 1.272-2.748 3.283v5.853c0 .676-.551 1.223-1.232 1.223a1.227 1.227 0 01-1.232-1.223v-10.73c0-.676.551-1.223 1.232-1.223.681 0 1.232.547 1.232 1.223v.44a6.782 6.782 0 011.795-1.1c1.731-.722 3.792-.711 5.125.027.595.329.808 1.075.477 1.663zM8.073 10.131H4.08a.35.35 0 00-.352.35v3.503c0 .193.157.35.352.35h3.994a.35.35 0 00.352-.35V10.48a.35.35 0 00-.352-.349zM13.528 10.131H9.534a.35.35 0 00-.352.35v3.503c0 .193.157.35.352.35h3.994a.35.35 0 00.352-.35V10.48a.35.35 0 00-.352-.349zM18.983 10.131h-3.995a.35.35 0 00-.351.35v3.503c0 .193.157.35.351.35h3.995a.35.35 0 00.352-.35V10.48a.35.35 0 00-.352-.349zM24.438 10.131h-3.995a.35.35 0 00-.352.35v3.503c0 .193.158.35.352.35h3.995a.35.35 0 00.352-.35V10.48a.35.35 0 00-.352-.349zM13.528 5.066H9.534a.35.35 0 00-.352.349v3.504c0 .193.157.35.352.35h3.994a.35.35 0 00.352-.35V5.415a.35.35 0 00-.352-.35zM18.983 5.066h-3.995a.35.35 0 00-.351.349v3.504c0 .193.157.35.351.35h3.995a.35.35 0 00.352-.35V5.415a.35.35 0 00-.352-.35zM24.438 5.066h-3.995a.35.35 0 00-.352.349v3.504c0 .193.158.35.352.35h3.995a.35.35 0 00.352-.35V5.415a.35.35 0 00-.352-.35zM24.438 0h-3.995a.35.35 0 00-.352.35v3.503c0 .193.158.35.352.35h3.995a.35.35 0 00.352-.35V.35A.35.35 0 0024.438 0zM29.892 10.131h-3.994a.35.35 0 00-.352.35v3.503c0 .193.158.35.352.35h3.994a.35.35 0 00.352-.35V10.48a.35.35 0 00-.352-.349z"/><path d="M34.336 14.334s-.358.864-4.55.864c-4.194 0-25.06.037-27.77 0-2.408-.033-2.107 1.64-1.836 4.549C.415 22.285 1.958 32 16.067 32c15.228 0 20.324-10.288 21.809-15.184 0 0 5.867.263 7.065-4.367 0 0-2.048-2.065-5.988-1.095 0 0-.41-3.38-3.813-5.132 0 0-3.462 4.255-.803 8.108l-.002.004z"/></g><defs><clipPath id="bcclip0_276_2198"><path d="M0 0h125v32H0z"/></clipPath></defs></symbol><symbol viewBox="0 0 48 48" id="fast" xmlns="http://www.w3.org/2000/svg"><path d="M29.5 39C37.508 39 44 32.508 44 24.5S37.508 10 29.5 10 15 16.492 15 24.5 21.492 39 29.5 39z"/><path d="M38.084 20.414A9.38 9.38 0 0139 24.5c0 5.242-4.246 9.5-9.5 9.5a9.491 9.491 0 01-9.5-9.5c0-5.254 4.246-9.5 9.5-9.5 1.465 0 2.839.332 4.075.916"/><path d="M31.5 24.5a2 2 0 11-4 0 2 2 0 014 0zM29.5 24.5L36 18M30 10v2M39.5 14.5L38 16M19.5 14.5L21 16M15 24h2M42 24h2M12 24H4M15 14H9M15 35H9"/></symbol><symbol viewBox="0 0 32 32" id="file" xmlns="http://www.w3.org/2000/svg"><path d="M12 10.667v-4a4 4 0 014-4c2.21 0 4 1.788 4 3.997v11.95c0 3.625-5.333 3.625-5.333 0V8.467"/><path d="M20.57 8h4.096a2 2 0 012 2v17.333a2 2 0 01-2 2H7.333a2 2 0 01-2-2V10a2 2 0 012-2H8.38"/></symbol><symbol viewBox="0 0 20 18" id="filter" xmlns="http://www.w3.org/2000/svg"><path d="M1 2.25h9M7.75 9H19m-4.5 6.75H19m-6.75-1.5v1.5m0 1.5v-1.5M5.5 7.5V9m0 1.5V9M10 .75v3m2.25-1.5H19M5.5 9H1m11.25 6.75H1"/></symbol><symbol viewBox="0 0 48 48" id="guarantee" xmlns="http://www.w3.org/2000/svg"><path d="M23.5 29C29.851 29 35 23.851 35 17.5S29.851 6 23.5 6 12 11.149 12 17.5 17.149 29 23.5 29z"/><path d="M23.5 11l2.004 4.274 4.496.69-3.25 3.334.77 4.702-4.02-2.226L19.48 24l.77-4.702L17 15.964l4.496-.69L23.5 11zM16 26.5l-5 12.63 4.716-1.491L17.94 42 22 31.5M24 29l5.857 13 2.345-4.434L37 39.126 32.629 29"/></symbol><symbol viewBox="0 0 26 20" id="hamburger" xmlns="http://www.w3.org/2000/svg"><path d="M25 1H1m24 9H11.286M25 19H4.429"/></symbol><symbol viewBox="0 0 24 24" id="icon_bag" xmlns="http://www.w3.org/2000/svg"><path d="M15.75 6.75h3.075l2.486 13.385a2 2 0 01-1.967 2.365H4.656a2 2 0 01-1.967-2.365L5.175 6.75H6.75m1.5 0h6"/><path d="M15.75 8.25V5.116C15.75 3.12 14.071 1.5 12 1.5c-2.071 0-3.75 1.619-3.75 3.616V8.25"/></symbol><symbol viewBox="0 0 24 24" id="icon_catalog" xmlns="http://www.w3.org/2000/svg"><path d="M1 4h17M1 9.5h9.5M1 15h9.31"/><circle cx="15.5" cy="12.5" r="5.5"/><path d="M23 20l-2-2"/></symbol><symbol viewBox="0 0 24 24" id="icon_home" xmlns="http://www.w3.org/2000/svg"><path d="M9.25 22v-7.708h5.5V22h-5.5zm0 0H3.2V11H1l9.625-7.75L12 2l4.4 4V3.05h2.671L19 8l4 3h-2.2v11h-4.086"/></symbol><symbol viewBox="0 0 24 24" id="icon_profile" xmlns="http://www.w3.org/2000/svg"><circle cx="12" cy="7" r="5"/><path d="M21 22c0-4.418-4.03-8-9-8s-9 3.582-9 8"/></symbol><symbol viewBox="0 0 24 12" id="infinity" xmlns="http://www.w3.org/2000/svg"><path d="M23.063 6a5.063 5.063 0 01-8.644 3.581l-.019-.028-5.625-6.347a3.938 3.938 0 100 5.588l.797-.9a.563.563 0 11.844.74l-.816.92-.019.027a5.063 5.063 0 110-7.162l.019.028 5.625 6.347a3.938 3.938 0 100-5.588l-.797.9a.562.562 0 11-.844-.74l.816-.92.019-.027A5.062 5.062 0 0123.062 6z"/></symbol><symbol viewBox="0 0 48 48" id="integration" xmlns="http://www.w3.org/2000/svg"><path d="M30.779 27.185a8.54 8.54 0 00.59-3.101c0-1.09-.188-2.04-.55-2.946 0-.056-.027-.099-.04-.141-.764-1.884-2.184-3.399-3.965-4.192-.04-.014-.08-.043-.134-.057a7.1 7.1 0 00-2.8-.58H13.846v3.724l-2.585-1.827L4 12.94 13.846 6v3.795h6.993s.067 0 .107-.028V6.269C21.897 6.085 22.876 6 23.88 6c1.005 0 1.982.085 2.934.27v3.497a13.373 13.373 0 014.568 2.01L33.726 9.3a17.683 17.683 0 014.153 4.375l-2.345 2.479a14.969 14.969 0 011.903 4.843h3.309c.174 1.005.254 2.039.254 3.087s-.08 2.096-.255 3.101h-3.308c-.183.914-.475 1.73-.828 2.563"/><path d="M17.212 20.812a8.397 8.397 0 00-.59 3.086c0 1.09.188 2.038.55 2.958.013.042.026.085.053.141.75 1.883 2.17 3.383 3.953 4.19.04 0 .08.042.134.056a7.11 7.11 0 002.801.58H34.15v-3.75l2.614 1.84L44 35.008l-9.85 6.935v-3.75H27.21l-.161.042v3.496c-.952.184-1.93.269-2.935.269-1.005 0-1.983-.085-2.935-.269v-3.496a13.302 13.302 0 01-4.57-2.024l-2.345 2.491h-.013a17.887 17.887 0 01-4.128-4.387l2.346-2.477a15.001 15.001 0 01-1.903-4.826h-3.31a18.119 18.119 0 01-.255-3.1c0-1.062.08-2.08.255-3.086h3.31c.192-.912.459-1.79.8-2.633"/></symbol><symbol viewBox="0 0 48 48" id="integration1C" xmlns="http://www.w3.org/2000/svg"><path d="M19 27H9V9M29 21h10v23H21V27"/><path d="M15.124 4v5H9l6.124-5zm0 0H27v23h-6l6-5.463M25.398 31.59l1.595-1.048v6.091M34.62 35.742c-.44.554-1.035.891-1.701.891-1.333 0-2.416-1.36-2.416-3.045 0-1.686 1.083-3.046 2.416-3.046.666 0 1.273.337 1.702.891M39 18c0-5.332-3.468-7-8-7l2.127-2M31 11l2 2M9 30c0 5.332 3.468 7 8 7l-2.127 2M17 37l-2-3"/></symbol><symbol viewBox="0 0 122 32" id="laravel" xmlns="http://www.w3.org/2000/svg"><g clip-path="url(#bpclip0_276_2175)"><path d="M31.964 7.398a.545.545 0 00-.04-.064.335.335 0 00-.075-.071c-.015-.01-.028-.02-.044-.027l-6.316-3.59a.405.405 0 00-.395 0l-6.319 3.59c-.015.007-.028.017-.043.027l-.018.015a.06.06 0 00-.023.02c-.013.011-.023.024-.034.036a.545.545 0 00-.04.064l-.003.007a.362.362 0 00-.034.15v6.398l-5.16 2.853V3.962c0-.024 0-.049-.008-.071v-.005a.252.252 0 00-.023-.066.285.285 0 00-.038-.066.25.25 0 00-.041-.05l-.005-.004a.306.306 0 00-.054-.042.076.076 0 00-.018-.012L6.909.051a.405.405 0 00-.395 0L.194 3.644C.18 3.65.168 3.66.152 3.67A.36.36 0 000 3.962v20.57c0 .13.072.25.187.315l6.327 3.592a.399.399 0 00.236.05l6.088 3.46.005.002a.406.406 0 00.385 0l12.256-6.773a.37.37 0 00.192-.319v-6.89l6.137-3.487a.366.366 0 00.187-.316V7.554a.37.37 0 00-.036-.156zM6.711.796l5.573 3.166-5.573 3.164-5.573-3.164L6.711.796zm5.94 3.813v12.62L7.096 20.3V7.765l5.555-3.156zm0 26.377l-5.668-3.22a.402.402 0 00-.197-.051c-.013 0-.026 0-.039.002L.77 24.323V4.61l5.558 3.153v13.175c0 .13.072.25.187.316l.013.007 6.129 3.482-.005 6.244zm.387-6.88L7.47 20.94l5.732-3.168.049-.027 5.711-3.154 5.568 3.161-11.492 6.352zm11.87.54l-11.488 6.35.005-6.256 11.482-6.345v6.252zm0-7.534l-5.559-3.154V8.2l5.558 3.154v5.757zm.384-6.394l-5.574-3.164 5.574-3.166 5.573 3.166-5.573 3.164zm5.94 3.24l-5.556 3.154v-5.757L31.231 8.2v5.757zM54.587 24.74h-8.439V7.505h2.792v14.903h5.647v2.334-.003zM119.208 7.505V24.74H122V7.505h-2.792zM77.915 15.713h-4.878v9.083h-2.792V13.382h7.67v2.334-.002zM65.118 13.382v.872a6.356 6.356 0 00-3.66-1.146c-3.418 0-6.189 2.647-6.189 5.911s2.771 5.912 6.189 5.912a6.356 6.356 0 003.66-1.146v1.01h2.792V13.383h-2.792zm-3.66 9.134c-2.023 0-3.661-1.565-3.661-3.497s1.638-3.496 3.66-3.496c2.023 0 3.661 1.564 3.661 3.496s-1.638 3.497-3.66 3.497zM88.19 13.382v.872a6.357 6.357 0 00-3.66-1.146c-3.418 0-6.19 2.647-6.19 5.911s2.772 5.912 6.19 5.912a6.357 6.357 0 003.66-1.146v1.01h2.791V13.383H88.19zm-3.66 9.134c-2.023 0-3.662-1.565-3.662-3.497s1.639-3.496 3.661-3.496c2.023 0 3.66 1.564 3.66 3.496s-1.637 3.497-3.66 3.497zM105.081 13.382l-4.358 11.414h-3.56l-4.359-11.414h2.792l3.348 8.764 3.345-8.764h2.792zM117.634 19.02c0-.356-.033-.701-.097-1.039-.513-2.77-3.046-4.873-6.091-4.873-3.417 0-6.188 2.647-6.188 5.911s2.771 5.912 6.188 5.912c1.982 0 3.745-.89 4.878-2.275l-1.809-1.73c-.652.958-1.782 1.59-3.069 1.59-1.643 0-3.033-1.033-3.497-2.456h9.588c.064-.338.097-.686.097-1.04zm-9.685-1.039c.462-1.425 1.854-2.459 3.497-2.459 1.643 0 3.035 1.034 3.497 2.459h-6.994z"/></g><defs><clipPath id="bpclip0_276_2175"><path d="M0 0h122v32H0z"/></clipPath></defs></symbol><symbol viewBox="0 0 24 24" id="login" xmlns="http://www.w3.org/2000/svg"><path d="M2 10V6a2 2 0 012-2h16a2 2 0 012 2v12a2 2 0 01-2 2H4a2 2 0 01-2-2v-6M2 12h13m0 0l-3-3m3 3l-3 3"/></symbol><symbol viewBox="0 0 109 32" id="nodejs" xmlns="http://www.w3.org/2000/svg"><g clip-path="url(#brclip0_276_2184)"><path d="M7.775 31.986h-.004c.008.003.015.008.024.014-.006-.006-.013-.01-.02-.014zm-7.146 0c-.007.004-.014.008-.02.014l.024-.015H.63v.001zM16.41 15.48v11.956a.28.28 0 01-.422.242l-4.835-2.793a.28.28 0 01-.14-.243v-5.978a.28.28 0 00-.14-.242l-2.528-1.46a.282.282 0 00-.282 0l-2.528 1.46a.28.28 0 00-.14.242v5.978a.28.28 0 01-.14.243L.42 27.678A.28.28 0 010 27.436V15.48c0-.1.053-.192.14-.242l7.924-4.58a.282.282 0 01.282 0l7.924 4.58a.28.28 0 01.14.242zM38.596 15.48v9.08a.28.28 0 01-.14.242l-2.63 1.52-5.295 3.06a.282.282 0 01-.282 0l-5.295-3.06-2.629-1.52a.28.28 0 01-.14-.242v-9.08c0-.1.053-.192.14-.242l2.629-1.52 5.295-3.06a.282.282 0 01.282 0l5.295 3.06 2.63 1.52a.28.28 0 01.14.242zM75.903 19.157v1.727c0 .02-.01.036-.026.046l-.5.288-1.007.583a.052.052 0 01-.053 0l-1.007-.582-.5-.289a.052.052 0 01-.027-.046v-1.727c0-.02.01-.036.027-.046l.5-.288 1.007-.583a.052.052 0 01.053 0l1.007.583.5.288c.017.01.026.026.026.046z"/><path d="M77.15 21.052v-2.39a.28.28 0 00-.14-.241l-2.528-1.461a.282.282 0 00-.282 0l-2.528 1.46a.28.28 0 00-.14.243v2.712c0 .1.053.192.14.243l2.669 1.542 2.808 1.642 2.207 1.276a.28.28 0 010 .484l-4.875 2.818a.282.282 0 01-.282 0l-5.296-3.06-2.628-1.52a.28.28 0 01-.14-.242V15.48c0-.1.053-.192.14-.242l2.628-1.52 5.296-3.06a.282.282 0 01.282 0l5.295 3.06 2.629 1.52a.28.28 0 01.14.242v2.778a.28.28 0 01-.14.242l-4.835 2.794a.28.28 0 01-.421-.242h.001zM58.014 1.395L55.666.038a.28.28 0 00-.421.242v11.434a.28.28 0 01-.421.242l-2.246-1.298a.282.282 0 00-.282 0l-5.295 3.06-2.629 1.52a.28.28 0 00-.14.242v9.08c0 .1.053.192.14.242l2.629 1.52 5.295 3.06c.087.05.195.05.282 0l7.924-4.58a.28.28 0 00.14-.242V3.074a.28.28 0 00-.14-.242l-2.487-1.437h-.001zm-2.91 20.224l-2.527 1.46a.282.282 0 01-.282 0l-2.528-1.46a.28.28 0 01-.14-.242v-2.713c0-.1.053-.192.14-.242l2.528-1.46a.282.282 0 01.282 0l2.528 1.46a.28.28 0 01.14.242v2.713a.28.28 0 01-.14.242zM91.598 26.614l.007.004-.007-.004zM104.733 15.48v9.08c0 .1-.054.192-.141.242l-2.628 1.52-5.296 3.06a.28.28 0 01-.28 0l-3.09-1.786 1.17-.474 1.936 1.12a.244.244 0 00.248 0l4.65-2.688 2.309-1.334a.243.243 0 00.123-.213v-7.974a.243.243 0 00-.123-.213l-2.309-1.335-4.65-2.687a.244.244 0 00-.248 0l-4.65 2.688-2.309 1.334a.243.243 0 00-.123.213v7.974c0 .088.046.17.123.212l2.115 1.223c.636.273 1.507-.106 1.507-.994v-7.68a.28.28 0 01.28-.28h.61a.28.28 0 01.28.28V24.5c0 1.94-1.71 2.586-2.632 2.118l-.007-.004-.506-.293-2.628-1.519a.28.28 0 01-.14-.242v-9.08c0-.1.053-.192.14-.242l2.628-1.52 5.296-3.06a.28.28 0 01.28 0l5.296 3.06 2.628 1.52c.087.05.141.142.141.242z"/><path d="M98.699 16.29c-.023 0-.046 0-.069.002.249.001.486.014.714.038a5.124 5.124 0 00-.645-.04zM97.622 23.864c.196.024.398.035.606.035.023 0 .047 0 .069-.002a7.435 7.435 0 01-.675-.033z"/><path d="M101.999 21.623c-.035.406-.107.756-.32 1.046-.215.29-.491.527-.83.71-.34.184-.726.317-1.16.398-.434.081-.87.122-1.31.122-.027 0-.055 0-.082-.002a7.446 7.446 0 01-.675-.033 3.995 3.995 0 01-1.093-.28 2.105 2.105 0 01-1.196-1.237 2.512 2.512 0 01-.143-.637.282.282 0 01.276-.314l.617-.004a.28.28 0 01.272.23c.021.109.06.224.117.334.1.192.267.374.522.496.441.209.962.247 1.389.247.403 0 1.765-.038 2.158-.601s.121-1.098-.649-1.265c-.55-.119-1.262-.183-1.866-.302-.363-.072-1.23-.144-1.891-.56a1.908 1.908 0 01-.603-.58c-.151-.234-.226-.525-.226-.871 0-.377.097-.706.292-.986.194-.28.453-.511.773-.694.32-.184.685-.321 1.094-.414a5.664 5.664 0 011.165-.135c.249 0 .486.014.715.037a3.996 3.996 0 011.053.276c.534.222.974.63 1.198 1.238.07.192.119.404.142.636a.284.284 0 01-.277.314l-.618.005a.276.276 0 01-.271-.23 1.123 1.123 0 00-.639-.833c-.44-.208-.962-.246-1.389-.246-.403 0-1.67-.024-1.908.619-.156.42.045.694.298.85l.003.001c.026.017.053.031.08.045.48.24 1.438.363 1.702.403.264.041 1.186.156 1.752.338.32.102.597.234.828.396.234.164.416.363.548.597.132.234.183.53.152.885v.001zM107.687 13.389a1.313 1.313 0 01-1.313-1.31 1.312 1.312 0 012.626 0c0 .723-.588 1.31-1.313 1.31zm0-2.495c-.656 0-1.189.532-1.189 1.186a1.189 1.189 0 002.378 0c0-.654-.533-1.187-1.189-1.187z"/><path d="M108.227 11.735c0 .067-.015.13-.048.19a.432.432 0 01-.144.155.204.204 0 01.078.05c.023.022.04.046.054.074a.388.388 0 01.04.18v.224c0 .028.006.06.019.098a.75.75 0 00.05.116h-.257a.319.319 0 01-.023-.055.247.247 0 01-.014-.056c-.003-.018-.006-.035-.006-.052l-.002-.043v-.234a.184.184 0 00-.043-.13.16.16 0 00-.06-.043.229.229 0 00-.092-.017h-.355v.628h-.235v-1.534h.589a.433.433 0 01.418.287.46.46 0 01.03.162h.001zm-.803.238h.355a.204.204 0 00.149-.064.241.241 0 00.063-.168.282.282 0 00-.015-.094.21.21 0 00-.045-.074.184.184 0 00-.067-.05.194.194 0 00-.085-.018h-.355v.47-.002z"/></g><defs><clipPath id="brclip0_276_2184"><path d="M0 0h109v32H0z"/></clipPath></defs></symbol><symbol viewBox="0 0 24 24" id="notification" xmlns="http://www.w3.org/2000/svg"><path d="M12 3.75c6 0 7 6 6.75 9l2.25 3V18h-6M12 3.75c-6 0-7 6-6.75 9l-2.25 3V18h6m3-14.25V1.5M15 18c0 2.25-.75 4.5-3 4.5S9 20.25 9 18m6 0H9"/></symbol><symbol viewBox="0 0 48 48" id="page" xmlns="http://www.w3.org/2000/svg"><path d="M32 11l-8-8-2.5 2.5M32 11V6h6v11m-6-6l6 6m0 0l6 6h-4v22h-9M21.5 5.5L4 23h4v22h9m4.5-39.5l3 3M13 20L24.5 8.5m0 0L33 17M17 45V27h14v18m-14 0h14M20 35v2h3v-2h-3z"/></symbol><symbol viewBox="0 0 20 20" id="plus" xmlns="http://www.w3.org/2000/svg"><path d="M.667 10h18.666M10 .667v18.666"/></symbol><symbol viewBox="0 0 18 12" id="popular" xmlns="http://www.w3.org/2000/svg"><path d="M1.5 6h9.286M1.5.75h15m-15 10.5h3.714"/></symbol><symbol viewBox="0 0 48 48" id="pricing" xmlns="http://www.w3.org/2000/svg"><path d="M19.939 13L38 30.452 26.049 42 8 24.548l.69-10.869L19.94 13z"/><path d="M25 13l18 17.447L31.09 42M14 21a2 2 0 100-4 2 2 0 000 4z"/><path d="M14 19s-6.318-.532-7.263-5.13C6.175 11.175 7.837 6.603 5 6M17 27.5l6-5.5M20 30l6-5.5M23 33l6-5.5"/></symbol><symbol viewBox="0 0 48 48" id="promotion" xmlns="http://www.w3.org/2000/svg"><path d="M4.683 37.839H2V41h44v-3.161h-2.683m-38.634 0V10h38.634v27.839m-38.634 0h17.094m21.54 0H26.223"/><path d="M37.714 33V13.5H40L34.286 7l-5.715 6.5h2.286V33h6.857z"/><path d="M30.857 33h6.857V13.5H40L34.286 7l-5.715 6.5h2.286v4.463m0 15.037h-5.714m5.714 0V17.963M13.714 33H8v-2.6h5.714v-4.16m0 6.76h5.715m-5.715 0v-6.76M19.43 33v-6.76m0 6.76h5.714m-5.714-6.76h-5.715m5.715 0v-4.203h5.714v-4.074m0 15.037V17.963m0 0h5.714"/></symbol><symbol viewBox="0 0 14 14" id="question" xmlns="http://www.w3.org/2000/svg"><path d="M7 .625A6.375 6.375 0 1013.375 7 6.388 6.388 0 007 .625zm0 12A5.625 5.625 0 1112.625 7 5.631 5.631 0 017 12.625zm.625-2.375a.625.625 0 11-1.25 0 .625.625 0 011.25 0zm1.5-4.5a2.131 2.131 0 01-1.75 2.094V8a.375.375 0 01-.75 0v-.5A.375.375 0 017 7.125 1.375 1.375 0 105.625 5.75a.375.375 0 11-.75 0 2.125 2.125 0 014.25 0z"/></symbol><symbol viewBox="0 0 32 32" id="search" xmlns="http://www.w3.org/2000/svg"><circle cx="14" cy="14" r="10"/><path d="M28 28l-5-5"/></symbol><symbol viewBox="0 0 48 48" id="security" xmlns="http://www.w3.org/2000/svg"><path d="M39 10.47v12.7c0 6.488-2.386 13.467-15 18.83C11.386 36.637 9 29.658 9 23.17v-12.7S14.52 6 24 6s15 4.47 15 4.47z"/><path d="M31.599 19.81H17V31h14.599V19.81z"/><path d="M24.294 13c2.839 0 5.144 2.284 5.144 5.099v1.721h-10.29V18.1c0-2.815 2.306-5.099 5.146-5.099z"/><path d="M26.922 19.81v-2.064c0-1.435-1.18-2.605-2.628-2.605-1.448 0-2.628 1.17-2.628 2.604M26.164 24.058c0 .707-.4 1.325-.99 1.622v2.24c0 .475-.39.862-.88.862a.868.868 0 01-.88-.861v-2.24a1.815 1.815 0 01-.991-1.623 1.86 1.86 0 011.87-1.854 1.86 1.86 0 011.871 1.854z"/></symbol><symbol viewBox="0 0 48 48" id="sites" xmlns="http://www.w3.org/2000/svg"><path d="M35.713 9H6.287C5.577 9 5 9.586 5 10.308v21.384C5 32.414 5.576 33 6.287 33h29.426c.71 0 1.287-.586 1.287-1.308V10.308C37 9.586 36.424 9 35.713 9z"/><path d="M43 16.308v21.384c0 .727-.572 1.308-1.287 1.308H12.287M5 15h32M18 12h16M15 12h-1M12 12h-1M9 12H8"/></symbol><symbol viewBox="0 0 16 16" id="star" xmlns="http://www.w3.org/2000/svg"><path d="M8.378.264l2.036 5.05 5.21.47c.361.033.508.506.234.755l-3.952 3.59 1.184 5.342c.082.37-.301.663-.612.466l-4.477-2.832-4.478 2.832c-.311.196-.694-.096-.612-.466l1.184-5.342L.142 6.538c-.274-.25-.128-.722.234-.755l5.21-.47L7.623.264a.403.403 0 01.756 0z"/></symbol><symbol viewBox="0 0 48 48" id="start" xmlns="http://www.w3.org/2000/svg"><path d="M35.808 25.944C27.312 34.44 22.253 36 22.253 36L12 25.762s1.56-5.059 10.056-13.555c8.497-8.497 19.538-5.8 19.538-5.8s2.695 11.055-5.8 19.552l.014-.015z"/><path d="M29 24a5 5 0 100-10 5 5 0 000 10zM14 28l-4 2.65L17.35 38 20 34M36 26v5.5L24.565 41 24 35.5M21 13.13L16.168 13 7 23.482l5.5.518M12 36l-6 6M14 38l-2 3M10 34l-3 2"/></symbol><symbol viewBox="0 0 48 48" id="support" xmlns="http://www.w3.org/2000/svg"><circle cx="24" cy="24" r="4"/><path d="M44.274 15.444C40.937 7.544 33.116 2 24 2 13.223 2 4.257 9.748 2.367 19.978c-.163.782-.284 2.083-.324 2.636C2.014 23.072 2 23.534 2 24c0 1-.133 3.5.5 5.5m1.226 3.056C7.063 40.456 14.884 46 24 46c10.331 0 18.999-7.121 21.363-16.723.337-1.188.537-3.088.594-3.89.029-.459.043-.921.043-1.387 0-.8 0-3.5-.637-5.5"/><path d="M26.616 7h.5a.5.5 0 00-.5-.5V7zm-5.231 0v-.5a.5.5 0 00-.5.5h.5zm5.23 2.852h-.5a.5.5 0 00.41.492l.09-.492zm5.539 2.296l-.284.411a.5.5 0 00.637-.058l-.353-.353zm2.018-2.018l.354-.354a.5.5 0 00-.708 0l.354.354zm3.699 3.698l.353.354a.5.5 0 000-.707l-.353.353zm-2.018 2.019l-.354-.354a.5.5 0 00-.058.637l.412-.283zm2.295 5.538l-.492.09a.5.5 0 00.492.41v-.5zm2.853 0h.5a.5.5 0 00-.5-.5v.5zm0 5.23v.5a.5.5 0 00.5-.5H41zm-2.853 0v-.5a.5.5 0 00-.492.41l.492.09zm-2.295 5.539l-.412-.284a.5.5 0 00.058.637l.354-.353zm2.018 2.017l.353.354a.5.5 0 000-.707l-.353.354zm-3.699 3.7l-.354.353a.5.5 0 00.708 0l-.354-.354zm-2.018-2.019l.353-.353a.5.5 0 00-.637-.058l.284.411zm-5.538 2.296l-.09-.492a.5.5 0 00-.41.492h.5zm0 2.852v.5a.5.5 0 00.5-.5h-.5zm-5.231 0h-.5a.5.5 0 00.5.5V41zm0-2.852h.5a.5.5 0 00-.41-.492l-.09.492zm-5.538-2.296l.283-.411a.5.5 0 00-.637.058l.354.353zm-2.018 2.018l-.354.354a.5.5 0 00.707 0l-.353-.354zm-3.699-3.698l-.354-.354a.5.5 0 000 .707l.354-.353zm2.018-2.018l.353.353a.5.5 0 00.059-.637l-.412.284zm-2.295-5.538l.491-.09a.5.5 0 00-.491-.41v.5zm-2.853 0h-.5a.5.5 0 00.5.5v-.5zm0-5.231v-.5a.5.5 0 00-.5.5H7zm2.853 0v.5a.5.5 0 00.491-.41l-.491-.09zm2.295-5.539l.412.284a.5.5 0 00-.059-.637l-.353.353zm-2.018-2.018l-.354-.353a.5.5 0 000 .707l.354-.354zm3.699-3.698l.353-.354a.5.5 0 00-.707 0l.354.354zm2.018 2.018l-.354.353a.5.5 0 00.638.058l-.284-.411zm5.538-2.296l.09.492a.5.5 0 00.41-.492h-.5zm5.23-3.352h-5.23v1h5.23v-1zm.5 3.352V7h-1v2.852h1zm5.323 1.884a14.807 14.807 0 00-5.732-2.375l-.18.983a13.805 13.805 0 015.344 2.215l.568-.823zm1.38-1.96L31.8 11.794l.707.707 2.019-2.018-.708-.707zm4.406 3.699l-3.698-3.699-.708.707 3.7 3.699.706-.707zM36.206 16.2l2.018-2.018-.707-.707-2.018 2.018.707.707zm2.434 5.094a14.806 14.806 0 00-2.376-5.731l-.823.567a13.805 13.805 0 012.215 5.345l.984-.18zm2.36-.41h-2.852v1H41v-1zm.5 5.732v-5.231h-1v5.23h1zm-3.352.5H41v-1h-2.853v1zm-1.884 5.321a14.806 14.806 0 002.376-5.731l-.984-.18a13.805 13.805 0 01-2.215 5.344l.823.567zm-.765.07l2.018 2.018.707-.707-2.018-2.018-.707.707zm2.018 1.311l-3.699 3.699.708.707 3.698-3.699-.707-.707zm-2.992 3.699l-2.017-2.018-.708.707 2.018 2.018.708-.707zm-7.819 1.122a14.806 14.806 0 005.732-2.375l-.568-.823a13.807 13.807 0 01-5.345 2.215l.181.983zm.41 2.361v-2.852h-1V41h1zm-5.731.5h5.23v-1h-5.23v1zm-.5-3.352V41h1v-2.852h-1zm-5.322-1.884a14.806 14.806 0 005.732 2.375l.18-.983a13.805 13.805 0 01-5.345-2.215l-.567.823zm-1.38 1.96l2.017-2.018-.707-.707-2.018 2.018.707.707zm-4.407-3.699l3.7 3.699.706-.707-3.698-3.699-.708.707zm2.018-2.725l-2.018 2.018.708.707 2.017-2.018-.707-.707zm-2.433-5.094a14.806 14.806 0 002.375 5.732l.823-.568a13.806 13.806 0 01-2.215-5.345l-.983.18zm-2.36.41h2.852v-1H7v1zm-.5-5.731v5.23h1v-5.23h-1zm3.352-.5H7v1h2.853v-1zm1.883-5.323a14.807 14.807 0 00-2.375 5.732l.983.181a13.806 13.806 0 012.216-5.345l-.824-.567zm.765-.07l-2.017-2.017-.708.707 2.018 2.018.707-.707zm-2.017-1.31l3.698-3.699-.707-.707-3.699 3.699.708.707zm2.991-3.699l2.018 2.018.707-.707-2.018-2.018-.707.707zm7.82-1.122a14.805 14.805 0 00-5.732 2.375l.568.823a13.808 13.808 0 015.344-2.215l-.18-.983zM20.885 7v2.852h1V7h-1z"/></symbol><symbol viewBox="0 0 128 32" id="symfony" xmlns="http://www.w3.org/2000/svg"><g clip-path="url(#cfclip0_276_2215)"><path d="M56.366 22.004l3.353-9.47a.836.836 0 01.786-.558h1.572s-1.503 4.311-2.87 8.265c-1.25 3.626-2.54 6.87-3.427 7.87-1.222 1.38-3.146 1.592-4.373 1.175l.142-.857a.835.835 0 01.843-.703c.415.01.903-.036 1.225-.24.703-.446 1.016-.97 1.322-1.617.274-.577.434-1.217.434-1.217L50.75 11.976h1.66c.353 0 .666.223.785.557l3.167 9.47h.004zM122.292 22.004l3.353-9.47a.836.836 0 01.786-.558h1.571s-1.502 4.311-2.868 8.265c-1.252 3.626-2.542 6.87-3.428 7.87-1.223 1.38-3.146 1.592-4.373 1.175l.142-.857a.836.836 0 01.843-.703c.415.01.903-.036 1.224-.24.703-.446 1.016-.97 1.323-1.617.273-.577.434-1.217.434-1.217l-4.623-12.676h1.66c.353 0 .666.223.785.557l3.167 9.47h.004zM90.927 17.965c0-.854.132-1.663.397-2.425a5.786 5.786 0 011.17-2.004 5.652 5.652 0 011.909-1.371c.757-.339 1.625-.51 2.601-.51.977 0 1.86.171 2.623.51a5.78 5.78 0 011.93 1.37 5.88 5.88 0 011.195 2.005c.273.762.411 1.57.411 2.425a6.98 6.98 0 01-.411 2.403 5.846 5.846 0 01-1.195 1.987 5.682 5.682 0 01-1.93 1.352c-.762.332-1.636.499-2.623.499-.986 0-1.844-.166-2.601-.5a5.548 5.548 0 01-1.909-1.35 5.765 5.765 0 01-1.17-1.988 7.198 7.198 0 01-.397-2.403zm2.262 0c0 .632.087 1.232.263 1.796.175.565.427 1.064.753 1.495.325.432.726.773 1.2 1.026a3.343 3.343 0 001.6.378 3.41 3.41 0 001.612-.378c.482-.253.891-.596 1.231-1.026.34-.43.599-.928.778-1.495a5.89 5.89 0 00.269-1.796c0-.631-.089-1.235-.269-1.808a4.738 4.738 0 00-.778-1.512 3.834 3.834 0 00-1.23-1.038 3.371 3.371 0 00-1.614-.385c-.594 0-1.128.128-1.6.385a3.678 3.678 0 00-1.2 1.038 4.854 4.854 0 00-.752 1.512 6.154 6.154 0 00-.263 1.808zM48.41 6.861s.229 1.369-.706 1.525c-.934.156-2.568-.609-4.143.471-1.575 1.08-1.264 3.356.273 4.2 1.538.845 4.972 2.418 5.894 4.475.983 2.194.35 4.278-1.634 5.849-1.984 1.57-6.164 1.099-7.564.353 0 0-.098-1.865 1.187-1.57 1.285.294 3.208.962 4.92-.333 1.71-1.295 1.576-3.341.252-4.495-1.574-1.369-3.764-1.638-5.587-3.706-1.137-1.288-1.57-3.87.181-5.636 1.75-1.766 5.028-1.657 6.928-1.133h-.002zM63.835 11.976v12.167h1.402a.838.838 0 00.835-.843v-5.383c0-1.623.697-4.483 3-4.483s2.368 2.108 2.368 5.258v5.448h1.38a.838.838 0 00.835-.842v-5.383c0-2.472 1.008-4.457 3.192-4.457s2.184 2.244 2.184 4.598v6.084h1.398a.838.838 0 00.835-.842v-7.442c0-2.133-1.129-4.18-4.141-4.18-2.7 0-3.973 2.266-3.973 2.266s-.553-2.265-3.36-2.265c-2.809 0-3.864 2.04-3.864 2.04v-.902a.838.838 0 00-.835-.842h-1.258l.002.002zM87.23 11.879h3.293v.937a.838.838 0 01-.835.842h-2.457c-.003 3.484-.005 10.485-.005 10.485h-2.2V13.658H83a.84.84 0 01-.835-.842v-.937h2.86v-.03c0-2.552-.041-3.798 1.233-4.973 1.517-1.396 4.265-.68 4.265-.68l-.092.91a.835.835 0 01-.872.756c-.411-.021-.914-.057-1.421.256-.97.607-.91 2.264-.907 3.76zM115.752 16.18v7.182a.839.839 0 01-.835.842h-1.312v-6.902c0-2.204-.68-3.83-2.65-3.83-1.969 0-3.473 1.626-3.473 3.65V23.3a.839.839 0 01-.835.843h-1.527V11.879h1.319c.461 0 .834.377.834.842v1.173c.628-1.015 1.857-2.239 4.398-2.239 2.541 0 4.081 1.998 4.081 4.525zM15.853 0C7.097 0 0 7.165 0 16.001 0 24.837 7.097 32 15.853 32s15.854-7.163 15.854-15.999S24.609 0 15.853 0zm9.303 9.249c-.868.39-1.74-.05-1.823-.775-.086-.728.369-1.15.369-1.455 0-.305-.89-.844-2.347.278-1.45 1.118-1.917 4.763-2.3 6.742.844.122 1.699.093 2.287-.103.998-.333 1.035-.7.816-1.068-.219-.368-.597-1.019.232-1.583.826-.564 2.17.246 1.587 1.457-.584 1.213-1.544 2.025-4.51 1.992a6.02 6.02 0 01-.528-.03c-.344 2.108-.749 5.609-2.512 8.763-1.957 3.503-4.375 4.392-6.271 4.358-1.897-.036-2.545-1.676-2.053-2.703.49-1.028 1.446-1.169 2.247-.718.734.412.855 1.22.375 1.785-.358.423-.832.495-.571.783.188.204 1.602.183 2.378-.848 1.204-1.598 1.888-4.333 2.305-6.62.288-1.583.616-3.819 1.238-5.924-.86-.623-1.192-1.148-1.976-1.712-1.18-.85-2.969-1.2-3.5.356-.575 1.68 2.23 2.752 2.59 4.983.36 2.234-1.99 4.068-4.802 3.584-2.813-.484-3.499-2.666-3.002-3.67.498-1.004 1.783-.83 2.144.209.361 1.038-.457 1.408-.36 1.903.095.482.671.73 1.234.827.566.1 1.872-.017 2.062-1.25.19-1.236-1.242-1.967-2.001-3.209-.757-1.242-.81-2.988.465-4.17 1.277-1.184 2.744-1.342 4.381-.8 1.148.376 2.13 1.395 3.015 2.161.223-.656.48-1.288.778-1.873 1.352-2.649 2.314-3.567 3.772-4.396 1.216-.693 3.034-.693 4.158 0 1.124.69 1.187 2.25.123 2.726z"/></g><defs><clipPath id="cfclip0_276_2215"><path d="M0 0h128v32H0z"/></clipPath></defs></symbol><symbol viewBox="0 0 119 32" id="vue" xmlns="http://www.w3.org/2000/svg"><g clip-path="url(#cgclip0_276_2224)"><path d="M22.786 0l-4.139 7.107L14.507 0H0l18.647 32L37.292 0H22.786zm-8.429.256l4.29 7.363 4.29-7.363h6.43l-10.72 18.4L7.925.255H14.357zM.45.256h7.176l11.021 18.912L29.666.256h7.176L18.647 31.487.45.257z"/><path d="M29.367.256l-10.72 18.4L7.925.255h6.432l4.29 7.363 4.29-7.363h6.43zM54.232 24.943c-.452 0-.853-.287-.993-.713L45.966 2.27c-.18-.542.12-1.127.67-1.305a1.049 1.049 0 011.32.662l6.27 18.944L60.438 1.63a1.049 1.049 0 011.318-.666c.55.176.851.759.673 1.302l-7.201 21.963c-.14.426-.54.715-.994.715h-.002zM70.553 24.941c-3.512 0-6.369-2.824-6.369-6.294v-8.353c0-.57.469-1.034 1.046-1.034a1.04 1.04 0 011.046 1.034v8.353c0 2.332 1.918 4.227 4.277 4.227 2.36 0 4.28-1.895 4.28-4.227v-8.353c0-.57.468-1.034 1.046-1.034a1.04 1.04 0 011.045 1.034v8.353c0 3.47-2.857 6.294-6.37 6.294zM92.193 17.723a1.04 1.04 0 001.046-1.034v-1.134c0-3.471-2.857-6.295-6.369-6.295-3.512 0-6.371 2.824-6.371 6.295v3.092c0 3.47 2.857 6.294 6.37 6.294 2.932 0 5.144-1.031 6.232-2.906a1.028 1.028 0 00-.387-1.41 1.056 1.056 0 00-1.428.382c-.942 1.625-3.171 1.867-4.418 1.867-2.36 0-4.277-1.895-4.277-4.227v-.924h9.602zm-9.602-2.168c0-2.332 1.92-4.228 4.28-4.228 2.359 0 4.277 1.896 4.277 4.228v.1H82.59v-.1zM97.469 24.387c.75 0 1.36-.602 1.36-1.344 0-.742-.61-1.343-1.36-1.343-.751 0-1.36.601-1.36 1.343s.609 1.344 1.36 1.344zM103.767 4.918c.75 0 1.359-.602 1.359-1.344 0-.742-.609-1.344-1.359-1.344-.751 0-1.36.602-1.36 1.344 0 .742.609 1.344 1.36 1.344zM100.453 32a1.04 1.04 0 01-1.046-1.034c0-.57.469-1.033 1.046-1.033 1.559 0 2.268-1.315 2.268-2.534V9.52c0-.57.468-1.034 1.045-1.034a1.04 1.04 0 011.046 1.034v17.878c0 2.666-1.832 4.601-4.359 4.601zM113.704 24.813c-2.106 0-4.376-.819-5.455-1.98a1.024 1.024 0 01.063-1.46 1.051 1.051 0 011.476.062c.613.66 2.33 1.352 4.048 1.309.629-.015 1.782-.151 2.422-.904.374-.44.772-1.126.535-1.885-.257-.827-1.219-1.53-2.637-1.926-2.795-.784-4.516-1.935-5.119-3.42-.541-1.335-.248-2.874.764-4.02 2.914-3.29 8.383-.682 8.615-.568.519.252.732.872.477 1.383-.255.51-.88.723-1.399.471-.044-.02-4.261-2.021-6.118.075-.485.547-.64 1.29-.398 1.889.339.835 1.67 1.616 3.749 2.201 2.144.602 3.589 1.776 4.066 3.308.393 1.267.054 2.66-.931 3.822-.878 1.035-2.255 1.603-3.976 1.643h-.182z"/></g><defs><clipPath id="cgclip0_276_2224"><path d="M0 0h119v32H0z"/></clipPath></defs></symbol></svg>