<svg width="30" height="30" viewBox="0 0 30 30" fill="none" xmlns="http://www.w3.org/2000/svg">
<path d="M23.991 12.4857C23.991 19.1145 18.7233 24.4715 12.2455 24.4715C5.76775 24.4715 0.5 19.1145 0.5 12.4857C0.5 5.85699 5.76775 0.5 12.2455 0.5C18.7233 0.5 23.991 5.85699 23.991 12.4857Z" stroke="#929292"/>
<path d="M12.5274 6.11188C14.5944 6.44851 18.7284 8.18934 18.7284 12.4597C18.7284 17.7976 13.9367 19.096 12.2455 19.096C10.5543 19.096 5.76257 17.6533 5.76257 12.4597C5.76257 8.30476 5.76257 4.38067 5.76257 2.93799" stroke="#929292" stroke-linecap="round"/>
<path d="M12.4021 9.05269C13.5505 9.23689 15.8472 10.1895 15.8472 12.5263C15.8472 15.4473 13.1851 16.1578 12.2455 16.1578C11.306 16.1578 8.64392 15.3684 8.64392 12.5263C8.64392 10.2527 8.64392 2.25821 8.64392 1.46875" stroke="#929292" stroke-linecap="round"/>
<path d="M27.0755 20.6794C27.0755 24.1019 24.3569 26.8597 21.0237 26.8597C17.6905 26.8597 14.9719 24.1019 14.9719 20.6794C14.9719 17.2569 17.6905 14.499 21.0237 14.499C24.3569 14.499 27.0755 17.2569 27.0755 20.6794Z" fill="#2A2A2A" stroke="#485CDA"/>
<rect y="0.314745" width="5.94042" height="0.440855" rx="0.220427" transform="matrix(0.700205 0.713942 -0.700205 0.713942 25.7521 24.9045)" stroke="#485CDA" stroke-width="0.440855"/>
</svg>
