<svg width="34" height="30" viewBox="0 0 34 30" fill="none" xmlns="http://www.w3.org/2000/svg">
<rect x="0.5" y="0.5" width="28.08" height="18.5786" rx="0.5" stroke="#929292"/>
<path d="M10.3084 19.3814C10.3598 19.1533 10.5624 18.9912 10.7962 18.9912H18.5506C18.7926 18.9912 18.9999 19.1645 19.0427 19.4026L19.8943 24.1328C19.9495 24.4394 19.7138 24.7214 19.4022 24.7214H9.73174C9.41132 24.7214 9.17359 24.4242 9.24394 24.1116L10.3084 19.3814Z" stroke="#929292"/>
<path d="M19.3884 9.53537C19.3884 12.138 17.2999 14.2436 14.7288 14.2436C12.1577 14.2436 10.0692 12.138 10.0692 9.53537C10.0692 6.93276 12.1577 4.82715 14.7288 4.82715C17.2999 4.82715 19.3884 6.93276 19.3884 9.53537Z" stroke="#929292" stroke-width="0.5"/>
<path d="M14.8417 7.0038C15.6705 7.13747 17.3279 7.82878 17.3279 9.52457C17.3279 11.6443 15.4068 12.1599 14.7287 12.1599C14.0507 12.1599 12.1295 11.587 12.1295 9.52457C12.1295 7.87461 12.1295 6.31631 12.1295 5.74341" stroke="#929292" stroke-width="0.5" stroke-linecap="round"/>
<path d="M14.7916 8.17157C15.252 8.24472 16.1728 8.62302 16.1728 9.55099C16.1728 10.711 15.1055 10.9931 14.7288 10.9931C14.3521 10.9931 13.2848 10.6796 13.2848 9.55099C13.2848 8.6481 13.2848 5.47342 13.2848 5.15991" stroke="#929292" stroke-width="0.5" stroke-linecap="round"/>
<path d="M33.5001 22.3719C33.5001 26.3133 30.3376 29.4999 26.4468 29.4999C22.556 29.4999 19.3936 26.3133 19.3936 22.3719C19.3936 18.4306 22.556 15.2439 26.4468 15.2439C30.3376 15.2439 33.5001 18.4306 33.5001 22.3719Z" fill="#2A2A2A" stroke="#485CDA"/>
<rect y="0.337114" width="2.61845" height="0.474421" rx="0.23721" transform="matrix(0.703615 0.710581 -0.703615 0.710581 24.3303 22.0912)" stroke="#485CDA" stroke-width="0.474421"/>
<rect y="0.337114" width="5.30604" height="0.474421" rx="0.23721" transform="matrix(-0.703615 0.710581 0.703615 0.710581 28.7661 20.1818)" stroke="#485CDA" stroke-width="0.474421"/>
</svg>
