<svg width="41" height="31" viewBox="0 0 41 31" fill="none" xmlns="http://www.w3.org/2000/svg">
<path d="M35.1237 16.6584C35.1237 16.6584 18.4725 16.6582 18.441 16.6578C14.4537 16.6033 11.2371 13.1192 11.2371 8.8292C11.2371 4.50525 14.5048 1 18.5358 1C22.5351 1 25.7831 4.45044 25.8338 8.72753" stroke="#929292" stroke-linecap="round"/>
<path d="M35.1238 12.7946C35.1238 12.7946 18.5143 12.7948 18.4982 12.7946C16.473 12.767 14.8391 11.0023 14.8391 8.82946C14.8391 6.6394 16.4989 4.86401 18.5464 4.86401C20.5778 4.86401 22.2276 6.61164 22.2534 8.77796" stroke="#929292" stroke-linecap="round"/>
<path d="M1 4.66089H4.41238V17.879" stroke="#929292" stroke-linecap="round"/>
<path d="M3.46448 1.10205H7.82474V17.8789" stroke="#929292" stroke-linecap="round"/>
<path d="M40.5 23.4465C40.5 27.3453 37.3626 30.4999 33.5 30.4999C29.6373 30.4999 26.5 27.3453 26.5 23.4465C26.5 19.5476 29.6373 16.3931 33.5 16.3931C37.3626 16.3931 40.5 19.5476 40.5 23.4465Z" fill="#2A2A2A" stroke="#485CDA"/>
<rect y="0.333817" width="2.59638" height="0.470422" rx="0.235211" transform="matrix(0.704593 0.709611 -0.704593 0.709611 31.3982 23.1687)" stroke="#485CDA" stroke-width="0.470422"/>
<rect y="0.333817" width="5.26132" height="0.470422" rx="0.235211" transform="matrix(-0.704593 0.709611 0.704593 0.709611 35.8032 21.2776)" stroke="#485CDA" stroke-width="0.470422"/>
</svg>
