<svg width="32" height="32" viewBox="0 0 32 32" fill="none" xmlns="http://www.w3.org/2000/svg">
<path d="M32 6.85211V8.80266H0V6.85211C0 6.16028 0.559977 5.59998 1.24978 5.59998H30.7515C31.4413 5.59998 32 6.16028 32 6.85211Z" fill="#485CDA"/>
<path d="M32 12.4591V24.3465C32 25.0384 31.4413 25.6 30.7515 25.6H1.24978C0.559977 25.6 0 25.0384 0 24.3465V12.4591H32Z" fill="#485CDA"/>
<path d="M32 8.80267H0V12.4591H32V8.80267Z" fill="#030303"/>
<path d="M14.2604 18.341H3.08966C2.63988 18.341 2.27527 18.7067 2.27527 19.1578V19.359C2.27527 19.8101 2.63988 20.1758 3.08966 20.1758H14.2604C14.7101 20.1758 15.0747 19.8101 15.0747 19.359V19.1578C15.0747 18.7067 14.7101 18.341 14.2604 18.341Z" fill="#030303"/>
<path d="M10.5123 20.9348H3.08966C2.63988 20.9348 2.27527 21.3004 2.27527 21.7515V21.9528C2.27527 22.4039 2.63988 22.7696 3.08966 22.7696H10.5123C10.9621 22.7696 11.3267 22.4039 11.3267 21.9528V21.7515C11.3267 21.3004 10.9621 20.9348 10.5123 20.9348Z" fill="#030303"/>
<path d="M29.6145 20.5546C29.6145 21.7778 28.627 22.7695 27.4074 22.7695C26.8015 22.7695 26.252 22.5236 25.8534 22.1277C25.4495 21.7265 25.199 21.1701 25.199 20.5546C25.199 19.9391 25.4495 19.3827 25.8534 18.9829C26.252 18.5856 26.8015 18.341 27.4074 18.341C28.627 18.341 29.6145 19.3314 29.6145 20.5546Z" fill="#FFCC00"/>
<path d="M25.199 20.5546C25.199 21.1701 25.4495 21.7265 25.8534 22.1277C25.4547 22.5236 24.9066 22.7695 24.2994 22.7695C23.0798 22.7695 22.0909 21.7778 22.0909 20.5546C22.0909 19.3314 23.0798 18.341 24.2994 18.341C24.9066 18.341 25.4547 18.5856 25.8534 18.9829C25.4495 19.3827 25.199 19.9391 25.199 20.5546Z" fill="white"/>
</svg>
