<svg width="32" height="32" viewBox="0 0 32 32" fill="none" xmlns="http://www.w3.org/2000/svg">
<path d="M28.8 9.13723L21.5589 9.08053L17.8203 6.65958L14.1812 0L28.8 9.13723Z" fill="#F0700B" fill-opacity="0.5"/>
<path d="M17.8203 6.65958V15.9984L17.8157 16L14.2013 13.7413L14.1812 13.7287V0L17.8203 6.65958Z" fill="#FDB700" fill-opacity="0.5"/>
<path d="M28.7999 9.13727L21.5589 13.661L17.8203 15.9985V11.4495L21.5589 9.08057L28.7999 9.13727Z" fill="#DE0053" fill-opacity="0.5"/>
<path d="M6.83602 13.7429V18.4068L3.19995 25.1357V6.86438L6.83602 13.7429Z" fill="#5A55A5" fill-opacity="0.5"/>
<path d="M14.1346 18.4005L6.83602 22.8628L3.19995 25.1357L6.83602 18.4068L10.5031 16.0835L14.1346 18.4005Z" fill="#984698" fill-opacity="0.5"/>
<path d="M17.8203 20.7522V25.5074L14.1811 32.0001L14.1361 18.4021L17.8203 20.7522Z" fill="#60B421" fill-opacity="0.5"/>
<path d="M28.8 22.8644L14.1812 32L17.8203 25.5074L21.5589 23.1384L28.8 22.8644Z" fill="#008033" fill-opacity="0.5"/>
<path d="M28.6 23L21.3589 23.2741L17.6204 20.8878L13.9362 18.5377L13.9346 18.5361L10.3032 16.2191L6.63607 13.8785L3 7L13.9812 13.8643L14.0014 13.8769L17.6157 16.1357L17.6204 16.1388L21.3589 18.4747L25.1751 20.8594L28.6 23Z" fill="#1686CE" fill-opacity="0.5"/>
</svg>
