<svg width="32" height="32" viewBox="0 0 32 32" fill="none" xmlns="http://www.w3.org/2000/svg">
<path d="M24.458 13.0887V24.3388L5.86353 30.5222L20.8988 20.6V13.0887H24.458Z" fill="#D6AB05" fill-opacity="0.5"/>
<path d="M28 13.0888V32H5.86353C4.83493 32 4 31.1809 4 30.1718V14.4948C4 13.3611 4.41101 12.7067 5.86353 11.611L20.8988 0V20.6001L5.86353 30.5222L24.458 24.3388V13.0888H28Z" fill="#FFCC00" fill-opacity="0.5"/>
<path d="M16.5921 14.8216C17.4795 13.951 17.7016 12.7573 17.0881 12.1555C16.4746 11.5537 15.2579 11.7715 14.3705 12.6421C13.4831 13.5127 13.261 14.7064 13.8745 15.3082C14.4879 15.9101 15.7046 15.6922 16.5921 14.8216Z" fill="#030303" fill-opacity="0.5"/>
</svg>
