<svg width="138" height="32" viewBox="0 0 138 32" fill="none" xmlns="http://www.w3.org/2000/svg">
<g clip-path="url(#clip0_265_1193)">
<path d="M7.14003 6.88803V23.1351H11.2417V25.8224H0V23.1351H4.10172V6.88803H0V4.20077H11.2417V6.88803H7.14003Z" fill="white"/>
<path d="M28.788 11.1042C29.9932 12.3089 30.5958 14.0746 30.5958 16.4015V25.8224H27.679V16.7413C27.679 15.1557 27.3043 13.9614 26.5548 13.1583C25.8054 12.3552 24.7318 11.9537 23.3342 11.9537C21.7543 11.9537 20.5086 12.4221 19.5971 13.3591C18.6856 14.296 18.2299 15.6396 18.2299 17.39V25.8224H15.3131V9.45174H18.1083V11.9228C18.6957 11.0785 19.4908 10.4299 20.4934 9.97683C21.496 9.52381 22.6354 9.29729 23.9115 9.29729C25.9573 9.29729 27.5828 9.89961 28.788 11.1042Z" fill="white"/>
<path d="M44.4808 24.8649C44.0555 25.2355 43.5288 25.5187 42.9009 25.7143C42.273 25.9099 41.6248 26.0077 40.9564 26.0077C39.336 26.0077 38.0801 25.565 37.1889 24.6795C36.2977 23.7941 35.8521 22.5277 35.8521 20.8803V4.20077H38.7688V9.45174H43.3871V11.8919H38.7688V20.7568C38.7688 21.6422 38.9866 22.3217 39.4221 22.7954C39.8576 23.269 40.4804 23.5058 41.2906 23.5058C42.1819 23.5058 42.9414 23.2484 43.5694 22.7336L44.4808 24.8649Z" fill="white"/>
<path d="M59.3686 21.4363L60.9485 23.3513C60.2395 24.2162 59.3432 24.8752 58.2596 25.3282C57.1759 25.7812 55.9657 26.0077 54.6288 26.0077C52.9273 26.0077 51.4183 25.6525 50.1017 24.9421C48.7851 24.2317 47.7673 23.2381 47.0482 21.9614C46.3292 20.6847 45.9696 19.2432 45.9696 17.6371C45.9696 16.0309 46.319 14.6203 47.0178 13.3436C47.7166 12.0669 48.6788 11.0734 49.9042 10.3629C51.1297 9.65251 52.5121 9.29729 54.0515 9.29729C55.5099 9.29729 56.8366 9.63192 58.0317 10.3012C59.2268 10.9704 60.1788 11.9125 60.8877 13.1274C61.5967 14.3423 61.9613 15.7426 61.9815 17.3282L49.1902 19.861C49.5953 20.9936 50.279 21.8687 51.2411 22.4865C52.2032 23.1042 53.3628 23.4131 54.72 23.4131C56.6442 23.4131 58.1938 22.7542 59.3686 21.4363ZM51.3322 12.5096C50.5322 12.9833 49.9093 13.6474 49.4637 14.5019C49.0181 15.3565 48.7952 16.3501 48.7952 17.4826V17.7915L59.0951 15.8147C58.8318 14.6203 58.2444 13.6525 57.3329 12.9112C56.4214 12.1699 55.3276 11.7992 54.0515 11.7992C53.0388 11.7992 52.1323 12.036 51.3322 12.5096Z" fill="white"/>
<path d="M81.4571 9.45174V23.5985C81.4571 26.4607 80.7583 28.5766 79.3606 29.9459C77.963 31.3153 75.8767 32 73.1017 32C71.5826 32 70.1343 31.7889 68.7569 31.3668C67.3796 30.9447 66.2655 30.3423 65.4148 29.5598L66.8124 27.2741C67.5619 27.9331 68.4885 28.453 69.5925 28.834C70.6964 29.2149 71.8358 29.4054 73.0106 29.4054C74.8943 29.4054 76.2869 28.9524 77.1882 28.0463C78.0896 27.1403 78.5403 25.7606 78.5403 23.9073V22.61C77.8516 23.4543 77.0059 24.0875 76.0033 24.5096C75.0007 24.9318 73.9119 25.1429 72.7371 25.1429C71.1977 25.1429 69.8052 24.8082 68.5594 24.139C67.3137 23.4698 66.3364 22.5328 65.6275 21.3282C64.9185 20.1235 64.5641 18.749 64.5641 17.2046C64.5641 15.6602 64.9185 14.2857 65.6275 13.0811C66.3364 11.8764 67.3137 10.9447 68.5594 10.2857C69.8052 9.62677 71.1977 9.29729 72.7371 9.29729C73.9524 9.29729 75.0817 9.52381 76.1248 9.97683C77.168 10.4299 78.0238 11.0991 78.6922 11.9846V9.45174H81.4571ZM75.9122 21.8687C76.7528 21.4157 77.4111 20.7825 77.8871 19.9691C78.3631 19.1557 78.6011 18.2342 78.6011 17.2046C78.6011 15.619 78.0845 14.3372 77.0515 13.3591C76.0185 12.381 74.6918 11.8919 73.0713 11.8919C71.4509 11.8919 70.0938 12.381 69.0608 13.3591C68.0277 14.3372 67.5112 15.619 67.5112 17.2046C67.5112 18.2342 67.7492 19.1557 68.2252 19.9691C68.7012 20.7825 69.3595 21.4157 70.2001 21.8687C71.0407 22.3217 71.9978 22.5483 73.0713 22.5483C74.1449 22.5483 75.0716 22.3217 75.9122 21.8687Z" fill="white"/>
<path d="M88.2933 24.695C87.4425 23.8198 87.0172 22.5894 87.0172 21.0039L86.7893 4.20077H89.7061L89.934 20.7568C89.934 21.6422 90.1416 22.3217 90.5568 22.7954C90.972 23.269 91.5949 23.5058 92.4254 23.5058C92.9318 23.5058 93.4078 23.4028 93.8534 23.1969L94.0053 25.6371C93.3369 25.8842 92.638 26.0077 91.9089 26.0077C90.3492 26.0077 89.144 25.5701 88.2933 24.695Z" fill="white"/>
<path d="M111.658 9.45174V25.8224H108.863V23.2278C108.214 24.1338 107.394 24.8237 106.402 25.2973C105.409 25.7709 104.315 26.0077 103.12 26.0077C101.561 26.0077 100.163 25.6577 98.9273 24.9575C97.6918 24.2574 96.7246 23.2741 96.0258 22.0077C95.3269 20.7413 94.9775 19.2844 94.9775 17.6371C94.9775 15.9897 95.3269 14.538 96.0258 13.2819C96.7246 12.0257 97.6918 11.0476 98.9273 10.3475C100.163 9.64736 101.561 9.29729 103.12 9.29729C104.275 9.29729 105.338 9.51866 106.31 9.96139C107.283 10.4041 108.093 11.0579 108.741 11.9228V9.45174H111.658ZM106.128 22.6873C106.959 22.2033 107.607 21.5238 108.073 20.6486C108.539 19.7735 108.771 18.7696 108.771 17.6371C108.771 16.5045 108.539 15.5006 108.073 14.6255C107.607 13.7503 106.959 13.0759 106.128 12.6023C105.298 12.1287 104.376 11.8919 103.363 11.8919C102.351 11.8919 101.404 12.1287 100.583 12.6023C99.7629 13.0759 99.1147 13.7503 98.6387 14.6255C98.1627 15.5006 97.9247 16.5045 97.9247 17.6371C97.9247 18.7696 98.1627 19.7735 98.6387 20.6486C99.1147 21.5238 99.7629 22.2033 100.583 22.6873C101.404 23.1712 102.33 23.4131 103.363 23.4131C104.396 23.4131 105.298 23.1712 106.128 22.6873Z" fill="white"/>
<path d="M129.918 10.3475C131.154 11.0476 132.121 12.0257 132.82 13.2819C133.519 14.538 133.868 15.9897 133.868 17.6371C133.868 19.2844 133.519 20.7413 132.82 22.0077C132.121 23.2741 131.154 24.2574 129.918 24.9575C128.683 25.6577 127.285 26.0077 125.725 26.0077C124.53 26.0077 123.436 25.7709 122.444 25.2973C121.451 24.8237 120.631 24.1338 119.983 23.2278V25.8224H117.188V4.20077H120.104V11.9228C120.753 11.0579 121.563 10.4041 122.535 9.96139C123.507 9.51866 124.571 9.2973 125.725 9.2973C127.285 9.2973 128.683 9.64736 129.918 10.3475ZM128.262 22.6873C129.083 22.2033 129.731 21.5238 130.207 20.6486C130.683 19.7735 130.921 18.7696 130.921 17.6371C130.921 16.5045 130.683 15.5006 130.207 14.6255C129.731 13.7503 129.083 13.0759 128.262 12.6023C127.442 12.1287 126.515 11.8919 125.482 11.8919C124.449 11.8919 123.548 12.1287 122.717 12.6023C121.887 13.0759 121.239 13.7503 120.773 14.6255C120.307 15.5006 120.074 16.5045 120.074 17.6371C120.074 18.7696 120.307 19.7735 120.773 20.6486C121.239 21.5238 121.887 22.2033 122.717 22.6873C123.548 23.1712 124.469 23.4131 125.482 23.4131C126.495 23.4131 127.442 23.1712 128.262 22.6873Z" fill="white"/>
<path d="M133.868 8.40154C136.15 8.40154 138 6.52079 138 4.20077C138 1.88075 136.15 0 133.868 0C131.586 0 129.736 1.88075 129.736 4.20077C129.736 6.52079 131.586 8.40154 133.868 8.40154Z" fill="#485CDA"/>
</g>
<defs>
<clipPath id="clip0_265_1193">
<rect width="138" height="32" fill="white"/>
</clipPath>
</defs>
</svg>
