<svg width="30" height="30" viewBox="0 0 30 30" fill="none" xmlns="http://www.w3.org/2000/svg">
<circle cx="12.5832" cy="12.5832" r="12.0832" stroke="#929292"/>
<path d="M12.8728 6.15863C14.9968 6.49788 19.2449 8.2523 19.2449 12.556C19.2449 17.9355 14.321 19.2441 12.5832 19.2441C10.8454 19.2441 5.92151 17.7901 5.92151 12.556C5.92151 8.36861 5.92151 4.4139 5.92151 2.95996" stroke="#929292" stroke-linecap="round"/>
<path d="M12.744 9.12359C13.9241 9.30924 16.2841 10.2693 16.2841 12.6243C16.2841 15.5681 13.5486 16.2842 12.5831 16.2842C11.6177 16.2842 8.8822 15.4886 8.8822 12.6243C8.8822 10.3329 8.8822 2.27609 8.8822 1.48047" stroke="#929292" stroke-linecap="round"/>
<path d="M23.3251 23.8945L19.7172 21.6977L16.6283 27.26H18.8353H19.1309L19.2734 27.519L20.249 29.2925L23.3251 23.8945Z" fill="#2A2A2A" stroke="#485CDA"/>
<path d="M22.6749 23.8945L26.2828 21.6977L29.3717 27.26H27.1647H26.8691L26.7266 27.519L25.751 29.2925L22.6749 23.8945Z" fill="#2A2A2A" stroke="#485CDA"/>
<path d="M26.1037 22.93L25.8691 22.9746L25.7564 23.1851L25.0783 24.4513L25.0783 24.4513L25.0753 24.457C25.0694 24.4684 25.0607 24.4779 25.0468 24.4858C25.0316 24.4945 25.0119 24.5 24.9917 24.5C24.9754 24.5 24.9663 24.4986 24.9617 24.4976C24.9578 24.4968 24.9547 24.4957 24.9507 24.4936L24.9507 24.4936L24.9463 24.4913L23.7107 23.8661L23.4927 23.7557L23.2717 23.86L22.6087 24.1726L22.6087 24.1726L22.6053 24.1742L22.0902 24.4218H22.0895L21.9974 24.46C21.9634 24.4742 21.9379 24.471 21.9218 24.4648C21.9065 24.4589 21.8888 24.4464 21.8755 24.4172L21.8698 24.4049L21.8636 24.3929L21.2006 23.1267L21.0873 22.9104L20.8472 22.8667L20.0064 22.7137L19.4706 22.5747C19.4223 22.5443 19.398 22.4915 19.4011 22.4467L19.5957 21.0025L19.6264 20.7743L19.4731 20.6026L18.5364 19.5538C18.5106 19.5176 18.4991 19.4761 18.5001 19.4375C18.5011 19.3948 18.5163 19.37 18.5259 19.36L18.526 19.3601L18.5339 19.3515L19.4832 18.3198L19.6381 18.1514L19.6119 17.924L19.4472 16.4945C19.4435 16.4396 19.4587 16.3996 19.4762 16.3748C19.4933 16.3506 19.5151 16.3364 19.5415 16.3307L20.9076 16.0815L21.1448 16.0382L21.2587 15.8256L21.9367 14.5594C21.9591 14.5176 21.9828 14.5064 21.9911 14.5038C22.0155 14.4962 22.0361 14.5014 22.0449 14.5065L22.0567 14.5133L22.0688 14.5194L23.3044 15.1447L23.5247 15.2562L23.7471 15.149L24.91 14.5889H24.9105L25.0026 14.5507C25.0366 14.5366 25.0621 14.5398 25.0782 14.546C25.0935 14.5518 25.1112 14.5644 25.1245 14.5936L25.1302 14.6059L25.1364 14.6178L25.7994 15.884L25.9095 16.0942L26.1419 16.1419L27.512 16.423C27.512 16.4231 27.5121 16.4231 27.5121 16.4231C27.5211 16.425 27.5445 16.4344 27.5679 16.4683C27.5905 16.5008 27.5998 16.5377 27.5984 16.5676L27.4043 18.0083L27.3736 18.2364L27.5269 18.4081L28.4636 19.457C28.4894 19.4931 28.5009 19.5347 28.4999 19.5733C28.4989 19.6159 28.4837 19.6408 28.4741 19.6508L28.474 19.6507L28.4661 19.6592L27.5168 20.6909L27.3619 20.8594L27.3881 21.0867L27.5517 22.5062C27.5529 22.5772 27.5294 22.6189 27.509 22.6406L26.9977 22.76L26.1037 22.93Z" fill="#2A2A2A" stroke="#485CDA"/>
<circle cx="23.1952" cy="19.5248" r="2.0736" stroke="#485CDA"/>
</svg>
