<svg width="319" height="189" viewBox="0 0 319 189" fill="none" xmlns="http://www.w3.org/2000/svg">
<g clip-path="url(#clip0_451_21322)">
<path d="M319 138.891C319 166.566 296.62 189 269.017 189H49.9888C22.3796 189 0 166.566 0 138.891C0 111.215 22.3796 88.7815 49.9888 88.7815C50.9282 88.7815 51.8565 88.809 52.7794 88.8641C54.6471 58.1873 80.059 33.8981 111.129 33.8981C123.143 33.8981 134.305 37.5269 143.589 43.7547C154.531 18.0283 179.987 0 209.645 0C249.29 0 281.426 32.2131 281.426 71.9536C281.426 78.1209 280.651 84.112 279.196 89.8222C301.916 94.5358 319 114.712 319 138.891Z" fill="url(#paint0_linear_451_21322)"/>
<path d="M288.04 92.636C296.544 92.636 303.437 85.7256 303.437 77.2012C303.437 68.6769 296.544 61.7665 288.04 61.7665C279.536 61.7665 272.642 68.6769 272.642 77.2012C272.642 85.7256 279.536 92.636 288.04 92.636Z" fill="#226AA3"/>
<path d="M296.423 79.1286H286.117V69.4096C286.117 68.3468 286.98 67.4823 288.04 67.4823C289.1 67.4823 289.962 68.3468 289.962 69.4096V75.274H296.423C297.483 75.274 298.345 76.1385 298.345 77.2013C298.345 78.264 297.483 79.1286 296.423 79.1286Z" fill="white"/>
<path d="M53.6471 97.0413C56.185 96.5017 60.2006 96.0997 64.2766 96.0997C70.094 96.0997 73.8349 97.1129 76.6419 99.4036C78.9821 101.155 80.9322 104.618 80.9322 107.977C80.9322 112.36 79.0315 115.653 76.0597 117.542C80.3389 118.621 84.2501 123.346 84.2501 128.39C84.2501 132.3 82.8933 135.135 79.8885 138.043C76.175 141.639 70.0171 142.288 62.6671 142.288C58.657 142.288 55.5807 142.019 53.6416 141.749V97.0358L53.6471 97.0413ZM62.7604 115.653H64.7435C70.2862 115.653 71.7584 112.636 71.7584 110.235C71.7584 107.052 69.4842 105.02 64.6117 105.02C63.112 105.02 62.7604 105.048 62.7604 105.048V115.653ZM62.8209 134.403C62.8209 134.403 62.2715 134.403 64.3425 134.403C70.3576 134.403 74.8072 133.159 74.8072 128.874C74.8072 124.205 70.6268 122.861 64.2766 122.861H62.7604L62.8209 134.403Z" fill="#226AA3"/>
<path d="M98.8127 100.389C98.9116 103.346 96.7582 105.714 93.3359 105.714C90.3036 105.714 88.1558 103.346 88.1558 100.389C88.1558 97.4322 90.4025 94.9653 93.5337 94.9653C96.6649 94.9653 98.8127 97.3331 98.8127 100.389ZM88.9413 141.886V109.712H98.0327V141.886H88.9413Z" fill="#226AA3"/>
<path d="M115.15 99.3209V109.712H125.219L123.021 117.619H115.15V127.509C115.15 131.556 115.259 135.009 117.962 135.009C121.335 135.009 123.335 133.863 123.335 133.863L126.059 140.064C124.922 140.537 121.302 142.558 115.281 142.558C112.54 142.558 110.337 141.683 108.931 140.064C107.261 138.313 106.657 135.411 106.657 131.567V117.619H100.543V109.712H106.657V101.424L115.155 99.3209H115.15Z" fill="#226AA3"/>
<path d="M128.543 119.431C128.543 115.587 128.477 112.283 128.273 109.249H136.167L136.365 113.451C137.074 111.892 140.891 108.456 144.726 108.506C148.703 108.555 150.692 110.697 150.692 110.697L147.692 118.478C147.692 118.478 145.467 116.92 143.556 116.92C140.353 116.92 138.139 118.627 137.365 121.727C137.233 122.536 137.096 123.478 137.096 124.491V141.892H128.532V119.436L128.543 119.431Z" fill="#226AA3"/>
<path d="M173.994 109.244L180.894 118.726L188.194 109.244H198.39L185.711 125.025L198.725 141.886H187.645L180.894 132.068L173.395 141.886H163.068L175.664 125.229L163.601 109.244H173.999H173.994Z" fill="#226AA3"/>
<path d="M161.986 100.389C162.084 103.346 159.931 105.714 156.509 105.714C153.476 105.714 151.329 103.346 151.329 100.389C151.329 97.4322 153.575 94.9653 156.707 94.9653C159.838 94.9653 161.986 97.3331 161.986 100.389ZM152.114 141.886V109.712H161.206V141.886H152.114Z" fill="#226AA3"/>
<path d="M53.6471 98.6932C56.185 98.1536 60.2006 97.7516 64.2766 97.7516C70.094 97.7516 73.8349 98.7648 76.6419 101.055C78.9821 102.807 80.9322 106.27 80.9322 109.629C80.9322 114.012 79.0315 117.305 76.0597 119.194C80.3389 120.273 84.2501 124.998 84.2501 130.042C84.2501 133.951 82.8933 136.787 79.8885 139.695C76.175 143.29 70.0171 143.94 62.6671 143.94C58.657 143.94 55.5807 143.67 53.6416 143.401V98.6877L53.6471 98.6932ZM62.7604 117.305H64.7435C70.2862 117.305 71.7584 114.288 71.7584 111.887C71.7584 108.704 69.4842 106.672 64.6117 106.672C63.112 106.672 62.7604 106.7 62.7604 106.7V117.305ZM62.8209 136.055C62.8209 136.055 62.2715 136.055 64.3425 136.055C70.3576 136.055 74.8072 134.81 74.8072 130.526C74.8072 125.857 70.6268 124.513 64.2766 124.513H62.7604L62.8209 136.055Z" fill="white"/>
<path d="M98.8132 102.041C98.9121 104.998 96.7587 107.366 93.3364 107.366C90.3041 107.366 88.1562 104.998 88.1562 102.041C88.1562 99.0842 90.403 96.6173 93.5342 96.6173C96.6653 96.6173 98.8132 98.9851 98.8132 102.041ZM88.9418 143.538V111.364H98.0332V143.538H88.9418Z" fill="white"/>
<path d="M115.15 100.973V111.364H125.219L123.022 119.271H115.15V129.161C115.15 133.208 115.26 136.661 117.963 136.661C121.336 136.661 123.335 135.515 123.335 135.515L126.06 141.716C124.923 142.189 121.303 144.21 115.282 144.21C112.541 144.21 110.338 143.334 108.932 141.716C107.262 139.965 106.657 137.063 106.657 133.219V119.271H100.543V111.364H106.657V103.076L115.156 100.973H115.15Z" fill="white"/>
<path d="M128.543 121.083C128.543 117.239 128.477 113.935 128.273 110.901H136.167L136.365 115.103C137.074 113.544 140.891 110.108 144.726 110.158C148.703 110.207 150.692 112.349 150.692 112.349L147.692 120.13C147.692 120.13 145.467 118.572 143.556 118.572C140.353 118.572 138.139 120.279 137.365 123.379C137.233 124.188 137.096 125.13 137.096 126.143V143.544H128.532V121.088L128.543 121.083Z" fill="white"/>
<path d="M173.994 110.896L180.894 120.378L188.194 110.896H198.39L185.711 126.677L198.725 143.538H187.645L180.894 133.72L173.395 143.538H163.068L175.664 126.881L163.601 110.896H173.999H173.994Z" fill="white"/>
<path d="M205.157 145.741C205.157 145.741 205.459 137.795 212.348 129.166C219.077 120.736 229.058 117.118 229.058 111.088C229.058 107.564 226.455 105.648 221.06 105.587C217.116 105.543 212.903 107.024 209.821 108.836L206.866 101.165C211.974 98.2689 218.044 96.7051 223.06 96.7051C234.914 96.7051 239.606 102.052 239.606 110.631C239.606 123.643 220.154 129.419 220.154 137.448L240.594 137.514V145.741H205.163H205.157Z" fill="white"/>
<path d="M260.579 145.741V135.141H238.545V128.01L262.98 96.6998H270.082V126.628H277.438V135.135H270.082V145.735H260.579V145.741ZM260.579 126.633V112.465L249.592 126.485L260.579 126.633Z" fill="white"/>
<path d="M205.157 143.538C205.157 143.538 205.459 135.592 212.348 126.964C219.077 118.533 229.058 114.915 229.058 108.886C229.058 105.362 226.455 103.445 221.06 103.385C217.116 103.341 212.903 104.822 209.821 106.634L206.866 98.9631C211.974 96.0667 218.044 94.5028 223.06 94.5028C234.914 94.5028 239.606 99.8496 239.606 108.429C239.606 121.441 220.154 127.217 220.154 135.245L240.594 135.312V143.538H205.163H205.157Z" fill="#226AA3"/>
<path d="M260.579 143.538V132.938H238.545V125.807L262.98 94.4972H270.082V124.425H277.438V132.933H270.082V143.533H260.579V143.538ZM260.579 124.431V110.262L249.592 124.282L260.579 124.431Z" fill="#226AA3"/>
<path d="M161.986 102.041C162.084 104.998 159.931 107.366 156.509 107.366C153.476 107.366 151.329 104.998 151.329 102.041C151.329 99.0842 153.575 96.6173 156.707 96.6173C159.838 96.6173 161.986 98.9851 161.986 102.041ZM152.114 143.538V111.364H161.206V143.538H152.114Z" fill="white"/>
<path d="M319 138.891C319 166.567 296.62 189 269.017 189H49.9888C22.3796 189 0 166.567 0 138.891C0 138.059 0.0219731 137.233 0.060426 136.413C1.35135 162.938 23.2091 184.044 49.9888 184.044H269.017C295.791 184.044 317.654 162.938 318.94 136.407C318.978 137.233 319 138.059 319 138.891Z" fill="#40ABE0"/>
</g>
<defs>
<linearGradient id="paint0_linear_451_21322" x1="159.497" y1="194.793" x2="159.497" y2="-90.2793" gradientUnits="userSpaceOnUse">
<stop stop-color="#50C0F2"/>
<stop offset="1" stop-color="#B4E4FB"/>
</linearGradient>
<clipPath id="clip0_451_21322">
<rect width="319" height="189" fill="white"/>
</clipPath>
</defs>
</svg>
